<svg width="50" height="50" viewBox="0 0 50 50" fill="none" xmlns="http://www.w3.org/2000/svg">
<path d="M18.3594 47.6938C19.4158 48.6763 20.8057 49.2213 22.2484 49.2188C22.5566 49.2183 22.8642 49.1922 23.168 49.1406L33.6484 47.6562H40.625C40.8322 47.6562 41.0309 47.5739 41.1774 47.4274C41.3239 47.2809 41.4062 47.0822 41.4062 46.875V39.8438C41.4061 39.6798 41.3545 39.5201 41.2586 39.3872C41.1627 39.2543 41.0274 39.1549 40.8719 39.1031L35.5695 37.3359C32.9266 36.4587 30.0616 36.5233 27.4609 37.5187L20.4383 40.2195C20.2988 40.2739 20.1642 40.34 20.0359 40.4172L12.6563 34.8828C12.279 34.5999 11.8305 34.4276 11.3608 34.3853C10.8912 34.3429 10.4191 34.4322 9.99731 34.6431C9.57556 34.8539 9.22086 35.1781 8.97296 35.5792C8.72506 35.9803 8.59375 36.4425 8.59375 36.9141C8.59413 37.4525 8.7053 37.9852 8.92034 38.4788C9.13538 38.9725 9.44971 39.4166 9.84375 39.7836L18.3594 47.6938ZM11.1328 35.9375C11.344 35.9381 11.5494 36.0066 11.7188 36.1328L18.9914 41.5867C18.833 41.9296 18.7509 42.3028 18.7508 42.6805C18.7522 43.3784 19.0302 44.0472 19.5238 44.5406C20.0175 45.0339 20.6865 45.3115 21.3844 45.3125C21.7807 45.3127 22.1752 45.2575 22.5562 45.1484L27.4531 43.75H28.9062V42.1875H27.3438C27.2714 42.1875 27.1993 42.1975 27.1297 42.2172L22.1297 43.6453C21.8876 43.7149 21.637 43.7502 21.3852 43.75C21.1349 43.7502 20.8924 43.6627 20.7 43.5027C20.5075 43.3427 20.3771 43.1204 20.3314 42.8744C20.2857 42.6283 20.3277 42.374 20.4499 42.1556C20.5722 41.9372 20.7671 41.7686 21.0008 41.6789L28.0234 38.9781C30.2852 38.1119 32.777 38.0553 35.0758 38.818L39.8438 40.4086V46.0938H33.5938C33.5569 46.0936 33.5201 46.0962 33.4836 46.1016L22.9289 47.6C22.3035 47.7004 21.6635 47.6579 21.0568 47.4758C20.4501 47.2937 19.8925 46.9767 19.4258 46.5484L10.9102 38.6391C10.6729 38.4186 10.4835 38.1517 10.3538 37.855C10.2241 37.5582 10.1569 37.2379 10.1562 36.9141C10.1567 36.6552 10.2597 36.407 10.4427 36.224C10.6258 36.0409 10.8739 35.9379 11.1328 35.9375Z" fill="#006C39"/>
<path d="M25.7811 33.5937C28.9471 33.5911 32.0449 32.6739 34.702 30.9525C37.3592 29.2312 39.4625 26.7789 40.7592 23.8906C40.8271 23.739 40.8449 23.5696 40.81 23.4071C40.7751 23.2447 40.6893 23.0976 40.5651 22.9872C40.4409 22.8768 40.2847 22.8089 40.1193 22.7934C39.9538 22.7778 39.7877 22.8155 39.6451 22.9008C36.9351 24.5174 33.7806 25.2288 30.639 24.9317C27.4975 24.6346 24.5322 23.3445 22.1734 21.2484C19.8145 19.1524 18.1846 16.3594 17.5202 13.2746C16.8557 10.1898 17.1912 6.97348 18.4779 4.09218C18.5457 3.94062 18.5634 3.77142 18.5285 3.60913C18.4936 3.44683 18.4079 3.29987 18.2838 3.18956C18.1597 3.07925 18.0038 3.01133 17.8385 2.99565C17.6732 2.97997 17.5073 3.01734 17.3647 3.10234C14.2816 4.94376 11.8879 7.74587 10.5508 11.0787C9.21367 14.4116 9.00701 18.0912 9.96251 21.5528C10.918 25.0144 12.9829 28.067 15.8403 30.242C18.6978 32.4171 22.19 33.5946 25.7811 33.5937ZM16.192 5.85937C15.3944 8.8065 15.4345 11.9177 16.3079 14.8432C17.1813 17.7688 18.8533 20.3928 21.136 22.4204C23.4187 24.4479 26.2217 25.7986 29.2299 26.3207C32.2381 26.8428 35.3322 26.5156 38.1647 25.3758C36.9916 27.1499 35.4509 28.6511 33.6471 29.7779C31.8432 30.9047 29.8183 31.6307 27.7094 31.9068C25.6005 32.1828 23.457 32.0024 21.4239 31.3778C19.3908 30.7532 17.5157 29.699 15.9255 28.2866C14.3353 26.8742 13.0673 25.1366 12.2072 23.1914C11.347 21.2462 10.915 19.1389 10.9403 17.0122C10.9655 14.8855 11.4475 12.789 12.3536 10.8648C13.2597 8.94062 14.5687 7.2336 16.192 5.85937Z" fill="#006C39"/>
<path d="M24.5662 9.24374L28.7795 12.0523L27.3732 16.9742C27.3291 17.1281 27.3333 17.2918 27.3853 17.4431C27.4372 17.5945 27.5344 17.7263 27.6637 17.8206C27.793 17.915 27.9481 17.9674 28.1081 17.9706C28.2682 17.9739 28.4253 17.928 28.5584 17.8391L32.8123 15L37.0662 17.8359C37.1993 17.9249 37.3564 17.9708 37.5164 17.9675C37.6765 17.9642 37.8316 17.9119 37.9609 17.8175C38.0902 17.7232 38.1874 17.5914 38.2393 17.44C38.2913 17.2886 38.2955 17.1249 38.2513 16.9711L36.8451 12.0492L41.0584 9.24062C41.19 9.15287 41.2919 9.02723 41.3506 8.88031C41.4093 8.7334 41.422 8.57213 41.387 8.41785C41.352 8.26356 41.271 8.12353 41.1547 8.01627C41.0384 7.90901 40.8923 7.83959 40.7357 7.81718L35.7256 7.10156L33.5443 1.28827C33.4887 1.13902 33.3887 1.01034 33.2579 0.919485C33.1271 0.828629 32.9716 0.779938 32.8123 0.779938C32.653 0.779938 32.4975 0.828629 32.3667 0.919485C32.2358 1.01034 32.1359 1.13902 32.0803 1.28827L29.899 7.10468L24.8888 7.82031C24.7322 7.84271 24.5861 7.91214 24.4698 8.01939C24.3536 8.12665 24.2726 8.26668 24.2376 8.42097C24.2026 8.57526 24.2153 8.73652 24.274 8.88344C24.3327 9.03036 24.4346 9.156 24.5662 9.24374ZM30.5818 8.58593C30.7206 8.56611 30.8515 8.5093 30.9608 8.42146C31.0701 8.33362 31.1537 8.218 31.2029 8.08671L32.8123 3.78749L34.424 8.08437C34.4732 8.21565 34.5568 8.33128 34.6661 8.41912C34.7754 8.50695 34.9063 8.56376 35.0451 8.58359L38.4904 9.07577L35.5037 11.0664C35.3659 11.1582 35.2608 11.2915 35.2036 11.447C35.1465 11.6024 35.1402 11.772 35.1857 11.9312L36.1646 15.3562L33.2459 13.4102C33.1175 13.3245 32.9666 13.2788 32.8123 13.2788C32.658 13.2788 32.5071 13.3245 32.3787 13.4102L29.4599 15.3562L30.4388 11.9312C30.4844 11.772 30.4781 11.6024 30.4209 11.447C30.3638 11.2915 30.2587 11.1582 30.1209 11.0664L27.1342 9.07812L30.5818 8.58593Z" fill="#006C39"/>
</svg>
