<svg width="48" height="48" viewBox="0 0 48 48" fill="none" xmlns="http://www.w3.org/2000/svg">
<path d="M47.1592 18.371C46.9833 18.2226 46.7487 18.1589 46.5229 18.199C45.9751 18.294 45.3981 18.4127 44.8284 18.5253V15.407C44.8284 15.1869 44.7357 14.9771 44.5724 14.8287C44.4095 14.6807 44.1909 14.6097 43.9727 14.6292C40.3667 14.9744 36.9114 15.9296 33.7005 17.4689C31.4448 18.5543 29.3746 19.919 27.5158 21.5072C25.657 19.919 23.5866 18.5542 21.3291 17.4677C19.8085 16.7406 18.2209 16.1413 16.6111 15.6862C16.1972 15.5707 15.7642 15.811 15.6467 16.2256C15.5296 16.6407 15.7711 17.0725 16.1861 17.19C17.7108 17.6207 19.2142 18.1887 20.6535 18.8765C22.8782 19.9473 24.9225 21.2916 26.7345 22.8758V33.5947C26.7345 34.0265 27.0843 34.376 27.5158 34.376C27.9472 34.376 28.297 34.0265 28.297 33.5947V22.8758C30.109 21.2916 32.1533 19.9473 34.3769 18.8772C37.1662 17.5402 40.1523 16.6678 43.2659 16.2791V19.4668L43.2651 19.4712V37.6873C43.1089 37.7157 42.9542 37.7572 42.7981 37.7876C42.2549 37.8932 41.7146 38.008 41.1777 38.1355C40.9155 38.198 40.6558 38.2652 40.3949 38.3331C39.8773 38.467 39.3641 38.6117 38.8541 38.7658C38.7201 38.8065 38.5825 38.8375 38.4491 38.8796C38.1118 38.9834 37.7666 39.0955 37.3733 39.2328C37.038 39.3473 36.7023 39.4625 36.3723 39.5899C35.757 39.8221 35.157 40.0708 34.5799 40.3255C34.5486 40.3391 34.5173 40.3523 34.4861 40.366C34.4289 40.3914 34.3682 40.4158 34.3116 40.4413C33.9817 40.5863 33.6601 40.7313 33.3526 40.8808C33.1535 40.9752 32.9559 41.076 32.7578 41.1744C32.7367 41.1849 32.7155 41.1952 32.6945 41.2057C32.1279 41.4886 31.5623 41.7894 30.9948 42.1103C30.9715 42.1234 30.9487 42.1368 30.9254 42.15C30.3757 42.4623 29.8234 42.7888 29.2606 43.1437L28.8148 43.4376L28.297 42.4948V40.2117C28.297 39.7799 27.9472 39.4304 27.5158 39.4304C27.0843 39.4304 26.7345 39.7799 26.7345 40.2117V42.4948L26.217 43.437L25.7637 43.1383C25.4768 42.956 25.1743 42.7721 24.855 42.5806C24.6093 42.4334 24.3633 42.2861 24.1413 42.1702C23.9097 42.029 21.3985 40.8678 21.1509 40.7358C20.769 40.5314 20.296 40.6756 20.0938 41.057C19.8905 41.437 20.034 41.9108 20.4147 42.1137C20.6355 42.232 23.1216 43.3779 23.3593 43.5221C23.5927 43.6503 23.8258 43.7853 24.0509 43.9203C24.3572 44.1042 24.6483 44.2881 24.9164 44.459L25.1757 44.626L25.4592 44.8168L25.0264 45.6048C22.2997 44.1953 19.3997 43.097 16.394 42.3365C15.3629 42.0771 14.3203 41.8574 13.2946 41.6834C12.8681 41.6186 12.4656 41.8978 12.3939 42.3235C12.3218 42.7492 12.6083 43.1521 13.0336 43.2245C14.019 43.3909 15.0215 43.6022 16.0118 43.8517C19.1459 44.6444 22.1603 45.8193 24.9717 47.3437C25.0862 47.4062 25.2124 47.4367 25.3383 47.4367C25.3534 47.4367 25.3682 47.4315 25.3833 47.4306H29.6511C29.6648 47.4313 29.6779 47.436 29.6917 47.436C29.8172 47.436 29.9446 47.4055 30.0628 47.3421C32.8731 45.8201 35.8864 44.6467 39.0178 43.8524C41.5111 43.2223 44.0956 42.8309 46.6991 42.6882C47.1134 42.6661 47.4376 42.3235 47.4376 41.9085V18.9688C47.4376 18.7384 47.3358 18.5194 47.1592 18.371ZM26.6716 45.8681L27.165 44.9691L27.1763 44.9488L27.177 44.9473L27.1782 44.9457L27.5158 44.3271L27.8534 44.9457C27.8554 44.9495 27.8595 44.9516 27.8616 44.9553L28.3634 45.8681H26.6716ZM45.8751 41.1753C43.4215 41.3523 40.9897 41.7429 38.6345 42.3372C35.6306 43.0994 32.7312 44.1971 30.005 45.6046L29.5723 44.8167L29.732 44.7091C29.8567 44.6269 29.9807 44.5448 30.1109 44.462C30.6332 44.1291 31.166 43.8096 31.7073 43.5025C31.7242 43.4929 31.7413 43.4829 31.7582 43.4734C32.2947 43.1702 32.84 42.88 33.3932 42.6031C33.4147 42.5924 33.4363 42.5819 33.4577 42.5712C34 42.3011 34.5499 42.0439 35.1063 41.7999C35.1421 41.7841 35.1792 41.7688 35.2151 41.753C35.7794 41.5077 36.3497 41.2745 36.9266 41.057C37.4724 40.8515 38.0257 40.6605 38.5835 40.4798C38.6388 40.462 38.6943 40.4427 38.7494 40.4253C39.3044 40.2484 39.8647 40.0837 40.4297 39.9317C40.4924 39.9148 40.5555 39.8998 40.6183 39.8832C41.1465 39.7439 41.6784 39.6151 42.2137 39.498C42.2734 39.4849 42.3331 39.4714 42.3929 39.4585C42.9832 39.3324 43.5768 39.218 44.1738 39.1192C44.458 39.0721 44.6845 38.8753 44.7792 38.6178C44.8111 38.5325 44.8284 38.4404 44.8284 38.3448V20.107C45.1814 20.0357 45.5305 19.9678 45.8751 19.9034V41.1753Z" fill="#006C39"/>
<path d="M25.5625 38.5241V35.29C25.5625 34.4605 24.9266 33.785 24.1204 33.7108C24.4228 31.9687 24.3585 30.2598 23.9191 28.6196C22.3044 22.5652 16.2389 20.037 14.2477 19.3586V17.5081C14.2477 17.0767 13.8979 16.7269 13.4665 16.7269C13.035 16.7269 12.6852 17.0767 12.6852 17.5081V19.3659C12.4792 19.4362 12.2286 19.5254 11.9375 19.6387V9.49404C12.0897 8.83887 12.196 7.88124 11.9101 6.79991C11.2263 4.24168 8.89838 3.06423 7.7822 2.63593V1.34451C7.7822 0.913071 7.43239 0.563263 7.00095 0.563263C6.5695 0.563263 6.2197 0.913071 6.2197 1.34451V2.63617C5.10337 3.06489 2.77536 4.24311 2.09181 6.80182C1.80781 7.87551 1.91166 8.82776 2.06244 9.48274V33.705C1.22845 33.751 0.5625 34.4407 0.5625 35.29V38.5241C0.5625 39.3984 1.27394 40.1102 2.14865 40.1102H23.9767C24.8511 40.1102 25.5625 39.3984 25.5625 38.5241ZM22.4097 29.0232C22.811 30.5208 22.8537 32.0902 22.5382 33.6962H4.41472C4.38697 33.5517 4.35684 33.4068 4.33471 33.263C4.30748 33.0859 4.27987 32.9088 4.26123 32.7329C4.23386 32.4747 4.22156 32.2189 4.21264 31.9635C4.20687 31.7977 4.19614 31.631 4.1981 31.4665C4.20148 31.1888 4.22456 30.9147 4.25012 30.6411C4.26295 30.5038 4.26643 30.3648 4.28483 30.2285C4.33986 29.8215 4.41573 29.4187 4.52063 29.0224C5.1409 26.6962 6.59125 24.7 8.83658 23.0841C9.58044 22.5394 10.3934 22.0576 11.3356 21.6051C11.3379 21.604 11.3827 21.581 11.4197 21.5619L11.4855 21.5292C12.3185 21.1426 13.0048 20.9045 13.3878 20.7786C13.415 20.7815 13.4386 20.7945 13.4665 20.7945C13.4994 20.7945 13.5275 20.7797 13.5593 20.7758C15.0867 21.2663 20.9308 23.4788 22.4097 29.0232ZM10.375 10.2076V20.3356C10.3373 20.3544 10.305 20.3757 10.2675 20.3946C9.87165 20.595 9.49104 20.8017 9.13007 21.0184C9.08663 21.0445 9.04491 21.0722 9.00195 21.0985C8.62605 21.3289 8.26366 21.5672 7.91876 21.8199C7.63085 22.027 7.35786 22.2418 7.09288 22.4607C7.01058 22.5287 6.93223 22.5986 6.85213 22.6677C6.66921 22.8256 6.49159 22.986 6.32026 23.1496C6.23906 23.2271 6.15814 23.3048 6.07955 23.3836C5.90136 23.5624 5.73103 23.7449 5.56633 23.9303C5.51326 23.99 5.45685 24.0481 5.40516 24.1085C5.19597 24.353 4.99828 24.603 4.81222 24.8584C4.76663 24.921 4.72591 24.9858 4.68175 25.049C4.54314 25.2474 4.41034 25.4484 4.28545 25.6531C4.23052 25.7431 4.17802 25.8342 4.12576 25.9255C4.01523 26.1184 3.91118 26.3143 3.81257 26.5127C3.7698 26.5989 3.72531 26.6842 3.68478 26.7713C3.6658 26.8121 3.64339 26.8513 3.62494 26.8923V10.2076H10.375ZM3.60205 7.20351C4.15251 5.14243 6.31239 4.24979 7.00095 4.01366C7.68988 4.2494 9.84938 5.14128 10.3998 7.2016C10.5402 7.73218 10.5484 8.22837 10.5043 8.64127H3.498C3.4538 8.22837 3.46172 7.73294 3.60205 7.20351ZM2.125 38.5241L2.14865 35.2587H2.84369H3.7657H23.1642H23.9767C23.9863 35.2587 24 35.2717 24 35.29L23.9767 38.5477L2.125 38.5241Z" fill="#006C39"/>
</svg>
