<svg width="50" height="50" viewBox="0 0 50 50" fill="none" xmlns="http://www.w3.org/2000/svg">
<path d="M47.1007 34.4778L31.1718 19.2956L31.332 19.1355C31.7898 18.6782 31.7963 17.9204 31.3311 17.4302L30.0429 16.1494C30.5285 15.5081 30.9868 14.8412 31.4245 14.1556C32.4021 14.9732 33.7668 14.8659 34.6101 14.0235C35.5322 13.1005 35.5326 11.5981 34.6101 10.6751L26.5004 2.56583C25.6055 1.6719 24.0463 1.6719 23.1523 2.56583C22.3128 3.40534 22.195 4.76919 23.0198 5.75204C19.5063 8.00747 16.4574 11.0641 13.9374 14.8567C13.0084 14.0691 11.6162 14.1028 10.7387 14.9785C9.81976 15.8984 9.80871 17.3956 10.7392 18.326L18.8489 26.4362C19.7748 27.3611 21.2696 27.363 22.1974 26.4362C23.0341 25.5986 23.156 24.2354 22.3302 23.2509C23.0163 22.8128 23.6836 22.3542 24.3253 21.8681L25.5975 23.1403C26.0683 23.637 26.8432 23.6233 27.3131 23.1535L27.4688 22.9977L42.6521 38.9268C43.8665 40.2011 45.8984 40.2361 47.1542 38.9803C48.4041 37.7295 48.3808 35.6987 47.1007 34.4778ZM24.1726 3.58559C24.5328 3.22436 25.1172 3.2227 25.4801 3.58559L33.5898 11.6948C33.9509 12.0554 33.9509 12.6432 33.5898 13.0038C33.2288 13.3653 32.6424 13.3634 32.2823 13.0038C31.3462 12.0676 24.9139 5.63489 24.1726 4.89362C23.8122 4.53423 23.8087 3.94846 24.1726 3.58559ZM24.0371 6.79809L30.3776 13.1386C28.0454 16.8736 24.9081 19.9592 21.3124 22.2041L14.9807 15.8715C17.4765 12.0518 20.5193 9.00281 24.0371 6.79809ZM21.1767 25.4165C20.8283 25.7658 20.2184 25.7658 19.8691 25.4165L11.759 17.3063C11.3953 16.9427 11.3997 16.3575 11.759 15.9983C12.1196 15.6376 12.7064 15.6377 13.067 15.9983C13.1681 16.0994 21.597 24.5283 21.1772 24.1084C21.5397 24.471 21.5376 25.0565 21.1767 25.4165ZM25.4665 20.9693C25.5331 20.9139 25.5928 20.8499 25.6589 20.7939C26.8827 19.7507 27.8309 18.8131 28.9136 17.55C28.989 17.462 29.0735 17.383 29.1479 17.2941L30.1437 18.2838C29.7706 18.6568 26.3609 22.0657 26.4619 21.9647L25.4665 20.9693ZM46.1344 37.9606C45.4649 38.6282 44.3662 38.6349 43.6963 37.9315L28.4893 21.9775L30.1516 20.3156L46.1053 35.522C46.7982 36.1828 46.8116 37.2824 46.1344 37.9606Z" fill="#006C39"/>
<path d="M33.7999 41.1945H32.9891V39.3982C32.9891 37.9409 31.8036 36.7549 30.3462 36.7549H8.84777C7.39044 36.7549 6.20448 37.9409 6.20448 39.3982V41.1945H5.39365C4.46591 41.1945 3.71143 41.9495 3.71143 42.8772V46.4219C3.71143 47.3497 4.46591 48.1046 5.39365 48.1046H33.7999C34.7276 48.1046 35.4821 47.3497 35.4821 46.4219V42.8772C35.4821 41.9495 34.7276 41.1945 33.7999 41.1945ZM7.64679 39.3982C7.64679 38.7362 8.18577 38.1972 8.84777 38.1972H30.3462C31.0082 38.1972 31.5467 38.7362 31.5467 39.3982V41.1945H7.64679V39.3982ZM34.0398 46.4219C34.0398 46.5543 33.9323 46.6623 33.7999 46.6623H5.39365C5.26125 46.6623 5.15373 46.5543 5.15373 46.4219V42.8772C5.15373 42.7448 5.26125 42.6368 5.39365 42.6368H33.7999C33.9323 42.6368 34.0398 42.7448 34.0398 42.8772V46.4219Z" fill="#006C39"/>
<path d="M7.07157 33.2515C7.46266 33.2515 7.7838 32.9388 7.79225 32.5454C7.80023 32.1472 7.48426 31.8176 7.08612 31.8092L2.65967 31.7162C2.25026 31.6974 1.93194 32.0233 1.92349 32.4224C1.91551 32.8205 2.23148 33.1501 2.62962 33.1585L7.05608 33.2515H7.07157Z" fill="#006C39"/>
<path d="M9.34249 27.1987C9.59194 27.5056 10.0461 27.557 10.3571 27.3039C10.6665 27.0532 10.7134 26.5987 10.4627 26.2897L7.67294 22.8521C7.42129 22.5422 6.96775 22.4943 6.65835 22.7469C6.34895 22.9976 6.302 23.4521 6.55271 23.761L9.34249 27.1987Z" fill="#006C39"/>
<path d="M4.19361 28.3396L8.16981 30.2852C8.52694 30.4596 8.95911 30.3123 9.13464 29.9546C9.30976 29.5969 9.1614 29.1649 8.80364 28.9894L4.82743 27.0437C4.47061 26.8691 4.0382 27.0165 3.86261 27.3743C3.68749 27.732 3.83585 28.164 4.19361 28.3396Z" fill="#006C39"/>
</svg>
