<svg width="40" height="40" viewBox="0 0 40 40" fill="none" xmlns="http://www.w3.org/2000/svg">
<rect width="40" height="40" rx="20" transform="matrix(1 0 0 -1 0 40)" fill="#006C39"/>
<path d="M29.5598 25.3158C29.2778 25.5976 28.8954 25.756 28.4967 25.756C28.098 25.756 27.7157 25.5976 27.4337 25.3158L23.7123 21.5944L19.9909 17.873L12.5482 25.3158C12.2646 25.5897 11.8848 25.7412 11.4905 25.7378C11.0963 25.7344 10.7192 25.5762 10.4404 25.2975C10.1616 25.0187 10.0035 24.6416 10.0001 24.2473C9.99663 23.8531 10.1482 23.4733 10.4221 23.1897L18.9279 14.6839C19.2098 14.402 19.5922 14.2437 19.9909 14.2437C20.3896 14.2437 20.772 14.402 21.054 14.6839L29.5598 23.1897C29.8416 23.4717 30 23.854 30 24.2527C30 24.6514 29.8416 25.0338 29.5598 25.3158Z" fill="white"/>
</svg>
