<svg width="15" height="26" viewBox="0 0 15 26" fill="none" xmlns="http://www.w3.org/2000/svg">
<path d="M0.924347 24.9325C0.572839 24.5809 0.375372 24.104 0.375372 23.6068C0.375372 23.1097 0.572839 22.6328 0.924347 22.2812L10.2056 13L0.924347 3.71872C0.582801 3.36509 0.393811 2.89146 0.398084 2.39984C0.402355 1.90822 0.599546 1.43795 0.947186 1.09031C1.29483 0.742668 1.7651 0.545479 2.25672 0.541206C2.74834 0.536936 3.22197 0.725925 3.5756 1.06747L14.1825 11.6743C14.534 12.026 14.7314 12.5028 14.7314 13C14.7314 13.4972 14.534 13.974 14.1825 14.3256L3.5756 24.9325C3.22398 25.284 2.74715 25.4814 2.24997 25.4814C1.75279 25.4814 1.27596 25.284 0.924347 24.9325Z" fill="#006C39"/>
</svg>
