<svg width="40" height="40" viewBox="0 0 40 40" fill="none" xmlns="http://www.w3.org/2000/svg">
<rect width="40" height="40" rx="20" fill="#006C39"/>
<path d="M29.5598 14.6842C29.2778 14.4024 28.8954 14.244 28.4967 14.244C28.098 14.244 27.7157 14.4024 27.4337 14.6842L23.7123 18.4056L19.9909 22.127L12.5482 14.6842C12.2646 14.4103 11.8848 14.2588 11.4905 14.2622C11.0963 14.2656 10.7192 14.4238 10.4404 14.7025C10.1616 14.9813 10.0035 15.3584 10.0001 15.7527C9.99663 16.1469 10.1482 16.5267 10.4221 16.8103L18.9279 25.3161C19.2098 25.598 19.5922 25.7563 19.9909 25.7563C20.3896 25.7563 20.772 25.598 21.054 25.3161L29.5598 16.8103C29.8416 16.5283 30 16.146 30 15.7473C30 15.3486 29.8416 14.9662 29.5598 14.6842Z" fill="white"/>
</svg>
