<svg width="50" height="50" viewBox="0 0 50 50" fill="none" xmlns="http://www.w3.org/2000/svg">
<rect width="50" height="50" rx="25" fill="#006C39"/>
<g clip-path="url(#clip0_195_19995)">
<path d="M39.9707 18.8201C39.9004 17.2261 39.6426 16.1302 39.2734 15.1806C38.8924 14.1726 38.3064 13.2702 37.5386 12.52C36.7884 11.7582 35.88 11.1662 34.8837 10.7912C33.9286 10.4219 32.8385 10.1641 31.2445 10.0939C29.6385 10.0176 29.1287 10 25.0557 10C20.9826 10 20.4728 10.0176 18.8728 10.0879C17.2788 10.1582 16.1829 10.4162 15.2336 10.7852C14.2254 11.1662 13.323 11.7522 12.5728 12.52C11.8109 13.2702 11.2191 14.1786 10.8439 15.1749C10.4746 16.1302 10.2169 17.2201 10.1466 18.8141C10.0704 20.42 10.0527 20.9299 10.0527 25.0029C10.0527 29.076 10.0704 29.5858 10.1406 31.1858C10.2109 32.7798 10.4689 33.8757 10.8382 34.8253C11.2191 35.8332 11.8109 36.7356 12.5728 37.4858C13.323 38.2477 14.2313 38.8397 15.2276 39.2147C16.1829 39.584 17.2728 39.8417 18.8671 39.912C20.4668 39.9825 20.9769 39.9999 25.0499 39.9999C29.123 39.9999 29.6328 39.9825 31.2328 39.912C32.8268 39.8417 33.9227 39.584 34.872 39.2147C36.8882 38.4352 38.4822 36.8412 39.2617 34.8253C39.6307 33.8699 39.8887 32.7798 39.959 31.1858C40.0293 29.5858 40.0469 29.076 40.0469 25.0029C40.0469 20.9299 40.041 20.42 39.9707 18.8201ZM37.2691 31.0686C37.2046 32.5337 36.9585 33.3249 36.7534 33.8523C36.2493 35.1593 35.212 36.1965 33.9051 36.7006C33.3776 36.9057 32.5807 37.1518 31.1213 37.2162C29.539 37.2867 29.0644 37.3041 25.0616 37.3041C21.0588 37.3041 20.5783 37.2867 19.0017 37.2162C17.5366 37.1518 16.7454 36.9057 16.218 36.7006C15.5676 36.4602 14.9756 36.0793 14.4951 35.5812C13.9969 35.0947 13.616 34.5086 13.3756 33.8583C13.1705 33.3308 12.9244 32.5337 12.8601 31.0745C12.7896 29.4922 12.7722 29.0174 12.7722 25.0146C12.7722 21.0118 12.7896 20.5313 12.8601 18.9549C12.9244 17.4898 13.1705 16.6986 13.3756 16.1712C13.616 15.5206 13.9969 14.9288 14.501 14.448C14.9872 13.9499 15.5733 13.569 16.2239 13.3288C16.7514 13.1237 17.5485 12.8776 19.0077 12.813C20.59 12.7428 21.0648 12.7251 25.0673 12.7251C29.0761 12.7251 29.5506 12.7428 31.1273 12.813C32.5924 12.8776 33.3836 13.1237 33.911 13.3288C34.5614 13.569 35.1534 13.9499 35.6339 14.448C36.132 14.9345 36.513 15.5206 36.7534 16.1712C36.9585 16.6986 37.2046 17.4955 37.2691 18.9549C37.3394 20.5373 37.357 21.0118 37.357 25.0146C37.357 29.0174 37.3394 29.4862 37.2691 31.0686Z" fill="white"/>
<path d="M25.0552 17.2964C20.8006 17.2964 17.3486 20.7481 17.3486 25.003C17.3486 29.2578 20.8006 32.7096 25.0552 32.7096C29.31 32.7096 32.7618 29.2578 32.7618 25.003C32.7618 20.7481 29.31 17.2964 25.0552 17.2964ZM25.0552 30.002C22.295 30.002 20.0561 27.7634 20.0561 25.003C20.0561 22.2426 22.295 20.0039 25.0552 20.0039C27.8156 20.0039 30.0543 22.2426 30.0543 25.003C30.0543 27.7634 27.8156 30.002 25.0552 30.002Z" fill="white"/>
<path d="M34.8661 16.9915C34.8661 17.9851 34.0605 18.7907 33.0667 18.7907C32.0732 18.7907 31.2676 17.9851 31.2676 16.9915C31.2676 15.9977 32.0732 15.1924 33.0667 15.1924C34.0605 15.1924 34.8661 15.9977 34.8661 16.9915Z" fill="white"/>
</g>
<defs>
<clipPath id="clip0_195_19995">
<rect width="30" height="30" fill="white" transform="translate(10 10)"/>
</clipPath>
</defs>
</svg>
