<svg width="35" height="35" viewBox="0 0 35 35" fill="none" xmlns="http://www.w3.org/2000/svg">
<rect x="0.75" y="0.75" width="33.5" height="33.5" rx="16.75" fill="white"/>
<rect x="0.75" y="0.75" width="33.5" height="33.5" rx="16.75" stroke="white" stroke-width="1.5"/>
<g clip-path="url(#clip0_184_17074)">
<path d="M25.9825 13.792C25.9403 12.8356 25.7857 12.1781 25.5641 11.6084C25.3356 11.0036 24.9839 10.4621 24.5232 10.012C24.0731 9.55489 23.5281 9.19969 22.9303 8.9747C22.3573 8.75315 21.7032 8.59848 20.7468 8.55632C19.7832 8.51058 19.4773 8.5 17.0335 8.5C14.5897 8.5 14.2838 8.51058 13.3238 8.55274C12.3674 8.59491 11.7099 8.74971 11.1402 8.97113C10.5353 9.19969 9.99387 9.55132 9.54375 10.012C9.08663 10.4621 8.73157 11.0072 8.50644 11.6049C8.28489 12.1781 8.13022 12.8321 8.08805 13.7885C8.04231 14.752 8.03174 15.0579 8.03174 17.5018C8.03174 19.9456 8.04231 20.2515 8.08448 21.2115C8.12665 22.1679 8.28145 22.8254 8.50301 23.3952C8.73157 23.9999 9.08663 24.5414 9.54375 24.9915C9.99387 25.4486 10.5389 25.8038 11.1367 26.0288C11.7099 26.2504 12.3638 26.405 13.3204 26.4472C14.2802 26.4895 14.5862 26.4999 17.0301 26.4999C19.4739 26.4999 19.7798 26.4895 20.7398 26.4472C21.6962 26.405 22.3537 26.2504 22.9233 26.0288C24.133 25.5611 25.0894 24.6047 25.5571 23.3952C25.7785 22.822 25.9333 22.1679 25.9755 21.2115C26.0177 20.2515 26.0282 19.9456 26.0282 17.5018C26.0282 15.0579 26.0247 14.752 25.9825 13.792ZM24.3616 21.1411C24.3228 22.0202 24.1752 22.4949 24.0521 22.8114C23.7497 23.5956 23.1273 24.2179 22.3431 24.5204C22.0267 24.6434 21.5485 24.7911 20.6729 24.8297C19.7235 24.872 19.4387 24.8824 17.0371 24.8824C14.6354 24.8824 14.3471 24.872 13.4011 24.8297C12.522 24.7911 12.0473 24.6434 11.7309 24.5204C11.3406 24.3761 10.9854 24.1476 10.6971 23.8487C10.3982 23.5568 10.1697 23.2052 10.0255 22.815C9.90239 22.4985 9.75473 22.0202 9.71613 21.1447C9.67383 20.1953 9.66339 19.9104 9.66339 17.5088C9.66339 15.1071 9.67383 14.8188 9.71613 13.873C9.75473 12.9939 9.90239 12.5192 10.0255 12.2027C10.1697 11.8123 10.3982 11.4573 10.7007 11.1688C10.9924 10.8699 11.3441 10.6414 11.7344 10.4973C12.0509 10.3742 12.5292 10.2266 13.4047 10.1878C14.3541 10.1457 14.639 10.1351 17.0405 10.1351C19.4457 10.1351 19.7305 10.1457 20.6765 10.1878C21.5555 10.2266 22.0302 10.3742 22.3467 10.4973C22.7369 10.6414 23.0921 10.8699 23.3804 11.1688C23.6793 11.4607 23.9079 11.8123 24.0521 12.2027C24.1752 12.5192 24.3228 12.9973 24.3616 13.873C24.4037 14.8224 24.4143 15.1071 24.4143 17.5088C24.4143 19.9104 24.4037 20.1917 24.3616 21.1411Z" fill="#006C39"/>
<path d="M17.0334 12.8779C14.4806 12.8779 12.4094 14.949 12.4094 17.5019C12.4094 20.0548 14.4806 22.1258 17.0334 22.1258C19.5863 22.1258 21.6573 20.0548 21.6573 17.5019C21.6573 14.949 19.5863 12.8779 17.0334 12.8779ZM17.0334 20.5013C15.3773 20.5013 14.0339 19.1581 14.0339 17.5019C14.0339 15.8456 15.3773 14.5024 17.0334 14.5024C18.6896 14.5024 20.0328 15.8456 20.0328 17.5019C20.0328 19.1581 18.6896 20.5013 17.0334 20.5013Z" fill="#006C39"/>
<path d="M22.9198 12.6952C22.9198 13.2913 22.4365 13.7747 21.8402 13.7747C21.2441 13.7747 20.7607 13.2913 20.7607 12.6952C20.7607 12.0989 21.2441 11.6157 21.8402 11.6157C22.4365 11.6157 22.9198 12.0989 22.9198 12.6952Z" fill="#006C39"/>
</g>
<defs>
<clipPath id="clip0_184_17074">
<rect width="18" height="18" fill="white" transform="translate(8 8.5)"/>
</clipPath>
</defs>
</svg>
