<svg width="20" height="34" viewBox="0 0 20 34" fill="none" xmlns="http://www.w3.org/2000/svg">
<path d="M18.7676 32.9099C19.2363 32.4411 19.4996 31.8053 19.4996 31.1424C19.4996 30.4795 19.2363 29.8437 18.7676 29.3749L6.39262 16.9999L18.7676 4.62488C19.223 4.15337 19.475 3.52187 19.4693 2.86637C19.4636 2.21088 19.2007 1.58385 18.7372 1.12033C18.2736 0.656811 17.6466 0.39389 16.9911 0.388195C16.3356 0.3825 15.7041 0.634483 15.2326 1.08988L1.09012 15.2324C0.621443 15.7012 0.358154 16.337 0.358154 16.9999C0.358154 17.6628 0.621443 18.2986 1.09012 18.7674L15.2326 32.9099C15.7014 33.3786 16.3372 33.6418 17.0001 33.6418C17.663 33.6418 18.2988 33.3786 18.7676 32.9099Z" fill="#BFBFBF"/>
</svg>
