<svg width="35" height="34" viewBox="0 0 35 34" fill="none" xmlns="http://www.w3.org/2000/svg">
<path d="M5.52137 5.02138L1.95988 5.73326C1.76863 5.77151 1.61137 5.91176 1.55612 6.10088C1.52822 6.19275 1.52574 6.29047 1.54893 6.38364C1.57213 6.47681 1.62015 6.56195 1.68788 6.63001L4.6055 9.54976C4.9551 9.8974 5.42785 10.0929 5.92087 10.0938H8.34125L14.4188 16.1734C14.3028 16.6112 14.2815 17.0687 14.3562 17.5153C14.4309 17.962 14.6 18.3877 14.8521 18.7639C15.1042 19.1401 15.4336 19.4583 15.8183 19.6972C16.2031 19.9362 16.6343 20.0904 17.0833 20.1496C17.5323 20.2088 17.9888 20.1716 18.4223 20.0406C18.8558 19.9096 19.2564 19.6876 19.5975 19.3896C19.9385 19.0916 20.2121 18.7244 20.4 18.3123C20.588 17.9003 20.686 17.4529 20.6875 17C20.6876 16.5109 20.5751 16.0283 20.3588 15.5896C20.1425 15.1509 19.8281 14.7679 19.44 14.4702C19.0519 14.1725 18.6005 13.9681 18.1208 13.8729C17.641 13.7776 17.1458 13.794 16.6734 13.9209L10.5938 7.83913V5.42301C10.5938 4.93001 10.3983 4.45613 10.0498 4.10763L7.13 1.18788C7.06194 1.12016 6.9768 1.07214 6.88363 1.04894C6.79046 1.02574 6.69275 1.02823 6.60088 1.05613C6.41175 1.11138 6.2715 1.26863 6.23325 1.45988L5.52137 5.02138Z" fill="white"/>
<path d="M30.25 16.9999C30.2478 18.8231 29.8547 20.6246 29.0971 22.2829C28.3395 23.9412 27.235 25.4177 25.8582 26.6129C24.4815 27.8081 22.8644 28.6941 21.1161 29.2112C19.3678 29.7282 17.5289 29.8643 15.7235 29.6103C13.9181 29.3563 12.1882 28.718 10.6505 27.7386C9.11274 26.7591 7.80294 25.4613 6.80943 23.9326C5.81592 22.4039 5.16182 20.6799 4.89124 18.8769C4.62065 17.074 4.73989 15.2339 5.2409 13.4809C5.31124 13.2761 5.33917 13.0592 5.32298 12.8432C5.30679 12.6273 5.24682 12.4169 5.14673 12.2249C5.04663 12.0329 4.90851 11.8632 4.74076 11.7263C4.57301 11.5893 4.37915 11.488 4.17097 11.4284C3.9628 11.3687 3.74467 11.3521 3.52986 11.3795C3.31505 11.4068 3.10806 11.4776 2.92149 11.5876C2.73492 11.6975 2.57267 11.8442 2.44462 12.0188C2.31657 12.1935 2.22539 12.3923 2.17665 12.6033C1.20654 15.9981 1.39081 19.6188 2.70057 22.8975C4.01032 26.1762 6.37145 28.9274 9.41352 30.7194C12.4556 32.5114 16.0065 33.2428 19.5091 32.7989C23.0117 32.355 26.2679 30.7609 28.7668 28.2667C31.2629 25.7684 32.8587 22.512 33.3036 19.0085C33.7486 15.5051 33.0174 11.9531 31.2249 8.91022C29.4325 5.86734 26.6802 3.5059 23.4003 2.19664C20.1204 0.887381 16.4985 0.704449 13.1034 1.67657C12.6991 1.79474 12.3581 2.06814 12.1548 2.437C11.9515 2.80587 11.9025 3.24021 12.0184 3.64512C12.1344 4.05002 12.4059 4.39255 12.7737 4.59787C13.1414 4.80318 13.5755 4.85457 13.981 4.74082C15.8796 4.19564 17.8788 4.09904 19.8211 4.45862C21.7633 4.8182 23.5955 5.62413 25.173 6.81284C26.7505 8.00155 28.0303 9.54054 28.9114 11.3084C29.7924 13.0763 30.2507 15.0247 30.25 16.9999Z" fill="white"/>
<path d="M23.875 16.9999C23.8748 18.1614 23.5576 19.3009 22.9575 20.2953C22.3573 21.2898 21.4971 22.1015 20.4695 22.643C19.4419 23.1844 18.286 23.435 17.1265 23.3678C15.9669 23.3006 14.8477 22.918 13.8896 22.2614C12.9316 21.6032 12.1719 20.6956 11.6925 19.6368C11.2131 18.578 11.0323 17.4082 11.1696 16.2541C11.2067 15.974 11.1686 15.6891 11.059 15.4287C10.9494 15.1683 10.7724 14.9417 10.5462 14.7725C10.32 14.6032 10.0528 14.4973 9.77204 14.4656C9.4913 14.4339 9.20719 14.4777 8.94896 14.5923C8.69079 14.7055 8.46725 14.885 8.30113 15.1128C8.13501 15.3405 8.03225 15.6082 8.00334 15.8886C7.77244 17.8608 8.16123 19.856 9.11574 21.5972C10.0703 23.3384 11.5431 24.7393 13.33 25.6054C15.1168 26.4715 17.129 26.7599 19.0871 26.4305C21.0453 26.1012 22.8524 25.1704 24.2575 23.7673C25.6627 22.3643 26.5962 20.5587 26.9286 18.601C27.2609 16.6433 26.9756 14.6307 26.1122 12.8426C25.2488 11.0544 23.8501 9.57942 22.1104 8.62226C20.3706 7.66511 18.376 7.27329 16.4035 7.50119C16.1922 7.52079 15.9871 7.58235 15.8 7.68227C15.6128 7.78219 15.4476 7.91846 15.3138 8.08309C15.18 8.24772 15.0805 8.43739 15.021 8.64099C14.9614 8.8446 14.9432 9.05803 14.9672 9.26879C14.9913 9.47954 15.0571 9.68338 15.161 9.86834C15.2648 10.0533 15.4046 10.2157 15.572 10.3459C15.7394 10.4762 15.9311 10.5717 16.1359 10.627C16.3407 10.6822 16.5545 10.6959 16.7647 10.6674C17.6579 10.5637 18.563 10.6502 19.4205 10.9211C20.2779 11.192 21.0684 11.6412 21.7399 12.2392C22.4114 12.8373 22.9488 13.5707 23.3168 14.3912C23.6847 15.2117 23.875 16.1007 23.875 16.9999Z" fill="white"/>
</svg>
