<svg width="50" height="50" viewBox="0 0 50 50" fill="none" xmlns="http://www.w3.org/2000/svg">
<rect width="50" height="50" rx="25" fill="#006C39"/>
<g clip-path="url(#clip0_195_20011)">
<path d="M34.0407 29.9001C32.5305 28.6084 30.9978 27.826 29.5061 29.1158L28.6153 29.8953C27.9636 30.4611 26.7519 33.105 22.067 27.7158C17.3831 22.3333 20.1705 21.4953 20.8231 20.9343L21.7188 20.1538C23.2027 18.8611 22.6427 17.2338 21.5724 15.5587L20.9266 14.544C19.8514 12.8728 18.6807 11.7753 17.1929 13.066L16.389 13.7684C15.7314 14.2475 13.8934 15.8045 13.4475 18.7626C12.9109 22.3118 14.6036 26.3762 18.4817 30.8358C22.3548 35.2972 26.147 37.5382 29.7392 37.4992C32.7246 37.467 34.5275 35.865 35.0914 35.2826L35.8983 34.5792C37.3822 33.2894 36.4602 31.9762 34.949 30.6816L34.0407 29.9001Z" fill="white"/>
</g>
<defs>
<clipPath id="clip0_195_20011">
<rect width="25" height="25" fill="white" transform="translate(12.5 12.5)"/>
</clipPath>
</defs>
</svg>
