<svg width="31" height="22" viewBox="0 0 31 22" fill="none" xmlns="http://www.w3.org/2000/svg">
<path fill-rule="evenodd" clip-rule="evenodd" d="M9.92362 20.4304L9.928 20.441H14.8305L14.8486 20.4104C14.928 20.2732 15.2405 19.7185 15.1499 19.6288C15.1496 19.6285 15.1489 19.6279 15.1483 19.6273C14.828 19.3051 14.6477 18.8688 14.6477 18.4135V16.3535C14.6477 16.0948 14.4377 15.8848 14.1789 15.8848C13.9202 15.8848 13.7102 16.0948 13.7102 16.3535V18.4135C13.7102 18.7932 13.7911 19.1641 13.9439 19.5035H10.8149C10.9674 19.1641 11.0486 18.7932 11.0486 18.4135C11.0486 18.2354 11.0486 18.0523 11.0486 17.8666C11.0486 17.6079 10.8386 17.3979 10.5799 17.3979C10.3211 17.3979 10.1111 17.6079 10.1111 17.8666V18.4135C10.1111 18.8701 9.92987 19.3076 9.60737 19.6304L9.59893 19.6385L9.59925 19.6391C9.47143 19.7729 9.43425 19.9701 9.5055 20.1416C9.57612 20.3123 9.74018 20.4251 9.92362 20.4304Z" fill="black"/>
<path fill-rule="evenodd" clip-rule="evenodd" d="M24.1028 8.96291V2.69385C24.1028 2.23791 23.9216 1.80072 23.5994 1.47854C23.2769 1.15604 22.8397 0.975098 22.3841 0.975098C18.4444 0.975098 6.31469 0.975098 2.375 0.975098C1.91906 0.975098 1.48187 1.15604 1.15969 1.47854C0.837188 1.80072 0.65625 2.23791 0.65625 2.69385V15.1035C0.65625 15.5595 0.837188 15.9967 1.15969 16.3188C1.48187 16.6413 1.91906 16.8223 2.375 16.8223H15.8816C16.1403 16.8223 16.3503 16.6123 16.3503 16.3535C16.3503 16.0948 16.1403 15.8848 15.8816 15.8848H2.375C2.16781 15.8848 1.96906 15.8026 1.8225 15.656C1.67594 15.5095 1.59375 15.3107 1.59375 15.1035V2.69385C1.59375 2.48666 1.67594 2.28791 1.8225 2.14135C1.96906 1.99479 2.16781 1.9126 2.375 1.9126H22.3841C22.5912 1.9126 22.79 1.99479 22.9366 2.14135C23.0828 2.28791 23.1653 2.48666 23.1653 2.69385V8.96291C23.1653 9.22166 23.3753 9.43166 23.6341 9.43166C23.8928 9.43166 24.1028 9.22166 24.1028 8.96291Z" fill="black"/>
<path fill-rule="evenodd" clip-rule="evenodd" d="M23.9919 20.8581C25.7475 18.7803 27.4894 17.8815 29.245 17.8418C29.5385 17.8412 29.8131 17.7275 30.016 17.5256C30.2213 17.3215 30.3366 17.0443 30.3366 16.755C30.3435 15.045 30.3435 10.3675 30.3435 8.70278C30.3438 8.10153 29.8581 7.61278 29.2566 7.60903C29.2519 7.60871 29.2475 7.60903 29.2428 7.60903C27.2581 7.65496 25.2603 8.6159 23.2756 10.965C23.1088 11.1628 23.1335 11.4587 23.3313 11.6256C23.5288 11.7925 23.8247 11.7678 23.9919 11.57C25.7497 9.48934 27.4947 8.5909 29.2525 8.54653C29.3394 8.54965 29.406 8.6184 29.406 8.70278C29.406 10.3668 29.406 15.0418 29.3991 16.7531V16.755C29.3991 16.7946 29.3831 16.8328 29.355 16.8609C29.3269 16.8887 29.2888 16.9043 29.2488 16.9043C29.2447 16.9043 29.241 16.9043 29.2369 16.9043C27.2541 16.945 25.2581 17.9065 23.2756 20.2531C23.1088 20.4509 23.1335 20.7468 23.3313 20.9137C23.5288 21.0806 23.8247 21.0559 23.9919 20.8581Z" fill="black"/>
<path fill-rule="evenodd" clip-rule="evenodd" d="M17.8616 10.7078L17.8613 8.70278C17.8613 8.61965 17.9263 8.55153 18.0082 8.54653C19.7341 8.58903 21.4432 9.45059 23.1648 11.4406C23.1651 11.4406 23.1651 19.3543 23.1651 19.3543C21.4551 17.6572 19.7379 16.9393 18.0307 16.9043C18.0266 16.9043 18.0226 16.9043 18.0185 16.9043C17.9788 16.9043 17.9407 16.8887 17.9126 16.8609C17.8845 16.8328 17.8685 16.7947 17.8685 16.755C17.8685 16.7543 17.8685 16.7537 17.8685 16.7531C17.8648 15.8681 17.8632 14.19 17.8623 12.5459C17.8623 12.2872 17.652 12.0772 17.3932 12.0772C17.1345 12.0775 16.9248 12.2875 16.9248 12.5462C16.9257 14.1918 16.9273 15.8712 16.931 16.7568C16.931 17.0443 17.0463 17.3215 17.2513 17.5256C17.456 17.729 17.7335 17.8431 18.0223 17.8418C19.7732 17.879 21.5176 18.7775 23.2757 20.8581C23.4026 21.0084 23.6101 21.0634 23.7948 20.9959C23.9795 20.9284 24.1026 20.7525 24.1026 20.5556V11.2675C24.1026 11.1568 24.0632 11.0497 23.992 10.965C22.0073 8.6159 20.0091 7.65496 18.0248 7.60903C18.0201 7.60903 18.0154 7.60871 18.0107 7.60903C17.4095 7.61278 16.9238 8.10153 16.9238 8.70278C16.9238 9.17465 16.9238 9.8884 16.9241 10.7081C16.9241 10.9668 17.1341 11.1768 17.3929 11.1765C17.6516 11.1765 17.8616 10.9665 17.8616 10.7078Z" fill="black"/>
<path fill-rule="evenodd" clip-rule="evenodd" d="M18.931 10.8959C19.8392 11.075 20.7457 11.5006 21.6538 12.2175C21.857 12.3778 22.152 12.3431 22.3123 12.14C22.4726 11.9368 22.4379 11.6418 22.2348 11.4815C21.1945 10.6606 20.1523 10.1809 19.112 9.9762C18.8582 9.9262 18.6117 10.0915 18.5617 10.3453C18.5117 10.5993 18.677 10.8459 18.931 10.8959Z" fill="black"/>
<path fill-rule="evenodd" clip-rule="evenodd" d="M28.2102 9.9762C27.1699 10.1809 26.1277 10.6606 25.0874 11.4815C24.8845 11.6418 24.8495 11.9368 25.0099 12.14C25.1702 12.3431 25.4652 12.3778 25.6683 12.2175C26.5767 11.5006 27.483 11.075 28.3914 10.8959C28.6452 10.8459 28.8105 10.5993 28.7605 10.3453C28.7105 10.0915 28.4639 9.9262 28.2102 9.9762Z" fill="black"/>
<path fill-rule="evenodd" clip-rule="evenodd" d="M18.931 13.0062C19.8392 13.1853 20.7457 13.6109 21.6538 14.3278C21.857 14.4881 22.152 14.4534 22.3123 14.2503C22.4726 14.0472 22.4379 13.7522 22.2348 13.5919C21.1945 12.7709 20.1523 12.2916 19.112 12.0866C18.8582 12.0366 18.6117 12.2019 18.5617 12.4559C18.5117 12.7097 18.677 12.9562 18.931 13.0062Z" fill="black"/>
<path fill-rule="evenodd" clip-rule="evenodd" d="M28.2102 12.0866C27.1699 12.2916 26.1277 12.7709 25.0874 13.5919C24.8845 13.7522 24.8495 14.0472 25.0099 14.2503C25.1702 14.4534 25.4652 14.4881 25.6683 14.3278C26.5767 13.6109 27.483 13.1853 28.3914 13.0062C28.6452 12.9562 28.8105 12.7097 28.7605 12.4559C28.7105 12.2019 28.4639 12.0366 28.2102 12.0866Z" fill="black"/>
<path fill-rule="evenodd" clip-rule="evenodd" d="M18.931 15.1161C19.8392 15.2952 20.7457 15.7211 21.6538 16.438C21.857 16.598 22.152 16.5633 22.3123 16.3602C22.4726 16.1574 22.4379 15.8624 22.2348 15.702C21.1945 14.8808 20.1523 14.4014 19.112 14.1964C18.8582 14.1464 18.6117 14.3117 18.5617 14.5658C18.5117 14.8195 18.677 15.0661 18.931 15.1161Z" fill="black"/>
<path fill-rule="evenodd" clip-rule="evenodd" d="M28.2102 14.1964C27.1699 14.4014 26.1277 14.8808 25.0874 15.702C24.8845 15.8624 24.8495 16.1574 25.0099 16.3602C25.1702 16.5633 25.4652 16.598 25.6683 16.438C26.5767 15.7211 27.483 15.2952 28.3914 15.1161C28.6452 15.0661 28.8105 14.8195 28.7605 14.5658C28.7105 14.3117 28.4639 14.1464 28.2102 14.1964Z" fill="black"/>
<path fill-rule="evenodd" clip-rule="evenodd" d="M10.1468 3.38428C8.67836 3.38428 5.02117 3.38428 3.55273 3.38428C2.94867 3.38428 2.45898 3.87396 2.45898 4.47803V10.083C2.45898 10.6871 2.94867 11.1768 3.55242 11.1768H6.32242C6.58117 11.1768 6.79117 10.9668 6.79117 10.708C6.79117 10.4496 6.58117 10.2393 6.32242 10.2393H3.55273C3.46617 10.2393 3.39648 10.1696 3.39648 10.083V4.47803C3.39648 4.39178 3.46617 4.32178 3.55242 4.32178H10.1468C10.4055 4.32178 10.6155 4.11178 10.6155 3.85303C10.6155 3.59428 10.4055 3.38428 10.1468 3.38428Z" fill="black"/>
<path fill-rule="evenodd" clip-rule="evenodd" d="M13.9705 11.0249C13.9705 9.80365 12.9808 8.81396 11.7598 8.81396C11.1286 8.81396 10.4161 8.81396 9.78484 8.81396C8.56391 8.81396 7.57422 9.80365 7.57422 11.0249V12.9921C7.57422 13.2824 7.68922 13.5605 7.89453 13.7655C8.09953 13.9708 8.37766 14.0858 8.66797 14.0858H12.8767C13.167 14.0858 13.4452 13.9708 13.6502 13.7655C13.8555 13.5605 13.9705 13.2824 13.9705 12.9921C13.9705 12.5099 13.9705 11.7962 13.9705 11.0249ZM13.033 11.0249V12.9921C13.033 13.0337 13.0167 13.0733 12.9873 13.1027C12.958 13.1321 12.9183 13.1483 12.8767 13.1483H8.66797C8.62641 13.1483 8.58672 13.1321 8.55734 13.1027C8.52797 13.0733 8.51172 13.0337 8.51172 12.9921V11.0249C8.51172 10.3215 9.08172 9.75146 9.78484 9.75146H11.7598C12.463 9.75146 13.033 10.3215 13.033 11.0249Z" fill="black"/>
<path fill-rule="evenodd" clip-rule="evenodd" d="M10.8793 4.87744C9.88902 4.87744 9.08496 5.68119 9.08496 6.6715C9.08496 7.66182 9.88902 8.46588 10.8793 8.46588C11.8696 8.46588 12.6737 7.66182 12.6737 6.6715C12.6737 5.68119 11.8696 4.87744 10.8793 4.87744ZM10.8793 5.81494C11.3521 5.81494 11.7362 6.19869 11.7362 6.6715C11.7362 7.14463 11.3521 7.52838 10.8793 7.52838C10.4065 7.52838 10.0225 7.14463 10.0225 6.6715C10.0225 6.19869 10.4065 5.81494 10.8793 5.81494Z" fill="black"/>
</svg>
