<svg width="31" height="31" viewBox="0 0 31 31" fill="none" xmlns="http://www.w3.org/2000/svg">
<g clip-path="url(#clip0_2343_566)">
<path d="M29.227 12.5908C29.1238 12.5018 28.9832 12.4643 28.8473 12.4877C28.5145 12.544 28.177 12.6096 27.8301 12.6799V10.8143C27.8301 10.683 27.7738 10.5565 27.6754 10.4674C27.577 10.3783 27.4504 10.3361 27.3145 10.3455C25.1535 10.5565 23.0817 11.1283 21.1551 12.0518C19.8004 12.7033 18.5535 13.5096 17.4426 14.4658C16.3316 13.5096 15.0848 12.7033 13.7301 12.0518C12.8863 11.6486 12.0144 11.3111 11.1191 11.0486C11.2504 11.3158 11.3348 11.6112 11.3488 11.9252C11.6957 12.0846 12.0707 12.2815 12.4691 12.5158C12.7598 12.633 13.0457 12.7596 13.3269 12.8955C14.6582 13.5377 15.8863 14.3439 16.9738 15.2955V17.8268C17.0207 17.9674 17.0629 18.1127 17.1004 18.258C17.2457 18.8252 17.3395 19.3971 17.3723 19.9549C17.3863 20.1424 17.391 20.3393 17.391 20.5315C17.391 20.6299 17.391 20.7237 17.3863 20.8174L17.3957 20.8268C17.4238 20.8596 17.4567 20.8971 17.4894 20.9346C17.6582 21.1361 17.8035 21.3705 17.9113 21.619V15.2955C18.9988 14.3439 20.227 13.5377 21.5582 12.8955C23.2316 12.094 25.0223 11.569 26.8926 11.3393V13.2518V24.183C26.7145 24.2158 26.541 24.2486 26.3629 24.2908C26.2035 24.3237 26.0488 24.3565 25.8942 24.3893C25.5238 24.469 25.1582 24.5627 24.7926 24.6658C24.6191 24.7174 24.4457 24.7643 24.277 24.8158C24.1832 24.8393 24.0941 24.8674 24.0004 24.8955C23.7988 24.9611 23.5926 25.0268 23.3629 25.1065C23.3254 25.1205 23.2926 25.1299 23.2598 25.144C23.0863 25.2002 22.9223 25.2612 22.7582 25.3221C22.5707 25.3924 22.3832 25.4674 22.2004 25.5424C22.1957 25.5424 22.191 25.5424 22.1863 25.5471C22.0035 25.6221 21.8254 25.6971 21.6473 25.7768C21.6051 25.7955 21.5629 25.8143 21.5207 25.833C21.3801 25.894 21.2441 25.9596 21.1035 26.0252C21.0473 26.0486 20.9957 26.0768 20.9441 26.1002C20.6957 26.2174 20.4519 26.3393 20.2082 26.4658C20.0816 26.5314 19.9504 26.6018 19.8191 26.6768C19.7207 26.7283 19.6176 26.7846 19.5144 26.8455C19.341 26.9393 19.1723 27.0424 19.0035 27.1408C18.8348 27.2393 18.6613 27.3471 18.4879 27.4549L18.2254 27.633H18.2207L17.9113 27.0658V25.8049C17.7098 26.2736 17.3863 26.6768 16.9738 26.9721V27.0658L16.6645 27.633L16.3926 27.4549C16.341 27.4221 16.2894 27.3893 16.2332 27.3565H16.2285C15.9426 27.4596 15.6379 27.5111 15.3191 27.5111H14.6395H12.5863H8.79883C9.38477 27.6143 9.96601 27.7361 10.5379 27.8814C12.4223 28.3596 14.2317 29.0627 15.9144 29.9768C15.9191 29.9815 15.9285 29.9815 15.9332 29.9815C15.9613 29.9908 15.9895 30.0002 16.0176 30.0143C16.0551 30.0283 16.0973 30.033 16.1348 30.033C16.1441 30.033 16.1582 30.033 16.1676 30.0283H18.7082C18.7223 30.033 18.7363 30.033 18.7504 30.033C18.7879 30.033 18.8301 30.0283 18.8676 30.0143C18.9004 30.0096 18.9379 29.9955 18.9707 29.9768C20.6582 29.0627 22.4629 28.3596 24.3426 27.8814C25.8379 27.5018 27.3894 27.2674 28.9504 27.183C29.1988 27.169 29.3957 26.9627 29.3957 26.7143V12.9518C29.3957 12.8112 29.3348 12.6799 29.227 12.5908Z" fill="white"/>
<path d="M16.2705 24.6847V22.7441C16.2705 22.6832 16.2658 22.6223 16.2518 22.5613C16.2518 22.5566 16.2518 22.5566 16.2518 22.5519C16.2424 22.5051 16.2283 22.4629 16.2143 22.4207C16.1768 22.3176 16.1205 22.2191 16.0502 22.1394C16.0361 22.116 16.0174 22.1019 16.0033 22.0832L15.9893 22.0691C15.9611 22.0363 15.9283 22.0082 15.8908 21.9847C15.8486 21.9473 15.7971 21.9191 15.7455 21.891C15.6986 21.8676 15.6518 21.8488 15.6002 21.8301C15.5955 21.8301 15.5908 21.8254 15.5815 21.8254C15.5299 21.8113 15.4736 21.802 15.4174 21.7926C15.4127 21.7926 15.408 21.7926 15.408 21.7926C15.4033 21.7926 15.4033 21.7926 15.4033 21.7926C15.4502 21.5348 15.4783 21.2816 15.4971 21.0285C15.4971 21.0051 15.5018 20.9863 15.5018 20.9629C15.5111 20.8176 15.5158 20.6769 15.5158 20.5316C15.5158 20.3769 15.5111 20.2223 15.5018 20.0723C15.4736 19.6176 15.3986 19.1722 15.2861 18.741C14.3205 15.1176 10.6877 13.5988 9.48302 13.1863V12.0754C9.48302 11.8176 9.27207 11.6066 9.01427 11.6066C8.75177 11.6066 8.54552 11.8176 8.54552 12.0754V13.191C8.53613 13.191 8.53144 13.1957 8.52206 13.1957C8.46115 13.2191 8.39551 13.2426 8.32519 13.266C8.25489 13.2941 8.17988 13.3223 8.1002 13.3504C8.09551 13.3504 8.09551 13.3504 8.09551 13.3504V7.28006C8.18926 6.88633 8.2502 6.30508 8.07677 5.64882C7.66426 4.11133 6.26737 3.40821 5.60175 3.15037V2.37695C5.60175 2.11915 5.39081 1.9082 5.133 1.9082C4.8752 1.9082 4.66425 2.11915 4.66425 2.37695V3.15037C4.32677 3.27695 3.81112 3.5207 3.32833 3.92382C2.8455 4.32225 2.39552 4.88475 2.18927 5.65351C2.0205 6.2957 2.07674 6.86756 2.1705 7.26132V21.7926C1.66893 21.816 1.27051 22.2379 1.27051 22.7441V24.6847C1.27051 25.2097 1.69706 25.6363 2.22208 25.6363H15.3189C15.844 25.6363 16.2705 25.2097 16.2705 24.6847ZM3.108 7.69256H7.15801V13.7723C7.12988 13.7863 7.10645 13.7957 7.08302 13.8098C7.05956 13.8238 7.03613 13.8332 7.0127 13.8473C6.97519 13.866 6.93771 13.8895 6.9002 13.9082C6.89082 13.9129 6.88143 13.9176 6.87208 13.9223C6.76894 13.9738 6.66582 14.0301 6.56738 14.091C6.56269 14.091 6.56269 14.0957 6.55802 14.0957C6.41737 14.1754 6.28614 14.2551 6.15487 14.3394C5.99082 14.4426 5.83613 14.5504 5.68612 14.6629C5.24081 14.9816 4.84238 15.3285 4.48613 15.6941C4.38771 15.7973 4.28926 15.9051 4.1955 16.0129C4.15333 16.0645 4.11113 16.1113 4.07362 16.1629C3.99864 16.2519 3.92831 16.341 3.86271 16.4301C3.83925 16.4582 3.82051 16.4816 3.80177 16.5097C3.72206 16.6223 3.64238 16.7348 3.57206 16.8473C3.56739 16.8566 3.55801 16.866 3.55332 16.8754C3.48769 16.9832 3.42208 17.091 3.36114 17.1988C3.34237 17.2316 3.32364 17.2691 3.3049 17.3019C3.23457 17.4332 3.16894 17.5691 3.108 17.7051V7.69256ZM2.20801 24.6847L2.22208 22.7254H15.3189C15.3236 22.7254 15.333 22.7348 15.333 22.7441L15.3189 24.6988L2.20801 24.6847Z" fill="white"/>
</g>
<defs>
<clipPath id="clip0_2343_566">
<rect width="30" height="30" fill="white" transform="translate(0.333008 0.970703)"/>
</clipPath>
</defs>
</svg>
