<svg width="40" height="40" viewBox="0 0 40 40" fill="none" xmlns="http://www.w3.org/2000/svg">
<path d="M13.2326 35.9099C12.7639 35.4411 12.5007 34.8053 12.5007 34.1424C12.5007 33.4795 12.7639 32.8437 13.2326 32.3749L25.6076 19.9999L13.2326 7.62488C12.7772 7.15337 12.5252 6.52187 12.5309 5.86637C12.5366 5.21088 12.7996 4.58385 13.2631 4.12033C13.7266 3.65681 14.3536 3.39389 15.0091 3.3882C15.6646 3.3825 16.2961 3.63448 16.7676 4.08988L30.9101 18.2324C31.3788 18.7012 31.6421 19.337 31.6421 19.9999C31.6421 20.6628 31.3788 21.2986 30.9101 21.7674L16.7676 35.9099C16.2988 36.3786 15.663 36.6418 15.0001 36.6418C14.3372 36.6418 13.7014 36.3786 13.2326 35.9099Z" fill="#BFBFBF"/>
</svg>
