<svg width="78" height="62" viewBox="0 0 78 62" fill="none" xmlns="http://www.w3.org/2000/svg">
<path d="M44.0342 50.9806L54.5342 44.4806" stroke="black" stroke-width="2"/>
<path d="M55.4925 35.3556C55.6351 34.6011 55.6864 33.7139 55.7327 32.9319C55.8103 31.5506 55.8841 30.2468 56.3646 29.9077C56.4472 29.8502 56.5348 29.8214 56.6311 29.8214C56.6899 29.8214 56.7525 29.8314 56.82 29.8527C56.8876 29.8714 57.0765 29.9277 57.278 30.3056L57.8898 33.0835L58.4529 30.3069C58.6568 29.9277 58.8445 29.8714 58.9071 29.8539C58.9796 29.8314 59.0447 29.8201 59.1035 29.8201C59.1974 29.8201 59.2837 29.8489 59.3638 29.9065C59.8467 30.2468 59.9218 31.5493 60.0006 32.9307C60.0432 33.6576 60.0957 34.5623 60.2296 35.3068L60.3347 35.8948L60.9316 35.8535C68.544 35.3255 74.0456 33.256 75.6472 30.3181L75.8975 29.8614L75.5133 29.5086C74.4223 28.5051 73.2036 27.6593 72.0262 26.841C69.6714 25.2069 67.4504 23.6654 66.6722 21.1279L66.243 19.729L65.4698 20.9715C63.5604 24.0382 60.7977 25.7987 57.8898 25.7987C54.9645 25.7987 52.1918 24.0232 50.2811 20.9264L49.5004 19.6627L49.0762 21.0866C48.3117 23.6453 46.0758 25.1969 43.7084 26.8397C42.5285 27.6593 41.3073 28.5063 40.21 29.5161L39.8372 29.8589L40.0674 30.3094C41.6139 33.3361 47.2594 35.4769 54.8006 35.8973L55.3849 35.9299L55.4925 35.3556Z" fill="#999999"/>
<path d="M72.1388 51.2348C72.2765 51.2348 72.4129 51.2297 72.548 51.2197C73.8593 51.1209 74.8953 50.5441 75.6298 49.5043C78.7028 45.1525 77.6167 37.3774 75.0329 32.2712L74.6676 31.5467L74.0282 32.046C71.5433 33.9891 66.8674 35.3504 61.2019 35.7821L60.3085 35.8497L60.6301 36.6855C61.0655 37.8191 61.7236 39.0153 62.308 39.7347L62.7421 40.269L63.1538 39.9112L60.6989 45.2389L61.0642 45.5667C61.1268 45.623 67.423 51.2348 72.1388 51.2348Z" fill="#E6E6E6"/>
<path d="M73.1455 61.0194L72.6938 51.2224L72.0619 51.2186C67.525 51.1823 61.7411 45.72 61.0342 44.9806L62.2272 43.9806L60.2654 44.457C59.8725 44.3631 59.5447 44.1905 59.2632 43.9315C59.1643 43.8401 59.0817 43.7375 59.0004 43.6349L58.5342 39.9806C58.5342 39.9806 58.006 35.5194 57.813 36.0194C57.62 36.5194 57.813 61.0194 57.813 61.0194H73.1455Z" fill="#E6E6E6"/>
<path d="M62.9973 40.3753L62.6607 40.0475C61.7961 39.2054 60.8052 37.2323 60.421 35.9172C60.1783 35.0914 60.1145 33.9991 60.0532 32.9418C59.9281 30.7684 59.8355 30.3105 59.6178 30.0302L59.2511 29.556L58.7406 29.8713C57.9924 30.333 57.6483 31.8883 57.9711 38.7738C58.0024 39.4244 58.03 40.0225 58.0462 40.5292C58.0888 42.0195 58.5304 43.2594 59.2574 43.9301C59.5915 44.2429 60.0269 44.4293 60.5862 44.4981L61.0692 44.5569L62.9973 40.3753Z" fill="#FFCEBF"/>
<path d="M57.8912 60.9806L58.0342 47.9806L57.8912 36.2042L56.7038 43.5961C56.6225 43.6987 56.5387 43.8026 56.4411 43.8927C56.1595 44.1542 55.8317 44.3256 55.4401 44.4194L54.5342 44.4806L54.9484 45.229C54.3415 45.8658 48.7598 50.653 44.2979 51.1373L43.7299 51.1986L43.2794 60.9806H57.8912Z" fill="#E6E6E6"/>
<path d="M55.1448 44.4981C55.7103 44.4293 56.1333 44.2491 56.4761 43.9301C57.2005 43.2594 57.6435 42.0195 57.6873 40.528C57.7023 40.0225 57.7311 39.4244 57.7611 38.7738C58.0802 31.9071 57.7811 30.3505 57.1192 29.8663L56.6625 29.5322L56.2584 29.9301C55.9205 30.2629 55.7967 30.9073 55.6791 32.9281C55.619 33.9878 55.5577 35.0814 55.3125 35.916C54.9271 37.2335 53.9349 39.208 53.0728 40.0475L52.7362 40.3753L54.6631 44.5557L55.1448 44.4981Z" fill="#FFCEBF"/>
<path d="M57.8899 22.9806C61.5648 22.9806 64.554 18.7568 64.554 13.8507C64.554 13.0011 64.4438 12.1541 64.2161 11.2607L64.1586 11.0342L63.9709 10.8928C62.3468 9.67539 60.1872 9.00473 57.8899 9.00473C55.5927 9.00473 53.3721 9.48772 51.748 10.7052L51.8102 10.4806C51.5825 11.3752 50.841 13.1104 51.0341 13.9806C50.341 19.1104 54.2163 22.9806 57.8899 22.9806Z" fill="#FFCEBF"/>
<path d="M27.6227 17.588C28.8527 17.3965 29.7786 16.3405 29.7786 15.1318C29.7786 14.0695 29.0991 13.1236 28.0869 12.7745L27.0934 12.4342L27.2085 13.4777C27.2398 13.763 27.2561 14.047 27.2561 14.3323C27.2561 15.1468 27.131 15.9526 26.8845 16.7284L26.5604 17.7531L27.6227 17.588Z" fill="#FFCEBF"/>
<path d="M11.7097 16.7296C11.4644 15.9526 11.3393 15.1456 11.3393 14.3323C11.3393 14.0458 11.3568 13.7592 11.3868 13.4752L11.4957 12.4342L10.5072 12.7758C9.49499 13.1236 8.81682 14.0708 8.81682 15.1318C8.81432 16.3392 9.74148 17.3965 10.9714 17.588L12.0325 17.7531L11.7097 16.7296Z" fill="#FFCEBF"/>
<path d="M57.7666 25.9907C63.3056 25.9907 67.8123 19.9809 67.8123 12.5944C67.8123 5.83474 64.0573 1.80063 57.7666 1.80063C51.4771 1.80063 47.7222 5.83474 47.7222 12.5944C47.7222 19.9809 52.2276 25.9907 57.7666 25.9907ZM57.7666 6.63451C61.6042 6.63451 64.3894 9.86643 64.3894 14.3181C64.3894 19.0631 61.4175 22.9244 57.7666 22.9244C54.1157 22.9244 51.1451 19.0631 51.1451 14.3181C51.1451 9.86643 53.9302 6.63451 57.7666 6.63451Z" fill="#999999"/>
<path d="M43.5885 51.2337C48.3018 51.2337 54.6055 45.6244 54.6693 45.5669L55.0347 45.2391L52.5385 39.8263L53.034 40.2679L53.4268 39.7337C53.9987 39.0267 54.6493 37.8493 55.0835 36.7332L55.415 35.8824L54.5041 35.8273C48.7035 35.472 44.1478 34.1607 41.6753 32.1375L41.031 31.6095L40.6581 32.3552C38.1143 37.4464 37.0558 45.1878 40.1025 49.5045C40.837 50.5443 41.873 51.1211 43.1818 51.2199C43.3169 51.2299 43.4521 51.2337 43.5885 51.2337ZM52.4334 39.8951C52.4596 39.8651 52.4859 39.8338 52.5122 39.8012L52.4334 39.8951Z" fill="#E6E6E6"/>
<path d="M63.409 9.19218C62.2166 7.10013 60.2059 5.90146 57.8899 5.90146C55.5951 5.90146 53.5944 7.08637 52.3995 9.15339L51.3072 11.0415L53.2678 10.0856C54.6492 9.41115 56.247 9.05455 57.8899 9.05455C59.5215 9.05455 61.1268 9.42366 62.5344 10.1193L64.4863 11.0865L63.409 9.19218Z" fill="white"/>
<path d="M19.2346 28.3937C21.3904 28.3937 23.8241 27.2376 23.9992 25.3708L24.0305 25.0404L23.7865 24.8165C23.6501 24.6926 23.5138 24.5675 23.3849 24.4286L22.5503 23.5277L22.25 24.7189C21.951 25.9 20.5208 26.4293 19.2346 26.4293C18.3887 26.4293 17.6843 26.2541 17.1988 25.9251C16.7571 25.6248 16.4619 25.2094 16.343 24.7264L16.049 23.5164L15.2056 24.4336C15.078 24.5725 14.9416 24.6964 14.8065 24.819L14.5675 25.0354L14.59 25.3583C14.7352 27.4528 17.394 28.3937 19.2346 28.3937Z" fill="#999999"/>
<path d="M19.322 60.9806V37.3499L18.1334 44.8048C18.047 44.9124 17.9582 45.0188 17.8543 45.1151C17.5365 45.4079 17.1624 45.5993 16.7132 45.6969L16.0601 45.8371L16.2027 46.4889C14.6499 48.0079 10.5559 51.6653 6.91362 52.2658L6.38686 52.3522L5.90639 60.9806H19.322Z" fill="#E6E6E6"/>
<path d="M33.0094 52.3958C34.2506 52.3019 35.2729 51.7326 36.0536 50.7041C40.0338 45.464 37.6377 34.756 32.8768 30.2791C31.1063 28.615 29.3045 27.8055 27.5603 27.0234C26.5356 26.563 25.6222 26.1401 24.8051 25.6046L24.1182 25.1554L23.8192 25.9199C23.3762 27.0547 21.8685 27.8605 19.8828 28.0244L19.2722 28.0757V34.9806L20.2557 31.399C20.3107 31.3689 20.3558 31.3502 20.3971 31.3389C20.4696 31.3189 20.5397 31.3089 20.6035 31.3089C20.7174 31.3089 20.8175 31.3402 20.9088 31.4065C21.3993 31.7581 21.4781 33.0268 21.5619 34.3719C21.627 35.4204 21.6933 36.5052 21.9523 37.3273C22.3565 38.6085 23.2599 40.2426 24.0556 41.1285L24.5248 41.6528L24.8789 41.2987L22.3052 46.4913L22.6643 46.8303C24.4435 48.507 28.9805 52.407 32.6678 52.407C32.7829 52.407 32.8968 52.4033 33.0094 52.3958ZM25.1017 41.2474L25.0128 41.1648L25.0228 41.156C25.0479 41.1861 25.0741 41.2161 25.1017 41.2474Z" fill="#E6E6E6"/>
<path d="M33.0342 52.4806C28.0342 49.9802 24.5342 48.4806 22.5342 46.4806" stroke="#999999" stroke-width="0.1"/>
<path d="M35.5342 46.9806C30.5342 44.4802 27.0342 43.4806 25.0342 41.4806" stroke="#999999" stroke-width="0.1"/>
<path d="M27.9131 5.38988L19.2971 0.98056L10.6825 5.38988L11.3644 11.7524L12.3503 10.7576C13.5765 9.52142 16.1503 8.7782 19.2333 8.76944C22.2738 8.79196 24.9627 9.58273 26.244 10.8315L27.2262 11.7886L27.9131 5.38988Z" fill="#999999"/>
<path d="M5.93892 52.4084C9.61877 52.4084 14.1532 48.507 15.9312 46.8291L16.2903 46.4913L13.6565 41.1786L14.1182 41.6403L14.5398 41.1286C15.3331 40.2452 16.2378 38.6098 16.6431 37.3286C16.9022 36.504 16.9685 35.4192 17.0335 34.3694C17.1211 32.9681 17.1962 31.7581 17.6867 31.4065C17.778 31.3402 17.8794 31.3077 17.9907 31.3077C18.0545 31.3077 18.1233 31.3177 18.1972 31.3377C18.2385 31.3502 18.2835 31.369 18.3361 31.3978L19.322 34.5195V28.0745L18.6964 28.0357C17.6491 27.9732 16.7307 27.7355 16.0401 27.3488C15.4107 26.9972 14.9853 26.5243 14.7726 25.9412L14.486 25.1529L13.7828 25.6109C12.9658 26.1426 12.0549 26.5643 11.0339 27.0223C9.28469 27.8093 7.48668 28.6176 5.7187 30.2792C0.95779 34.7561 -1.4383 45.4641 2.54184 50.7042C3.32135 51.7327 4.34361 52.302 5.57982 52.3958C5.69993 52.4046 5.82005 52.4084 5.93892 52.4084Z" fill="#E6E6E6"/>
<path d="M16.3681 45.8019C16.9699 45.7469 17.4829 45.5279 17.8908 45.1525C18.6178 44.4794 19.0607 43.2795 19.107 41.8568C19.122 41.3638 19.1508 40.782 19.1834 40.1489C19.5712 32.4776 19.0182 31.6005 18.3137 31.294L17.9271 31.1263L17.6106 31.4016C17.2414 31.7219 17.1076 32.3588 16.9837 34.367C16.9174 35.4243 16.8498 36.5003 16.5933 37.3111C16.1879 38.6011 15.1419 40.5393 14.2335 41.3701L13.8631 41.7079L15.9126 45.8445L16.3681 45.8019Z" fill="#FFCEBF"/>
<path d="M19.2345 26.5355C20.7898 26.5355 22.3625 25.741 22.3625 24.222V21.7221L21.5117 21.9698C20.7785 22.1813 20.034 22.2901 19.297 22.2901C18.5601 22.2901 17.8156 22.1813 17.0849 21.9698L16.2328 21.7221V24.222C16.2328 24.9452 16.5569 25.5483 17.17 25.9675C17.7105 26.3341 18.4437 26.5355 19.2345 26.5355Z" fill="#FFCEBF"/>
<path d="M19.2971 22.3402C23.7139 22.3402 27.3062 18.7479 27.3062 14.3323C27.3062 13.0035 27.2036 11.5033 25.9736 10.5148C24.86 9.62397 23.4036 9.2486 22.4051 9.0434C21.3791 8.83319 20.3093 8.72433 19.227 8.71933H19.2245C17.5879 8.71933 16.164 8.91827 14.9078 9.31116C13.9518 9.6102 12.5955 10.1432 11.8723 11.3156C11.3543 12.1564 11.288 13.3701 11.288 14.3323C11.288 18.7479 14.8802 22.3402 19.2971 22.3402Z" fill="#FFCEBF"/>
<path d="M24.7324 41.7079L24.3621 41.3701C23.4236 40.513 22.4064 38.5961 22.0022 37.3124C21.7445 36.4966 21.6782 35.4155 21.6119 34.3695C21.4867 32.3225 21.3554 31.7144 20.975 31.4116L20.6722 31.1701L20.3131 31.3127C19.5899 31.6005 19.0231 32.4626 19.4097 40.1239C19.4435 40.7858 19.4723 41.3663 19.4885 41.8568C19.5336 43.2782 19.9765 44.4794 20.7035 45.15C21.1114 45.5292 21.6106 45.7419 22.2275 45.7994L22.6829 45.8432L24.7324 41.7079Z" fill="#FFCEBF"/>
<path d="M33.4509 60.9805L32.9717 52.3696L32.3736 52.3396C28.5962 52.1494 24.1093 48.1667 22.3551 46.4638L22.5015 45.8094L21.8821 45.6968C21.4317 45.5992 21.0563 45.4078 20.736 45.1125C20.6321 45.0161 20.5445 44.911 20.4595 44.8034L19.272 36.9806V60.9805H33.4509Z" fill="#E6E6E6"/>
<path d="M44.0342 50.9806C49.0342 48.4802 52.5342 46.4806 54.5342 44.4806" stroke="#999999" stroke-width="0.1"/>
<path d="M72.5342 50.9806C67.5342 48.4802 63.0342 46.4806 61.0342 44.4806" stroke="#999999" stroke-width="0.1"/>
<path d="M74.0342 45.9806C69.0342 43.4802 65.0342 41.9806 63.0342 39.9806" stroke="#999999" stroke-width="0.1"/>
<path d="M42.5342 45.4806C47.5342 42.9802 50.5342 41.9806 52.5342 39.9806" stroke="#999999" stroke-width="0.1"/>
<path d="M6.53418 52.4806C11.5342 49.9802 14.0342 48.4806 16.0342 46.4806" stroke="#999999" stroke-width="0.1"/>
<path d="M3.53418 47.4806C8.53418 44.9802 11.5342 43.4806 13.5342 41.4806" stroke="#999999" stroke-width="0.1"/>
</svg>
