<svg width="78" height="54" viewBox="0 0 78 54" fill="none" xmlns="http://www.w3.org/2000/svg">
<path d="M17.3679 22.8998H24.1067V31.1268H17.3679V22.8998Z" fill="#FDD1C6"/>
<path d="M20.7709 24.8541C26.6049 24.8541 31.3343 20.1247 31.3343 14.2907C31.3343 8.45672 26.6049 3.72733 20.7709 3.72733C14.9369 3.72733 10.2075 8.45672 10.2075 14.2907C10.2075 20.1247 14.9369 24.8541 20.7709 24.8541Z" fill="#FDD1C6"/>
<path d="M10.8169 16.0064C10.9108 17.2097 11.3151 20.3308 13.7088 23.1288C14.5746 24.141 17.2374 27.2558 21.2912 27.1269C25.0935 27.0075 27.4697 24.1172 28.0936 23.3596C31.2482 19.5238 30.5542 14.8493 30.4205 14.0344L10.8169 16.0064Z" fill="#FDD1C6"/>
<path d="M11.3391 16.3214C11.2006 16.2132 10.4462 15.6498 9.47694 15.8328C9.33529 15.8583 8.77346 15.9649 8.42967 16.3676C7.22802 17.7793 8.94376 22.5271 12.3641 20.4405C12.0214 19.0675 11.6797 17.6945 11.3391 16.3214Z" fill="#FDD1C6"/>
<path d="M29.994 16.3214C30.1324 16.2132 30.8869 15.6498 31.8561 15.8328C31.9978 15.8583 32.5612 15.9649 32.9034 16.3676C34.1051 17.7793 32.3893 22.5271 28.969 20.4405C29.3117 19.0675 29.6534 17.6945 29.994 16.3214Z" fill="#FDD1C6"/>
<path d="M33.1353 32.437C29.5767 30.3189 26.1644 30.3189 25.5424 29.3658C25.1845 28.8154 24.9793 28.006 24.868 27.4177C23.7464 27.4765 22.3227 27.6426 21.8454 27.9054C21.6072 28.0358 21.4091 28.2101 21.2669 28.4143C21.1247 28.6185 21.0423 28.8471 21.0262 29.0821C21.01 28.8471 20.9276 28.6185 20.7854 28.4143C20.6432 28.2101 20.4452 28.0358 20.2069 27.9054C19.6501 27.6007 17.8112 27.4255 16.6626 27.3981C16.5529 27.9864 16.3445 28.8088 15.985 29.3658C15.363 30.3229 11.9507 30.3229 8.39369 32.437C7.20219 33.1444 5.79434 35.1343 4.44693 37.4694C4.12878 38.2631 3.75335 39.2031 3.33338 40.3223C0.586078 47.5382 -0.583157 49.9753 0.909008 52.3784C0.683115 52.2934 3.33338 53.1484 0.909008 52.3784C2.79251 53.0922 6.71063 53.4949 8.49868 53.5002L21.2669 53.4949H33.5553C37.0948 53.4949 37.1743 53.4949 41.3104 53.0033C42.319 51.3455 40.8268 45.7862 39.061 41.1904C37.2316 37.51 34.9345 33.5065 33.1353 32.437Z" fill="#CCCCCC"/>
<path d="M21.0382 36.2929C20.996 36.2929 20.9555 36.2761 20.9257 36.2463C20.8958 36.2164 20.8791 36.1759 20.8791 36.1337L20.739 29.6544C20.739 29.6122 20.7558 29.5717 20.7856 29.5418C20.8155 29.512 20.856 29.4952 20.8982 29.4952C20.9404 29.4952 20.9809 29.512 21.0107 29.5418C21.0406 29.5717 21.0573 29.6122 21.0573 29.6544L21.199 36.1353C21.199 36.1775 21.1822 36.218 21.1524 36.2479C21.1225 36.2777 21.082 36.2945 21.0398 36.2945L21.0382 36.2929Z" fill="#26B099"/>
<path d="M19.706 29.4253C19.959 29.9314 19.7298 36.5716 20.0513 37.3307C20.3728 38.0899 21.8435 38.3414 21.8896 38.2491C21.9358 38.1568 21.9358 30.097 22.0265 29.6004C22.0965 29.2248 24.1545 28.8444 25.154 28.6804C25.0388 28.2508 24.9474 27.8151 24.8802 27.3753C23.7582 27.447 22.3337 27.6491 21.8562 27.969C21.6178 28.1278 21.4197 28.3399 21.2774 28.5885C21.1351 28.8372 21.0527 29.1155 21.0365 29.4014C21.0204 29.1155 20.9379 28.8372 20.7957 28.5885C20.6534 28.3399 20.4552 28.1278 20.2169 27.969C19.6598 27.5982 17.8199 27.3849 16.6708 27.3515C16.6215 27.6698 16.5498 28.0613 16.4543 28.4465C17.2963 28.5945 19.5022 29.0179 19.706 29.4253Z" fill="#999999"/>
<path d="M8.76326 53.4053C8.78016 47.576 8.77555 47.9614 8.78323 47.9396C9.98767 43.456 9.92468 38.5348 7.99974 34.4148C7.98873 34.3912 7.98482 34.3623 7.98885 34.3345C7.99289 34.3067 8.00454 34.2824 8.02124 34.2668C8.03795 34.2512 8.05834 34.2456 8.07793 34.2513C8.09752 34.2571 8.11471 34.2736 8.12571 34.2973C10.0737 38.4651 10.1474 43.443 8.93071 47.9984L8.91535 53.4075C8.91257 53.4334 8.90327 53.457 8.88918 53.474C8.87508 53.491 8.85714 53.5002 8.83864 53.4999C8.82014 53.4997 8.80233 53.49 8.78849 53.4726C8.77464 53.4552 8.76568 53.4313 8.76326 53.4053Z" fill="#1D6355"/>
<path d="M32.8804 53.3889L32.9005 47.8255C31.5759 43.3438 31.6514 38.4169 33.7791 34.2965C33.7851 34.285 33.7927 34.275 33.8017 34.2672C33.8106 34.2594 33.8207 34.254 33.8313 34.2512C33.8418 34.2484 33.8528 34.2483 33.8634 34.2509C33.874 34.2535 33.8841 34.2588 33.8931 34.2664C33.9022 34.274 33.9099 34.2839 33.916 34.2954C33.9221 34.3068 33.9263 34.3197 33.9285 34.3333C33.9307 34.3469 33.9307 34.3609 33.9287 34.3745C33.9267 34.3881 33.9226 34.4011 33.9166 34.4127C30.6001 40.8384 33.0783 47.5674 33.0665 47.8083L33.0447 53.3997C33.0442 53.4135 33.0415 53.4271 33.0369 53.4396C33.0322 53.4521 33.0257 53.4633 33.0177 53.4726C33.0097 53.4819 33.0003 53.4891 32.9901 53.4937C32.98 53.4984 32.9692 53.5004 32.9584 53.4997C32.9476 53.499 32.937 53.4956 32.9273 53.4896C32.9175 53.4837 32.9087 53.4753 32.9015 53.465C32.8943 53.4547 32.8887 53.4427 32.8851 53.4297C32.8814 53.4166 32.8799 53.4028 32.8804 53.3889Z" fill="#1D6355"/>
<path d="M9.80955 15.7964C10.5843 16.2939 11.1364 17.0719 11.3502 17.9674C11.686 19.4523 11.8404 10.9039 11.8404 10.9039C11.8404 10.9039 10.4764 10.323 9.80955 11.2715C9.14267 12.2201 9.22862 15.3317 9.80955 15.7964Z" fill="#554E56"/>
<path d="M32.1413 15.8282C31.3466 16.2931 30.763 17.0478 30.5131 17.9339C30.1152 19.4029 30.3141 10.8561 30.3141 10.8561C30.3141 10.8561 31.7004 10.3308 32.3259 11.3065C32.9514 12.2821 32.7397 15.3857 32.1413 15.8282Z" fill="#554E56"/>
<path d="M30.9237 39.7049H24.7722C24.6351 39.7049 24.5239 39.8161 24.5239 39.9532V41.0498C24.5239 41.1869 24.6351 41.2981 24.7722 41.2981H30.9237C31.0608 41.2981 31.172 41.1869 31.172 41.0498V39.9532C31.172 39.8161 31.0608 39.7049 30.9237 39.7049Z" fill="#999999"/>
<path d="M9.34162 12.4063C9.34162 12.4063 18.6126 4.19364 32.7046 12.4063C32.7635 11.5086 32.9035 7.80655 30.2535 4.56289C27.1865 0.805141 22.754 0.569585 21.7974 0.517062C20.47 0.447032 16.0852 0.431116 12.6665 3.88805C9.28592 7.30679 9.32093 11.6216 9.34162 12.4063Z" fill="#CCCCCC"/>
<path d="M9.51678 9.96331C9.37559 10.7696 9.31693 11.5882 9.3417 12.4064C9.3417 12.4064 18.6127 4.19379 32.7047 12.4064C32.7662 11.6299 32.748 10.8491 32.6506 10.0763C19.7109 2.57674 10.8521 8.90331 9.51678 9.96331Z" fill="#999999"/>
<path d="M71.5512 15.4658C71.5512 12.2923 70.2906 9.24873 68.0465 7.0047C65.8025 4.76068 62.759 3.5 59.5854 3.5C56.4119 3.5 53.3684 4.76068 51.1243 7.0047C48.8803 9.24873 47.6196 12.2923 47.6196 15.4658L41.6367 46.235H77.5341L71.5512 15.4658Z" fill="#CCCCCC"/>
<path d="M73.9348 40.3889C70.8884 42.6205 65.6019 44.0983 59.5855 44.0983C53.5691 44.0983 48.2826 42.6206 45.2362 40.3889C44.008 42.3415 43.3531 44.5998 43.3462 46.9066V53.5H75.8248V46.9066C75.8179 44.5998 75.163 42.3415 73.9348 40.3889Z" fill="#999999"/>
<path d="M48.0471 37.1141H71.124V53.5H48.0471V37.1141Z" fill="#BFBFBF"/>
<path d="M66.6938 34.7182C66.4319 34.6115 65.1716 34.399 65.0098 34.1119C64.848 33.8249 64.7615 33.4783 64.7631 33.1231V32.9814C64.7614 32.676 64.8252 32.3759 64.9472 32.1144C65.0693 31.8529 65.2449 31.6402 65.4547 31.4999L52.9189 31.6318C53.1472 31.7827 53.3357 32.0179 53.4605 32.3076C53.5853 32.5972 53.6409 32.9283 53.6202 33.2588C53.5994 33.5893 53.5033 33.9044 53.344 34.1642C53.1847 34.424 52.9694 34.6168 52.7253 34.7182C48.3891 36.3335 44.6494 39.9191 42.1938 44.8157C45.8029 48.2353 52.0661 50.4999 59.1938 50.4999C66.3216 50.4999 73.6164 48.2355 77.2255 44.8157C74.7699 39.919 71.0301 36.3334 66.6938 34.7182Z" fill="#CCCCCC"/>
<path d="M59.5855 32.1326C57.0943 32.1253 54.7072 31.1325 52.9456 29.3709C51.184 27.6093 50.1911 25.2222 50.1838 22.7309V18.4574C50.1838 15.9639 51.1744 13.5726 52.9375 11.8094C54.7007 10.0463 57.0921 9.05573 59.5855 9.05573C62.0768 9.06302 64.4639 10.0559 66.2255 11.8175C67.9871 13.5791 68.98 15.9662 68.9872 18.4574V22.7309C68.98 25.2222 67.9871 27.6093 66.2255 29.3709C64.4639 31.1325 62.0768 32.1253 59.5855 32.1326Z" fill="#FDD1C6"/>
<path d="M68.9872 10.5171C66.1133 8.91309 62.8768 8.07101 59.5855 8.07101C56.2943 8.07101 53.0578 8.91309 50.1838 10.5171V15.8932C52.9566 14.0076 56.2324 12.9993 59.5855 12.9993C62.9387 12.9993 66.2145 14.0076 68.9872 15.8932V10.5171Z" fill="white"/>
<path d="M59.5854 4.35474C56.4119 4.35474 53.3684 5.61542 51.1243 7.85944C48.8803 10.1035 47.6196 13.147 47.6196 16.3205L50.1837 19.7393C50.1837 17.2459 51.1743 14.8545 52.9374 13.0913C54.7006 11.3282 57.0919 10.3376 59.5854 10.3376C62.0789 10.3376 64.4703 11.3282 66.2334 13.0913C67.9966 14.8545 68.9871 17.2459 68.9871 19.7393L71.5512 16.3205C71.5512 13.147 70.2906 10.1035 68.0465 7.85944C65.8025 5.61542 62.759 4.35474 59.5854 4.35474Z" fill="#CCCCCC"/>
</svg>
