<svg width="104" height="60" viewBox="0 0 104 60" fill="none" xmlns="http://www.w3.org/2000/svg">
<g clip-path="url(#clip0_125_16041)">
<path d="M37.7366 11.4473V14.0872C38.9405 13.9069 40.0089 14.279 40.7509 14.9689V11.4473C39.84 11.4473 38.8247 11.4473 37.7366 11.4473Z" fill="#554E56"/>
<path d="M19.2095 11.4473V14.9689C19.9771 14.257 21.0698 13.8702 22.1364 14.0126V11.4473C21.0785 11.4473 20.093 11.4473 19.2095 11.4473Z" fill="#433F43"/>
<path d="M37.8872 13.8492C37.8872 20.592 37.8941 19.6518 37.8872 19.9406C39.9755 20.2565 41.6056 18.7482 41.6056 16.8951C41.6056 15.0384 39.9691 13.5374 37.8872 13.8492Z" fill="#FFB19F"/>
<path d="M22.0739 13.8515C20.2561 13.6089 18.3555 15.0041 18.3555 16.8951C18.3555 18.7454 19.9824 20.257 22.0739 19.9402C22.067 19.6632 22.0739 20.5518 22.0739 13.8515Z" fill="#FFB19F"/>
<path d="M40.7697 14.789C40.0927 14.0739 39.0609 13.6734 37.8872 13.8492C37.8872 20.592 37.8941 19.6518 37.8872 19.9406C39.0641 20.1187 40.0959 19.7168 40.772 19.0008C40.7711 18.3229 40.7702 17.0851 40.7697 14.789Z" fill="#FFA78F"/>
<path d="M22.0716 19.0013C21.5479 18.4465 21.2375 17.7031 21.2375 16.8951C21.2375 16.1128 21.5635 15.4157 22.0734 14.8842C22.0739 14.5615 22.0739 14.2186 22.0739 13.8515C20.2561 13.6089 18.3555 15.0037 18.3555 16.8951C18.3555 18.7454 19.9824 20.257 22.0739 19.9402C22.0702 19.7836 22.0707 19.9997 22.0716 19.0013Z" fill="#FFA78F"/>
<path d="M21.9529 11.4473V21.1478L23.4891 22.0166C23.9812 22.2949 24.2852 22.8163 24.2852 23.3812V24.1452C24.2852 25.0108 24.9869 25.7126 25.8526 25.7126H26.4577C26.9448 25.7126 27.4131 25.5267 27.7674 25.1926C28.1217 24.8589 28.59 24.6725 29.0766 24.6725H30.8839C31.3705 24.6725 31.8392 24.8589 32.1935 25.1926C32.5474 25.5267 33.0161 25.7126 33.5027 25.7126H34.1079C34.974 25.7126 35.6757 25.0108 35.6757 24.1452V23.3812C35.6757 22.8163 35.9797 22.2949 36.4713 22.0166L38.008 21.1478V11.4473C33.1814 11.4473 26.7686 11.4473 21.9529 11.4473Z" fill="#FFCEBF"/>
<path d="M38.3674 33.5106C34.8953 37.446 29.9816 37.6057 29.9807 37.6057C29.9793 37.6057 25.0634 37.446 21.5908 33.5078L21.3931 33.5843V60H38.5679V33.588L38.3674 33.5106Z" fill="#E7E7E7"/>
<path d="M29.9807 37.4849C29.9798 37.4849 29.317 37.4634 28.3071 37.2418V50.3412C28.3071 50.8868 28.7489 51.329 29.2945 51.329H30.666C31.2112 51.329 31.6534 50.8868 31.6534 50.3412V37.2418C30.6436 37.4634 29.9812 37.4849 29.9807 37.4849Z" fill="#CECECE"/>
<path d="M30.5708 50.3412V37.4304C30.1972 37.4776 29.9807 37.4849 29.9807 37.4849C29.9798 37.4849 29.317 37.4634 28.3071 37.2414V50.3412C28.3071 50.8868 28.7489 51.329 29.2945 51.329H30.666C30.8267 51.329 30.9777 51.2897 31.1118 51.2215C30.791 51.0585 30.5708 50.7262 30.5708 50.3412Z" fill="#BFBFBF"/>
<path d="M38.4471 33.5413L36.0781 32.6239C33.9216 34.7777 31.5499 34.5474 29.9807 34.5474C28.3918 34.5474 26.0357 34.7736 23.8828 32.6239L21.5139 33.5413C24.9902 37.565 29.9793 37.7266 29.9807 37.7266C29.9816 37.7266 34.9708 37.565 38.4471 33.5413Z" fill="#CECECE"/>
<path d="M25.1357 33.6154C24.7155 33.36 24.2953 33.0359 23.8828 32.6239L21.5139 33.5413C22.6364 34.8409 23.9167 35.7367 25.1357 36.3556V33.6154Z" fill="#BFBFBF"/>
<path d="M47.5176 37.0541C46.4199 36.6289 39.3461 33.8892 38.447 33.5413V60H50.6574C51.524 60 52.2266 59.2973 52.2266 58.4308V44.3582C52.2266 38.99 47.5176 37.0541 47.5176 37.0541Z" fill="#BFBFBF"/>
<path d="M38.447 33.5413V60H42.0688V34.9438C40.3637 34.2838 38.8338 33.6909 38.447 33.5413Z" fill="#BFBFBF"/>
<path d="M12.4434 37.0541C13.5411 36.6289 20.6149 33.8892 21.514 33.5413V60C15.1089 60 10.0035 60 9.30359 60C8.43704 60 7.73438 59.2973 7.73438 58.4308V44.3582C7.73438 38.99 12.4434 37.0541 12.4434 37.0541Z" fill="#BFBFBF"/>
<path d="M11.4656 58.4308V40.9149C11.4656 39.3498 11.8661 38.0772 12.4333 37.0583C12.2017 37.1571 7.73438 39.1287 7.73438 44.3578V58.4308C7.73438 59.2973 8.43704 60 9.30359 60H13.0348C12.1683 60 11.4656 59.2973 11.4656 58.4308Z" fill="#BFBFBF"/>
<path d="M29.9802 0C24.0316 0 19.2095 4.82208 19.2095 10.7712V11.5681H40.7509V10.7712C40.7509 4.82208 35.9293 0 29.9802 0Z" fill="#E7E7E7"/>
<path d="M31.7911 0.152435C31.2024 0.0526429 30.5973 0 29.9802 0C24.0316 0 19.2095 4.82208 19.2095 10.7712V11.5681H22.8313V10.7712C22.8313 5.43961 26.7049 1.01349 31.7911 0.152435Z" fill="#CECECE"/>
<path d="M45.3099 60V46.2057C45.3099 45.7054 44.9048 45.3003 44.4045 45.3003C43.9046 45.3003 43.499 45.7054 43.499 46.2057V60H45.3099Z" fill="#999999"/>
<path d="M16.462 60V46.2057C16.462 45.7054 16.0565 45.3003 15.5566 45.3003C15.0562 45.3003 14.6511 45.7054 14.6511 46.2057V60H16.462Z" fill="#999999"/>
<path d="M35.6757 23.2603V24.0244C35.6757 24.8904 34.974 25.5922 34.1083 25.5922H33.5027C33.0161 25.5922 32.5478 25.4059 32.1935 25.0722C31.8392 24.738 31.3709 24.5522 30.8839 24.5522H29.0771C28.5905 24.5522 28.1217 24.738 27.7674 25.0722C27.4135 25.4059 26.9448 25.5922 26.4582 25.5922H25.853C24.9869 25.5922 24.2852 24.89 24.2852 24.0244V23.2603C24.2852 22.6955 23.9812 22.1741 23.4896 21.8962L21.9529 21.0269V28.0902C21.9529 31.723 24.8981 34.6683 28.5309 34.6683H31.4304C35.0632 34.6683 38.008 31.723 38.008 28.0902C38.008 27.0863 38.008 21.9731 38.008 21.0269L36.4713 21.8962C35.9797 22.1741 35.6757 22.6955 35.6757 23.2603Z" fill="#554E56"/>
<path d="M25.5001 28.0902C25.5001 27.6764 25.5001 26.7604 25.5001 25.5505C24.8047 25.3903 24.2852 24.7687 24.2852 24.0244V23.2603C24.2852 22.6955 23.9812 22.1741 23.4896 21.8962L21.9529 21.0269V28.0902C21.9529 31.723 24.8977 34.6683 28.5305 34.6683H31.4304C31.5389 34.6683 31.6469 34.6651 31.7541 34.66C28.2719 34.4911 25.5001 31.6145 25.5001 28.0902Z" fill="#433F43"/>
</g>
<path d="M103.255 60.0001H55C55 51.6055 57.2526 44.4077 60.3148 42.595C62.7346 41.1695 63.9049 38.2745 63.9049 38.2745H94.3506C94.3506 38.2745 95.5297 41.1695 97.9495 42.595C101.003 44.4077 103.255 51.6055 103.255 60.0001Z" fill="#B0B0B0"/>
<path d="M69.4485 38.2745H63.9049C63.9049 38.2745 62.7346 41.1695 60.3148 42.595C57.2526 44.4077 55 51.6055 55 60.0001H103.255C103.255 58.3194 103.159 56.6827 102.992 55.134H86.308C76.9983 55.134 69.4485 47.5842 69.4485 38.2745Z" fill="#BFBFBF"/>
<path d="M99.1639 43.5981C98.9703 43.5189 96.8145 42.7709 92.8812 45.8155C88.7455 48.9921 86.8449 49.4936 86.8449 49.4936C84.8034 50.4087 82.102 50.9719 79.1278 50.9719C76.1537 50.9719 73.4611 50.4087 71.4196 49.4936C71.4196 49.4936 69.519 48.9921 65.3833 45.8155C61.4412 42.7709 59.2942 43.5189 59.1006 43.5981L60.3149 42.5949C62.7347 41.1695 63.905 38.2745 63.905 38.2745L64.1426 37.3681C64.477 36.7522 65.0401 36.3298 65.7089 36.1362C65.1457 35.4059 64.9961 34.4908 65.3833 33.7428C65.7969 32.9597 66.624 32.5197 67.4951 32.4933C66.4832 31.7982 66.0609 30.5927 66.5448 29.6687C66.7912 29.1848 67.196 28.8592 67.6799 28.6656C67.1608 27.2049 66.888 25.6914 66.888 24.178V17.6313C66.888 10.935 72.0972 5.18902 78.7847 5.00424C82.1988 4.91625 85.4018 6.20095 87.804 8.60316C90.1006 10.891 91.3765 13.9619 91.3765 17.2529V24.178C91.3765 25.1635 91.2621 26.1666 91.0333 27.1521C90.8485 27.9441 91.0773 28.736 91.5525 29.396C91.6141 29.484 91.6669 29.5719 91.7197 29.6687C92.1948 30.5927 91.7813 31.7982 90.7693 32.4933C91.6405 32.5197 92.4676 32.9597 92.8812 33.7428C93.2684 34.4908 93.1188 35.4059 92.5556 36.1362C93.2244 36.3298 93.7875 36.7522 94.1131 37.3681L94.3507 38.2745C94.3507 38.2745 95.5298 41.1695 97.9496 42.5949L99.1639 43.5981Z" fill="#BFBFBF"/>
<path d="M94.7816 39.1368H90.4611C81.6882 39.1368 74.5783 32.0269 74.5783 23.254V5.92816C70.0467 7.82002 66.8965 12.4397 66.8965 17.6401V24.1868C66.8965 25.7002 67.1693 27.2137 67.6885 28.6744C67.2045 28.868 66.7997 29.1936 66.5534 29.6775C66.0694 30.6015 66.4918 31.807 67.5037 32.5021C66.6326 32.5285 65.8054 32.9685 65.3918 33.7516C65.0047 34.4996 65.1543 35.4147 65.7174 36.145C65.0487 36.3386 64.4855 36.761 64.1511 37.3769L63.9136 38.2833C63.9136 38.2833 62.7433 41.1782 60.3234 42.6037L59.1091 43.6069C59.3027 43.5277 61.4497 42.7797 65.3918 45.8243C69.5275 49.0008 71.4282 49.5024 71.4282 49.5024C73.4696 50.4175 76.1622 50.9807 79.1364 50.9807C82.1106 50.9807 84.812 50.4175 86.8534 49.5024C86.8534 49.5024 88.754 49.0008 92.8897 45.8243C96.823 42.7797 98.9789 43.5277 99.1724 43.6069L97.9581 42.6037C96.3655 41.6622 95.3183 40.1047 94.7816 39.1368Z" fill="#BFBFBF"/>
<path d="M87.6015 17.2528V24.1867C87.6015 28.8679 83.8178 33.8044 79.1278 33.8044C76.7872 33.8044 74.6665 32.5637 73.1443 30.7422C71.6132 28.9295 70.6628 26.5185 70.6628 24.1779V17.244C70.6628 12.5716 74.4553 8.77029 79.1366 8.77029C81.4772 8.77029 83.589 9.71182 85.1201 11.2517C86.66 12.7916 87.6015 14.921 87.6015 17.2528Z" fill="#FFCEBF"/>
<path d="M87.5575 16.3906C87.1615 15.8626 86.6952 15.3699 86.176 14.9387C84.3721 13.3988 81.8907 12.4573 79.1277 12.4573C75.5904 12.4573 72.4755 14.0324 70.7068 16.4082C71.1292 12.1317 74.7457 8.77917 79.1277 8.77917C81.4772 8.77917 83.589 9.7207 85.1201 11.2606C86.4664 12.5981 87.3551 14.4019 87.5575 16.3906Z" fill="#EAEAEA"/>
<path d="M74.5697 10.1168V13.3989C72.9858 14.0941 71.6571 15.1324 70.7068 16.4083C70.9092 13.8125 72.1235 11.6831 74.5697 10.1168Z" fill="#DBD7D9"/>
<path d="M65.3921 33.7516C65.4977 32.5373 66.9496 31.7454 68.1287 31.895C69.9237 32.2909 71.4284 33.1181 73.0035 34.0684C71.5516 34.262 70.1261 33.954 68.7886 33.4348C67.6007 32.8893 66.4832 32.8629 65.3921 33.7516Z" fill="#B0B0B0"/>
<path d="M64.1424 37.377C63.9752 40.4216 67.4862 40.4744 69.1932 42.1639C67.7941 42.1815 66.351 41.9615 65.1015 41.3367C63.764 40.6592 62.8753 38.4682 64.1424 37.3682C64.424 35.714 66.6326 35.0276 68.0845 35.6612C69.7828 36.3211 71.4283 36.9283 73.0385 37.8434C71.3667 38.0282 69.7212 37.685 68.1637 37.1043C66.8438 36.4531 65.3655 36.2419 64.1424 37.377Z" fill="#B0B0B0"/>
<path d="M80.1571 43.5892C77.5437 44.5836 74.464 44.3196 72.0706 42.8853C74.8071 42.5245 77.5173 42.7709 80.1571 43.5892Z" fill="#B0B0B0"/>
<path d="M85.3311 34.0507C86.8621 33.1092 88.4108 32.2557 90.1619 31.8949C91.3322 31.7541 92.7665 32.546 92.8721 33.7515C91.7898 32.8716 90.681 32.8892 89.5107 33.426C88.182 33.9451 86.7741 34.2443 85.3311 34.0507Z" fill="#B0B0B0"/>
<path d="M94.2712 40.1399C93.8048 41.0286 92.8633 41.5478 91.9482 41.8821C90.2763 42.5069 88.5164 42.9117 86.7038 42.7797C88.446 41.8029 90.2411 41.1342 92.0714 40.4215C93.3297 39.9463 94.3416 38.8904 94.1128 37.3681C93.0921 36.277 91.7106 36.2506 90.5579 36.8313C87.6365 38.1952 84.328 38.8904 81.1162 38.4064C83.8792 37.5793 86.607 36.9457 89.3172 36.0306L90.1267 35.7666C91.5698 35.1595 93.708 35.749 94.1216 37.3769C94.8256 38.0808 94.7728 39.3039 94.2712 40.1399Z" fill="#B0B0B0"/>
<path d="M66.5447 29.6686C66.0871 28.2519 68.2166 27.328 68.9909 28.5247C68.0934 29.2902 67.8118 29.3782 66.5447 29.6686Z" fill="#B0B0B0"/>
<defs>
<clipPath id="clip0_125_16041">
<rect width="60" height="60" fill="white"/>
</clipPath>
</defs>
</svg>
