<svg width="23" height="17" viewBox="0 0 23 17" fill="none" xmlns="http://www.w3.org/2000/svg">
<path d="M17.4999 17C14.3057 17 11.9999 14.363 12 10.4584C12.0204 4.78523 16.2852 0.774162 22.4378 0.00387383C23.0086 -0.0675907 23.2287 0.723139 22.703 0.956869C20.3423 2.00661 19.1499 3.33868 18.9959 4.65716C18.8809 5.64223 19.4164 6.50512 20.0888 6.6667C21.8319 7.08558 22.9999 9.25641 22.9999 11.5C22.9999 14.5376 20.5375 17 17.4999 17Z" fill="#006C39"/>
<path d="M5.4999 17C2.30569 17 -0.000106812 14.363 -2.95639e-05 10.4584C0.0204277 4.78523 4.28521 0.774162 10.4378 0.00387383C11.0086 -0.0675907 11.2287 0.723139 10.703 0.956869C8.34226 2.00661 7.14993 3.33868 6.99593 4.65716C6.88087 5.64223 7.41636 6.50512 8.08876 6.6667C9.83195 7.08558 10.9999 9.25641 10.9999 11.5C10.9999 14.5376 8.53746 17 5.4999 17Z" fill="#006C39"/>
</svg>
