<svg width="38" height="41" viewBox="0 0 38 41" fill="none" xmlns="http://www.w3.org/2000/svg">
<path d="M19.1182 22.2044V3.13727L32.9851 10.0708L19.1182 17.0042" stroke="white" stroke-width="2.7" stroke-linecap="round" stroke-linejoin="round"/>
<path d="M33.9578 17.3891C34.8802 20.2321 34.9665 23.2802 34.2064 26.1708C33.4463 29.0614 31.8719 31.6728 29.6704 33.6944C27.4689 35.7159 24.733 37.0625 21.7882 37.5739C18.8434 38.0853 15.8136 37.74 13.0595 36.5791C10.3053 35.4181 7.94253 33.4905 6.25237 31.0254C4.56222 28.5603 3.61577 25.6615 3.52565 22.674C3.43553 19.6865 4.20551 16.736 5.744 14.1735C7.28249 11.611 9.52472 9.54438 12.2039 8.21954" stroke="white" stroke-width="2.7" stroke-linecap="round" stroke-linejoin="round"/>
<path d="M12.1887 16.999C11.3201 18.1552 10.7546 19.5104 10.5438 20.941C10.3329 22.3717 10.4834 23.8324 10.9816 25.19C11.4797 26.5476 12.3096 27.759 13.3957 28.7138C14.4818 29.6686 15.7895 30.3365 17.1997 30.6565C18.61 30.9766 20.0779 30.9387 21.4698 30.5463C22.8616 30.1539 24.1332 29.4195 25.1685 28.41C26.2039 27.4004 26.9702 26.1478 27.3977 24.7663C27.8251 23.3848 27.9001 21.9183 27.6157 20.5004" stroke="white" stroke-width="2.7" stroke-linecap="round" stroke-linejoin="round"/>
</svg>
