<svg width="30" height="22" viewBox="0 0 30 22" fill="none" xmlns="http://www.w3.org/2000/svg">
<path d="M29.2475 10.2991C29.5308 10.0218 29.7071 9.63558 29.7071 9.20879C29.7071 8.48808 29.2049 7.88293 28.5321 7.72367V4.84261L28.827 4.76357C29.1891 4.6666 29.4324 4.3496 29.4324 3.97484C29.4324 3.60007 29.1891 3.28302 28.827 3.18605L18.5493 0.432144C18.0973 0.31103 17.6761 0.31103 17.224 0.432144L6.94632 3.18605C6.58427 3.28308 6.34104 3.60001 6.34104 3.97484C6.34104 4.34966 6.58427 4.6666 6.94632 4.76357L10.6656 5.76013V8.21146C10.6159 8.22007 10.566 8.23045 10.5154 8.24404C10.4551 8.26021 10.3973 8.2792 10.3417 8.30076L5.27347 4.53259C5.21206 4.47769 5.14579 4.42871 5.07378 4.3871C4.54614 4.0823 3.83991 4.20429 3.08558 4.73046C2.40812 5.20302 1.74765 5.96105 1.22581 6.86492C0.704033 7.76878 0.377783 8.71976 0.307236 9.54277C0.228721 10.4591 0.476103 11.1315 1.00392 11.4362C1.07628 11.478 1.15204 11.5117 1.23079 11.5375L7.13417 14.0889C7.13487 14.0916 7.1354 14.0943 7.1361 14.097C7.17401 14.2386 7.22745 14.3667 7.29565 14.4827L4.98847 16.0821C4.87374 16.1616 4.81696 16.3014 4.84368 16.4384C4.8704 16.5754 4.97563 16.6835 5.11175 16.7141L6.37274 16.9969L6.3213 18.2882C6.31573 18.4276 6.39319 18.5572 6.51864 18.6183C6.56757 18.6421 6.62019 18.6537 6.67251 18.6537C6.75431 18.6537 6.83528 18.6253 6.90015 18.5701L9.03952 16.753C9.1321 16.8455 9.23933 16.9275 9.36267 16.9988C9.48964 17.0721 9.61802 17.1249 9.74821 17.1587L9.24776 19.9211C9.22292 20.0584 9.28157 20.1975 9.39735 20.2754C9.51325 20.3534 9.66419 20.3555 9.78185 20.2808L10.8735 19.5891L11.7502 20.5386C11.818 20.6119 11.9122 20.6517 12.0086 20.6517C12.0469 20.6517 12.0856 20.6454 12.1231 20.6325C12.2551 20.587 12.3476 20.4677 12.3589 20.3286L12.5867 17.5315C12.7176 17.5315 12.8515 17.513 12.989 17.4761C12.9917 17.4754 12.9943 17.4745 12.997 17.4738L18.3251 21.4347C18.3361 21.4428 18.3474 21.4503 18.3592 21.4571C18.5958 21.5935 18.8596 21.6585 19.1393 21.6585C20.2209 21.6585 21.5407 20.687 22.4471 19.117C22.9724 18.2071 23.2741 17.2343 23.2966 16.3778C23.321 15.4442 23.013 14.7443 22.4292 14.4073C22.4175 14.4005 22.4053 14.3944 22.3929 14.389L18.3983 12.6629C20.7593 12.581 23.0102 11.9333 24.9371 10.7768C25.0429 10.7132 25.1077 10.5987 25.1077 10.4753V5.76007L27.8288 5.03093V7.72355C27.1562 7.88281 26.654 8.48802 26.654 9.20867C26.654 9.66377 26.8544 10.0727 27.1714 10.3526L26.9974 10.7264C26.8194 11.1087 26.7366 11.4832 26.7366 11.9048V13.7479C26.7366 14.2944 27.1811 14.7389 27.7276 14.7389H28.7159C29.2623 14.7389 29.7069 14.2944 29.7069 13.7479V11.9048C29.7069 11.483 29.624 11.1086 29.4461 10.7264L29.2473 10.299L29.2475 10.2991ZM7.04417 3.97484C7.04417 3.92029 7.07558 3.87933 7.12831 3.86521L17.4059 1.1113C17.5722 1.06677 17.7294 1.04451 17.8867 1.04451C18.044 1.04451 18.2012 1.06677 18.3674 1.1113L28.6451 3.86521C28.6978 3.87933 28.7293 3.92029 28.7293 3.97484C28.7293 4.02939 28.6978 4.07029 28.6451 4.08447L28.15 4.21712L18.2453 3.32175C18.0517 3.30412 17.881 3.44685 17.8635 3.64027C17.846 3.83363 17.9886 4.00455 18.182 4.02207L26.1799 4.74505L18.3674 6.83843C18.035 6.92755 17.7385 6.92755 17.4059 6.83843L7.12831 4.08453C7.07563 4.07041 7.04417 4.02945 7.04417 3.9749V3.97484ZM7.57468 11.8894C7.70511 12.1739 7.66538 12.4754 7.46575 12.7166C7.3031 12.9132 7.19294 13.1144 7.13341 13.3226L2.5672 11.3491C2.70653 11.2784 2.84845 11.1931 2.99218 11.0929C3.66964 10.6203 4.33017 9.86228 4.852 8.95841C5.37378 8.05461 5.70009 7.10357 5.77058 6.28056C5.78552 6.10636 5.78851 5.94113 5.78019 5.78539L9.74933 8.7364C9.64239 8.87216 9.55427 9.03265 9.48478 9.21962C9.37573 9.51306 9.13444 9.69816 8.82278 9.72752C8.26755 9.7799 7.87198 10.0229 7.61352 10.4706C7.35513 10.9183 7.34241 11.3823 7.57468 11.8893V11.8894ZM4.43569 4.92617C4.53981 4.92617 4.63228 4.94791 4.71108 4.99068L4.82259 5.07359C5.02644 5.27515 5.11614 5.68226 5.07003 6.22068C5.0081 6.94308 4.71448 7.79052 4.2431 8.60697C3.31339 10.2172 2.09048 11.0482 1.47173 10.8758L1.34745 10.822C1.22036 10.7451 1.12544 10.6054 1.06579 10.4156C1.1722 10.4595 1.28692 10.4814 1.40827 10.4814C1.72749 10.4814 2.09288 10.3308 2.47526 10.036C2.9654 9.65802 3.45448 9.07045 3.85228 8.38138C4.60726 7.07369 4.95636 5.51199 4.22194 4.95242C4.29735 4.93525 4.36896 4.92628 4.43575 4.92628L4.43569 4.92617ZM3.24325 8.0297C2.89028 8.64113 2.46501 9.15582 2.04583 9.47902C1.68771 9.75517 1.42134 9.81769 1.31634 9.75699C1.21134 9.69634 1.13224 9.43455 1.19235 8.98625C1.26267 8.46166 1.49581 7.83605 1.84878 7.22462C2.55911 5.99433 3.34831 5.47519 3.67778 5.47519C3.71739 5.47519 3.75032 5.48269 3.77569 5.49734C4.0123 5.63404 4.03884 6.65175 3.24325 8.02976V8.0297ZM7.05583 17.5156L7.087 16.7321C7.09374 16.5624 6.97837 16.4122 6.81267 16.375L6.04755 16.2034L7.80659 14.984C7.89946 15.0383 8.00077 15.0864 8.11181 15.1277C8.40519 15.2367 8.59028 15.478 8.61964 15.7896C8.63118 15.9121 8.65257 16.0263 8.68286 16.1335L7.05583 17.5156ZM11.7232 19.4729L11.1913 18.8968C11.0762 18.772 10.8883 18.7474 10.7449 18.8383L10.0825 19.258L10.4641 17.1518C10.5682 17.1246 10.6738 17.087 10.7815 17.0377C11.066 16.9072 11.3676 16.9469 11.6087 17.1466C11.7034 17.225 11.7994 17.2898 11.8965 17.3442L11.7232 19.4728L11.7232 19.4729ZM12.057 16.605C11.7801 16.3758 11.4521 16.2584 11.1168 16.2584C10.9066 16.2584 10.6935 16.3046 10.4886 16.3985C10.1877 16.5363 9.96343 16.5339 9.71423 16.3899C9.46503 16.246 9.35071 16.053 9.31972 15.7236C9.26481 15.1414 8.90487 14.6722 8.35667 14.4686C8.04659 14.3534 7.88968 14.1931 7.81526 13.9151C7.74079 13.6372 7.79646 13.4198 8.00733 13.1649C8.38023 12.7144 8.45739 12.1281 8.21382 11.5965C8.07595 11.2957 8.07847 11.0714 8.22237 10.8222C8.36628 10.573 8.55929 10.4586 8.88864 10.4276C9.47089 10.3727 9.93999 10.0128 10.1437 9.46455C10.2589 9.15447 10.4193 8.99761 10.6973 8.92314C10.9752 8.84861 11.1925 8.90433 11.4474 9.11527C11.8978 9.4881 12.4841 9.56533 13.0158 9.32175C13.3166 9.18394 13.5408 9.18629 13.7901 9.33031C14.0394 9.47422 14.1537 9.66722 14.1847 9.99664C14.2396 10.5788 14.5996 11.048 15.1478 11.2517C15.4579 11.3669 15.6147 11.5272 15.6891 11.8052C15.7636 12.0831 15.708 12.3005 15.4971 12.5554C15.1242 13.0058 15.047 13.5921 15.2906 14.1238C15.4284 14.4246 15.4259 14.6489 15.282 14.8981C15.1381 15.1473 14.9451 15.2616 14.6157 15.2926C14.0335 15.3476 13.5644 15.7075 13.3607 16.2557C13.2455 16.5658 13.0851 16.7227 12.8072 16.7971C12.5292 16.8716 12.312 16.816 12.057 16.605V16.605ZM22.5938 16.3595C22.5744 17.1008 22.3061 17.9553 21.8382 18.7655C20.8391 20.4962 19.4298 21.2387 18.7266 20.857L13.6612 17.0914C13.8117 16.9357 13.9309 16.7397 14.0198 16.5005C14.1288 16.2071 14.3701 16.022 14.6817 15.9926C15.237 15.9402 15.6325 15.6972 15.891 15.2495C16.1494 14.8019 16.1621 14.3378 15.9299 13.8308C15.7994 13.5463 15.8391 13.2447 16.0388 13.0036C16.1659 12.8499 16.2608 12.6934 16.3249 12.5329L22.0936 15.0256C22.4286 15.2305 22.6107 15.7152 22.5938 16.3594V16.3595ZM24.4047 10.2745C22.485 11.3837 20.236 11.969 17.8867 11.969C17.4799 11.969 17.0701 11.9505 16.6676 11.9151L16.4061 11.802C16.397 11.7431 16.3845 11.6835 16.3684 11.6232C16.2345 11.1239 15.9154 10.7867 15.3927 10.5926C15.0992 10.4836 14.9141 10.2423 14.8848 9.93066C14.8324 9.37537 14.5894 8.97986 14.1417 8.72134C13.694 8.46294 13.23 8.45017 12.723 8.68255C12.4384 8.81293 12.1369 8.7732 11.8957 8.57357C11.7241 8.43154 11.5489 8.32976 11.3686 8.26642V5.94851L17.224 7.51742C17.45 7.578 17.6683 7.6083 17.8867 7.6083C18.1051 7.6083 18.3233 7.578 18.5494 7.51742L24.4048 5.94845V10.2744L24.4047 10.2745ZM28.1805 8.38548C28.6345 8.38548 29.0039 8.7548 29.0039 9.20879C29.0039 9.66277 28.6345 10.0321 28.1805 10.0321C27.7265 10.0321 27.3572 9.66277 27.3572 9.20879C27.3572 8.7548 27.7265 8.38548 28.1805 8.38548ZM29.0039 13.7481C29.0039 13.9068 28.8748 14.036 28.7161 14.036H27.7277C27.569 14.036 27.4398 13.9068 27.4398 13.7481V11.905C27.4398 11.5852 27.5 11.3132 27.6349 11.0233L27.7923 10.6851C27.9164 10.7177 28.0464 10.7353 28.1805 10.7353C28.3412 10.7353 28.496 10.7102 28.6415 10.664L28.8088 11.0233C28.9437 11.3132 29.0039 11.5851 29.0039 11.905V13.7482V13.7481ZM13.9027 14.1018C14.5874 12.916 14.1796 11.3943 12.9938 10.7096C12.4193 10.3779 11.75 10.2898 11.1095 10.4615C10.4687 10.6332 9.93325 11.0441 9.60161 11.6186C8.917 12.8044 9.32476 14.3261 10.5106 15.0107C10.8932 15.2316 11.3179 15.3445 11.7482 15.3445C11.9639 15.3445 12.181 15.3161 12.3949 15.2588C13.0356 15.0871 13.571 14.6762 13.9027 14.1018ZM13.2938 13.7502C13.056 14.162 12.6722 14.4566 12.2129 14.5797C11.7534 14.7028 11.2738 14.6395 10.8621 14.4018C10.4503 14.164 10.1557 13.7802 10.0327 13.3209C9.90958 12.8616 9.9728 12.3819 10.2105 11.9701C10.4483 11.5583 10.8321 11.2637 11.2914 11.1407C11.4447 11.0995 11.6004 11.0793 11.755 11.0793C12.0635 11.0793 12.3679 11.1602 12.6422 11.3185C13.4923 11.8092 13.7846 12.9002 13.2938 13.7502Z" fill="black"/>
</svg>
