<svg width="35" height="35" viewBox="0 0 35 35" fill="none" xmlns="http://www.w3.org/2000/svg">
<rect x="0.75" y="0.75" width="33.5" height="33.5" rx="16.75" fill="white"/>
<rect x="0.75" y="0.75" width="33.5" height="33.5" rx="16.75" stroke="white" stroke-width="1.5"/>
<path d="M26.9789 12.8135C26.7628 12.0102 26.1295 11.377 25.3264 11.1607C23.8591 10.7593 17.99 10.7593 17.99 10.7593C17.99 10.7593 12.1211 10.7593 10.6539 11.1455C9.86619 11.3616 9.21742 12.0103 9.00136 12.8135C8.61523 14.2806 8.61523 17.3233 8.61523 17.3233C8.61523 17.3233 8.61523 20.3812 9.00136 21.833C9.21765 22.6362 9.85074 23.2694 10.654 23.4857C12.1366 23.8873 17.9902 23.8873 17.9902 23.8873C17.9902 23.8873 23.8591 23.8873 25.3264 23.501C26.1296 23.2848 26.7628 22.6516 26.9791 21.8485C27.3651 20.3812 27.3651 17.3387 27.3651 17.3387C27.3651 17.3387 27.3806 14.2806 26.9789 12.8135ZM16.1214 20.1342V14.5124L21.0019 17.3233L16.1214 20.1342Z" fill="#006C39"/>
</svg>
