<svg width="50" height="50" viewBox="0 0 50 50" fill="none" xmlns="http://www.w3.org/2000/svg">
<rect width="50" height="50" rx="25" fill="#006C39"/>
<path d="M38.4683 17.9705C38.1442 16.7656 37.1943 15.8158 35.9895 15.4913C33.7887 14.8892 24.985 14.8892 24.985 14.8892C24.985 14.8892 16.1817 14.8892 13.9808 15.4685C12.7993 15.7926 11.8261 16.7658 11.502 17.9705C10.9229 20.1712 10.9229 24.7351 10.9229 24.7351C10.9229 24.7351 10.9229 29.3221 11.502 31.4998C11.8265 32.7045 12.7761 33.6543 13.981 33.9788C16.2049 34.5811 24.9854 34.5811 24.9854 34.5811C24.9854 34.5811 33.7887 34.5811 35.9895 34.0018C37.1944 33.6775 38.1442 32.7277 38.4687 31.523C39.0477 29.3221 39.0477 24.7583 39.0477 24.7583C39.0477 24.7583 39.0709 20.1712 38.4683 17.9705ZM22.1821 28.9515V20.5188L29.5028 24.7351L22.1821 28.9515Z" fill="white"/>
</svg>
