<svg width="167" height="48" viewBox="0 0 167 48" fill="none" xmlns="http://www.w3.org/2000/svg">
<path d="M160.423 48H6.5767C3.19362 48 0.422852 45.2985 0.422852 42V6C0.422852 2.7015 3.19362 -1.90735e-06 6.5767 -1.90735e-06H160.423C163.806 -1.90735e-06 166.577 2.7015 166.577 6V42C166.577 45.2985 163.806 48 160.423 48Z" fill="#0D0D0D"/>
<path d="M160.423 0.961497C163.272 0.961497 165.591 3.222 165.591 6V42C165.591 44.778 163.272 47.0385 160.423 47.0385H6.5767C3.72747 47.0385 1.40901 44.778 1.40901 42V6C1.40901 3.222 3.72747 0.961497 6.5767 0.961497H160.423ZM160.423 -1.90735e-06H6.5767C3.19362 -1.90735e-06 0.422852 2.7015 0.422852 6V42C0.422852 45.2985 3.19362 48 6.5767 48H160.423C163.806 48 166.577 45.2985 166.577 42V6C166.577 2.7015 163.806 -1.90735e-06 160.423 -1.90735e-06Z" fill="#A6A6A6"/>
<path d="M13.2661 9.04646C12.9045 9.41546 12.6953 9.98996 12.6953 10.734V37.272C12.6953 38.016 12.9045 38.5905 13.2661 38.9595L13.3553 39.0405L28.6076 24.1755V23.8245L13.3553 8.95946L13.2661 9.04646Z" fill="url(#paint0_linear_195_20140)"/>
<path d="M33.6859 29.1329L28.6074 24.1754V23.8244L33.692 18.8669L33.8059 18.9314L39.8274 22.2719C41.5459 23.2199 41.5459 24.7799 39.8274 25.7339L33.8059 29.0684L33.6859 29.1329Z" fill="url(#paint1_linear_195_20140)"/>
<path d="M33.8056 29.0685L28.6072 24L13.2656 38.9595C13.8364 39.5445 14.7672 39.615 15.8256 39.03L33.8056 29.0685Z" fill="url(#paint2_linear_195_20140)"/>
<path d="M33.8056 18.9315L15.8256 8.97C14.7672 8.391 13.8364 8.4615 13.2656 9.0465L28.6072 24L33.8056 18.9315Z" fill="url(#paint3_linear_195_20140)"/>
<path d="M58.783 12.2925C58.783 13.2945 58.4753 14.097 57.8691 14.6955C57.1722 15.405 56.2645 15.762 55.1522 15.762C54.0891 15.762 53.1814 15.399 52.4368 14.6835C51.6907 13.9575 51.3184 13.0665 51.3184 12C51.3184 10.9335 51.6907 10.0425 52.4368 9.32254C53.1814 8.60104 54.0891 8.23804 55.1522 8.23804C55.6814 8.23804 56.186 8.34454 56.6676 8.54254C57.1476 8.74204 57.5384 9.01204 57.8214 9.34504L57.1784 9.97804C56.6845 9.40954 56.0122 9.12904 55.1522 9.12904C54.3768 9.12904 53.7045 9.39304 53.1337 9.92554C52.5691 10.4595 52.286 11.151 52.286 12C52.286 12.849 52.5691 13.5465 53.1337 14.0805C53.7045 14.607 54.3768 14.877 55.1522 14.877C55.9753 14.877 56.6676 14.607 57.2137 14.0745C57.5737 13.722 57.7784 13.236 57.8322 12.615H55.1522V11.748H58.7276C58.7707 11.9355 58.783 12.117 58.783 12.2925Z" fill="#FBFBFB" stroke="#FBFBFB" stroke-width="0.16" stroke-miterlimit="10"/>
<path d="M64.4557 9.28651H61.0973V11.5665H64.1249V12.4335H61.0973V14.7135H64.4557V15.597H60.1465V8.40302H64.4557V9.28651Z" fill="#FBFBFB" stroke="#FBFBFB" stroke-width="0.16" stroke-miterlimit="10"/>
<path d="M68.458 15.597H67.5073V9.28651H65.4473V8.40302H70.5196V9.28651H68.458V15.597Z" fill="#FBFBFB" stroke="#FBFBFB" stroke-width="0.16" stroke-miterlimit="10"/>
<path d="M74.1904 15.597V8.40302H75.1397V15.597H74.1904Z" fill="#FBFBFB" stroke="#FBFBFB" stroke-width="0.16" stroke-miterlimit="10"/>
<path d="M79.3477 15.597H78.4046V9.28651H76.3369V8.40302H81.4154V9.28651H79.3477V15.597Z" fill="#FBFBFB" stroke="#FBFBFB" stroke-width="0.16" stroke-miterlimit="10"/>
<path d="M91.0187 14.6715C90.291 15.399 89.3895 15.762 88.3141 15.762C87.2325 15.762 86.331 15.399 85.6033 14.6715C84.8772 13.9455 84.5156 13.0545 84.5156 12C84.5156 10.9455 84.8772 10.0545 85.6033 9.32854C86.331 8.60104 87.2325 8.23804 88.3141 8.23804C89.3833 8.23804 90.2849 8.60104 91.0126 9.33454C91.7449 10.0665 92.1064 10.9515 92.1064 12C92.1064 13.0545 91.7449 13.9455 91.0187 14.6715ZM86.3064 14.0685C86.8541 14.607 87.5202 14.877 88.3141 14.877C89.1018 14.877 89.7741 14.607 90.3156 14.0685C90.8618 13.53 91.1387 12.8385 91.1387 12C91.1387 11.1615 90.8618 10.47 90.3156 9.93154C89.7741 9.39304 89.1018 9.12304 88.3141 9.12304C87.5202 9.12304 86.8541 9.39304 86.3064 9.93154C85.7602 10.47 85.4833 11.1615 85.4833 12C85.4833 12.8385 85.7602 13.53 86.3064 14.0685Z" fill="#FBFBFB" stroke="#FBFBFB" stroke-width="0.16" stroke-miterlimit="10"/>
<path d="M93.4395 15.597V8.40302H94.5933L98.181 13.998H98.2225L98.181 12.615V8.40302H99.1302V15.597H98.1395L94.3825 9.72601H94.341L94.3825 11.115V15.597H93.4395Z" fill="#FBFBFB" stroke="#FBFBFB" stroke-width="0.16" stroke-miterlimit="10"/>
<path d="M84.2813 26.103C81.3905 26.103 79.029 28.248 79.029 31.2075C79.029 34.143 81.3905 36.3105 84.2813 36.3105C87.1782 36.3105 89.5397 34.143 89.5397 31.2075C89.5397 28.248 87.1782 26.103 84.2813 26.103ZM84.2813 34.3005C82.6951 34.3005 81.3305 33.024 81.3305 31.2075C81.3305 29.367 82.6951 28.113 84.2813 28.113C85.8674 28.113 87.2382 29.367 87.2382 31.2075C87.2382 33.024 85.8674 34.3005 84.2813 34.3005ZM72.8213 26.103C69.9244 26.103 67.569 28.248 67.569 31.2075C67.569 34.143 69.9244 36.3105 72.8213 36.3105C75.7167 36.3105 78.0736 34.143 78.0736 31.2075C78.0736 28.248 75.7167 26.103 72.8213 26.103ZM72.8213 34.3005C71.2336 34.3005 69.8644 33.024 69.8644 31.2075C69.8644 29.367 71.2336 28.113 72.8213 28.113C74.4074 28.113 75.772 29.367 75.772 31.2075C75.772 33.024 74.4074 34.3005 72.8213 34.3005ZM59.1844 27.6675V29.8365H64.4967C64.3413 31.0485 63.9259 31.9395 63.289 32.5605C62.5136 33.3105 61.3059 34.143 59.1844 34.143C55.9151 34.143 53.3551 31.5705 53.3551 28.383C53.3551 25.1955 55.9151 22.623 59.1844 22.623C60.952 22.623 62.2382 23.2965 63.1874 24.1695L64.7551 22.641C63.4274 21.405 61.6613 20.4555 59.1844 20.4555C54.7013 20.4555 50.9336 24.012 50.9336 28.383C50.9336 32.754 54.7013 36.3105 59.1844 36.3105C61.6074 36.3105 63.4274 35.5365 64.8582 34.0845C66.3244 32.655 66.7813 30.645 66.7813 29.022C66.7813 28.518 66.7382 28.0545 66.6613 27.6675H59.1844ZM114.947 29.349C114.515 28.2075 113.181 26.103 110.464 26.103C107.772 26.103 105.53 28.1715 105.53 31.2075C105.53 34.0665 107.749 36.3105 110.723 36.3105C113.127 36.3105 114.515 34.881 115.086 34.0485L113.301 32.889C112.706 33.738 111.895 34.3005 110.723 34.3005C109.558 34.3005 108.723 33.78 108.187 32.754L115.189 29.9295L114.947 29.349ZM107.809 31.0485C107.749 29.0805 109.377 28.0725 110.543 28.0725C111.457 28.0725 112.232 28.518 112.49 29.1555L107.809 31.0485ZM102.118 36H104.42V21H102.118V36ZM98.349 27.24H98.272C97.7551 26.643 96.769 26.103 95.5197 26.103C92.8982 26.103 90.5013 28.347 90.5013 31.224C90.5013 34.0845 92.8982 36.3105 95.5197 36.3105C96.769 36.3105 97.7551 35.766 98.272 35.151H98.349V35.883C98.349 37.8345 97.2797 38.883 95.5551 38.883C94.149 38.883 93.2767 37.893 92.9167 37.0605L90.9151 37.875C91.492 39.228 93.0197 40.893 95.5551 40.893C98.2536 40.893 100.53 39.345 100.53 35.5785V26.4135H98.349V27.24ZM95.7167 34.3005C94.1305 34.3005 92.8028 33.006 92.8028 31.224C92.8028 29.4255 94.1305 28.113 95.7167 28.113C97.2797 28.113 98.512 29.4255 98.512 31.224C98.512 33.006 97.2797 34.3005 95.7167 34.3005ZM125.723 21H120.218V36H122.514V30.3165H125.723C128.272 30.3165 130.772 28.518 130.772 25.6575C130.772 22.7985 128.266 21 125.723 21ZM125.783 28.23H122.514V23.0865H125.783C127.497 23.0865 128.475 24.474 128.475 25.6575C128.475 26.8185 127.497 28.23 125.783 28.23ZM139.972 26.0745C138.314 26.0745 136.589 26.7885 135.88 28.371L137.917 29.2035C138.355 28.371 139.161 28.101 140.014 28.101C141.204 28.101 142.412 28.7985 142.43 30.03V30.1875C142.015 29.9535 141.126 29.607 140.032 29.607C137.838 29.607 135.603 30.7845 135.603 32.982C135.603 34.992 137.4 36.2865 139.42 36.2865C140.964 36.2865 141.817 35.607 142.352 34.8165H142.43V35.976H144.647V30.222C144.647 27.5625 142.61 26.0745 139.972 26.0745ZM139.695 34.2945C138.944 34.2945 137.898 33.9315 137.898 33.024C137.898 31.863 139.203 31.4175 140.332 31.4175C141.343 31.4175 141.817 31.635 142.43 31.9215C142.25 33.3105 141.024 34.2945 139.695 34.2945ZM152.724 26.403L150.086 32.9055H150.007L147.28 26.403H144.804L148.903 35.49L146.564 40.5465H148.963L155.278 26.403H152.724ZM132.034 36H134.335V21H132.034V36Z" fill="#FBFBFB"/>
<defs>
<linearGradient id="paint0_linear_195_20140" x1="27.2534" y1="37.5483" x2="7.12097" y2="16.8997" gradientUnits="userSpaceOnUse">
<stop stop-color="#00A0FF"/>
<stop offset="0.0066" stop-color="#00A1FF"/>
<stop offset="0.2601" stop-color="#00BEFF"/>
<stop offset="0.5122" stop-color="#00D2FF"/>
<stop offset="0.7604" stop-color="#00DFFF"/>
<stop offset="1" stop-color="#00E3FF"/>
</linearGradient>
<linearGradient id="paint1_linear_195_20140" x1="42.0651" y1="23.9983" x2="12.2843" y2="23.9983" gradientUnits="userSpaceOnUse">
<stop stop-color="#FFE000"/>
<stop offset="0.4087" stop-color="#FFBD00"/>
<stop offset="0.7754" stop-color="#FFA500"/>
<stop offset="1" stop-color="#FF9C00"/>
</linearGradient>
<linearGradient id="paint2_linear_195_20140" x1="30.9789" y1="21.2447" x2="3.67765" y2="-6.75659" gradientUnits="userSpaceOnUse">
<stop stop-color="#FF3A44"/>
<stop offset="1" stop-color="#C31162"/>
</linearGradient>
<linearGradient id="paint3_linear_195_20140" x1="9.40384" y1="47.7886" x2="21.5951" y2="35.2849" gradientUnits="userSpaceOnUse">
<stop stop-color="#32A071"/>
<stop offset="0.0685" stop-color="#2DA771"/>
<stop offset="0.4762" stop-color="#15CF74"/>
<stop offset="0.8009" stop-color="#06E775"/>
<stop offset="1" stop-color="#00F076"/>
</linearGradient>
</defs>
</svg>
