<svg width="257" height="48" viewBox="0 0 257 48" fill="none" xmlns="http://www.w3.org/2000/svg">
<path d="M205.423 48H51.5767C48.1936 48 45.4229 45.2985 45.4229 42V6C45.4229 2.7015 48.1936 -1.90735e-06 51.5767 -1.90735e-06H205.423C208.806 -1.90735e-06 211.577 2.7015 211.577 6V42C211.577 45.2985 208.806 48 205.423 48Z" fill="#0D0D0D"/>
<path d="M205.423 0.961497C208.272 0.961497 210.591 3.222 210.591 6V42C210.591 44.778 208.272 47.0385 205.423 47.0385H51.5767C48.7275 47.0385 46.409 44.778 46.409 42V6C46.409 3.222 48.7275 0.961497 51.5767 0.961497H205.423ZM205.423 -1.90735e-06H51.5767C48.1936 -1.90735e-06 45.4229 2.7015 45.4229 6V42C45.4229 45.2985 48.1936 48 51.5767 48H205.423C208.806 48 211.577 45.2985 211.577 42V6C211.577 2.7015 208.806 -1.90735e-06 205.423 -1.90735e-06Z" fill="#A6A6A6"/>
<path d="M58.2661 9.04652C57.9045 9.41552 57.6953 9.99002 57.6953 10.734V37.272C57.6953 38.016 57.9045 38.5905 58.2661 38.9595L58.3553 39.0405L73.6076 24.1755V23.8245L58.3553 8.95952L58.2661 9.04652Z" fill="url(#paint0_linear_195_20139)"/>
<path d="M78.6859 29.1328L73.6074 24.1753V23.8243L78.692 18.8668L78.8059 18.9313L84.8274 22.2718C86.5459 23.2198 86.5459 24.7798 84.8274 25.7338L78.8059 29.0683L78.6859 29.1328Z" fill="url(#paint1_linear_195_20139)"/>
<path d="M78.8056 29.0685L73.6072 24L58.2656 38.9595C58.8364 39.5445 59.7672 39.615 60.8256 39.03L78.8056 29.0685Z" fill="url(#paint2_linear_195_20139)"/>
<path d="M78.8056 18.9315L60.8256 8.97C59.7672 8.391 58.8364 8.4615 58.2656 9.0465L73.6072 24L78.8056 18.9315Z" fill="url(#paint3_linear_195_20139)"/>
<path d="M103.783 12.2928C103.783 13.2948 103.475 14.0973 102.869 14.6958C102.172 15.4053 101.265 15.7623 100.152 15.7623C99.0891 15.7623 98.1814 15.3993 97.4368 14.6838C96.6907 13.9578 96.3184 13.0668 96.3184 12.0003C96.3184 10.9338 96.6907 10.0428 97.4368 9.32278C98.1814 8.60128 99.0891 8.23828 100.152 8.23828C100.681 8.23828 101.186 8.34478 101.668 8.54278C102.148 8.74228 102.538 9.01228 102.821 9.34528L102.178 9.97828C101.685 9.40978 101.012 9.12928 100.152 9.12928C99.3768 9.12928 98.7045 9.39328 98.1337 9.92578C97.5691 10.4598 97.286 11.1513 97.286 12.0003C97.286 12.8493 97.5691 13.5468 98.1337 14.0808C98.7045 14.6073 99.3768 14.8773 100.152 14.8773C100.975 14.8773 101.668 14.6073 102.214 14.0748C102.574 13.7223 102.778 13.2363 102.832 12.6153H100.152V11.7483H103.728C103.771 11.9358 103.783 12.1173 103.783 12.2928Z" fill="#FBFBFB" stroke="#FBFBFB" stroke-width="0.16" stroke-miterlimit="10"/>
<path d="M109.456 9.28682H106.097V11.5668H109.125V12.4338H106.097V14.7138H109.456V15.5973H105.146V8.40332H109.456V9.28682Z" fill="#FBFBFB" stroke="#FBFBFB" stroke-width="0.16" stroke-miterlimit="10"/>
<path d="M113.458 15.5973H112.507V9.28682H110.447V8.40332H115.52V9.28682H113.458V15.5973Z" fill="#FBFBFB" stroke="#FBFBFB" stroke-width="0.16" stroke-miterlimit="10"/>
<path d="M119.19 15.5973V8.40332H120.14V15.5973H119.19Z" fill="#FBFBFB" stroke="#FBFBFB" stroke-width="0.16" stroke-miterlimit="10"/>
<path d="M124.348 15.5973H123.405V9.28682H121.337V8.40332H126.415V9.28682H124.348V15.5973Z" fill="#FBFBFB" stroke="#FBFBFB" stroke-width="0.16" stroke-miterlimit="10"/>
<path d="M136.019 14.6718C135.291 15.3993 134.389 15.7623 133.314 15.7623C132.233 15.7623 131.331 15.3993 130.603 14.6718C129.877 13.9458 129.516 13.0548 129.516 12.0003C129.516 10.9458 129.877 10.0548 130.603 9.32878C131.331 8.60128 132.233 8.23828 133.314 8.23828C134.383 8.23828 135.285 8.60128 136.013 9.33478C136.745 10.0668 137.106 10.9518 137.106 12.0003C137.106 13.0548 136.745 13.9458 136.019 14.6718ZM131.306 14.0688C131.854 14.6073 132.52 14.8773 133.314 14.8773C134.102 14.8773 134.774 14.6073 135.316 14.0688C135.862 13.5303 136.139 12.8388 136.139 12.0003C136.139 11.1618 135.862 10.4703 135.316 9.93178C134.774 9.39328 134.102 9.12328 133.314 9.12328C132.52 9.12328 131.854 9.39328 131.306 9.93178C130.76 10.4703 130.483 11.1618 130.483 12.0003C130.483 12.8388 130.76 13.5303 131.306 14.0688Z" fill="#FBFBFB" stroke="#FBFBFB" stroke-width="0.16" stroke-miterlimit="10"/>
<path d="M138.439 15.5973V8.40332H139.593L143.181 13.9983H143.223L143.181 12.6153V8.40332H144.13V15.5973H143.139L139.383 9.72632H139.341L139.383 11.1153V15.5973H138.439Z" fill="#FBFBFB" stroke="#FBFBFB" stroke-width="0.16" stroke-miterlimit="10"/>
<path d="M129.281 26.1031C126.391 26.1031 124.029 28.2481 124.029 31.2076C124.029 34.1431 126.391 36.3106 129.281 36.3106C132.178 36.3106 134.54 34.1431 134.54 31.2076C134.54 28.2481 132.178 26.1031 129.281 26.1031ZM129.281 34.3006C127.695 34.3006 126.331 33.0241 126.331 31.2076C126.331 29.3671 127.695 28.1131 129.281 28.1131C130.867 28.1131 132.238 29.3671 132.238 31.2076C132.238 33.0241 130.867 34.3006 129.281 34.3006ZM117.821 26.1031C114.924 26.1031 112.569 28.2481 112.569 31.2076C112.569 34.1431 114.924 36.3106 117.821 36.3106C120.717 36.3106 123.074 34.1431 123.074 31.2076C123.074 28.2481 120.717 26.1031 117.821 26.1031ZM117.821 34.3006C116.234 34.3006 114.864 33.0241 114.864 31.2076C114.864 29.3671 116.234 28.1131 117.821 28.1131C119.407 28.1131 120.772 29.3671 120.772 31.2076C120.772 33.0241 119.407 34.3006 117.821 34.3006ZM104.184 27.6676V29.8366H109.497C109.341 31.0486 108.926 31.9396 108.289 32.5606C107.514 33.3106 106.306 34.1431 104.184 34.1431C100.915 34.1431 98.3551 31.5706 98.3551 28.3831C98.3551 25.1956 100.915 22.6231 104.184 22.6231C105.952 22.6231 107.238 23.2966 108.187 24.1696L109.755 22.6411C108.427 21.4051 106.661 20.4556 104.184 20.4556C99.7013 20.4556 95.9336 24.0121 95.9336 28.3831C95.9336 32.7541 99.7013 36.3106 104.184 36.3106C106.607 36.3106 108.427 35.5366 109.858 34.0846C111.324 32.6551 111.781 30.6451 111.781 29.0221C111.781 28.5181 111.738 28.0546 111.661 27.6676H104.184ZM159.947 29.3491C159.515 28.2076 158.181 26.1031 155.464 26.1031C152.772 26.1031 150.53 28.1716 150.53 31.2076C150.53 34.0666 152.749 36.3106 155.723 36.3106C158.127 36.3106 159.515 34.8811 160.086 34.0486L158.301 32.8891C157.706 33.7381 156.895 34.3006 155.723 34.3006C154.558 34.3006 153.723 33.7801 153.187 32.7541L160.189 29.9296L159.947 29.3491ZM152.809 31.0486C152.749 29.0806 154.377 28.0726 155.543 28.0726C156.457 28.0726 157.232 28.5181 157.49 29.1556L152.809 31.0486ZM147.118 36.0001H149.42V21.0001H147.118V36.0001ZM143.349 27.2401H143.272C142.755 26.6431 141.769 26.1031 140.52 26.1031C137.898 26.1031 135.501 28.3471 135.501 31.2241C135.501 34.0846 137.898 36.3106 140.52 36.3106C141.769 36.3106 142.755 35.7661 143.272 35.1511H143.349V35.8831C143.349 37.8346 142.28 38.8831 140.555 38.8831C139.149 38.8831 138.277 37.8931 137.917 37.0606L135.915 37.8751C136.492 39.2281 138.02 40.8931 140.555 40.8931C143.254 40.8931 145.53 39.3451 145.53 35.5786V26.4136H143.349V27.2401ZM140.717 34.3006C139.131 34.3006 137.803 33.0061 137.803 31.2241C137.803 29.4256 139.131 28.1131 140.717 28.1131C142.28 28.1131 143.512 29.4256 143.512 31.2241C143.512 33.0061 142.28 34.3006 140.717 34.3006ZM170.723 21.0001H165.218V36.0001H167.514V30.3166H170.723C173.272 30.3166 175.772 28.5181 175.772 25.6576C175.772 22.7986 173.266 21.0001 170.723 21.0001ZM170.783 28.2301H167.514V23.0866H170.783C172.497 23.0866 173.475 24.4741 173.475 25.6576C173.475 26.8186 172.497 28.2301 170.783 28.2301ZM184.972 26.0746C183.314 26.0746 181.589 26.7886 180.88 28.3711L182.917 29.2036C183.355 28.3711 184.161 28.1011 185.014 28.1011C186.204 28.1011 187.412 28.7986 187.43 30.0301V30.1876C187.015 29.9536 186.126 29.6071 185.032 29.6071C182.838 29.6071 180.603 30.7846 180.603 32.9821C180.603 34.9921 182.4 36.2866 184.42 36.2866C185.964 36.2866 186.817 35.6071 187.352 34.8166H187.43V35.9761H189.647V30.2221C189.647 27.5626 187.61 26.0746 184.972 26.0746ZM184.695 34.2946C183.944 34.2946 182.898 33.9316 182.898 33.0241C182.898 31.8631 184.203 31.4176 185.332 31.4176C186.343 31.4176 186.817 31.6351 187.43 31.9216C187.25 33.3106 186.024 34.2946 184.695 34.2946ZM197.724 26.4031L195.086 32.9056H195.007L192.28 26.4031H189.804L193.903 35.4901L191.564 40.5466H193.963L200.278 26.4031H197.724ZM177.034 36.0001H179.335V21.0001H177.034V36.0001Z" fill="#FBFBFB"/>
<defs>
<linearGradient id="paint0_linear_195_20139" x1="72.2534" y1="37.5484" x2="52.121" y2="16.8998" gradientUnits="userSpaceOnUse">
<stop stop-color="#00A0FF"/>
<stop offset="0.0066" stop-color="#00A1FF"/>
<stop offset="0.2601" stop-color="#00BEFF"/>
<stop offset="0.5122" stop-color="#00D2FF"/>
<stop offset="0.7604" stop-color="#00DFFF"/>
<stop offset="1" stop-color="#00E3FF"/>
</linearGradient>
<linearGradient id="paint1_linear_195_20139" x1="87.0651" y1="23.9981" x2="57.2843" y2="23.9981" gradientUnits="userSpaceOnUse">
<stop stop-color="#FFE000"/>
<stop offset="0.4087" stop-color="#FFBD00"/>
<stop offset="0.7754" stop-color="#FFA500"/>
<stop offset="1" stop-color="#FF9C00"/>
</linearGradient>
<linearGradient id="paint2_linear_195_20139" x1="75.9789" y1="21.2447" x2="48.6776" y2="-6.75659" gradientUnits="userSpaceOnUse">
<stop stop-color="#FF3A44"/>
<stop offset="1" stop-color="#C31162"/>
</linearGradient>
<linearGradient id="paint3_linear_195_20139" x1="54.4038" y1="47.7886" x2="66.5951" y2="35.2849" gradientUnits="userSpaceOnUse">
<stop stop-color="#32A071"/>
<stop offset="0.0685" stop-color="#2DA771"/>
<stop offset="0.4762" stop-color="#15CF74"/>
<stop offset="0.8009" stop-color="#06E775"/>
<stop offset="1" stop-color="#00F076"/>
</linearGradient>
</defs>
</svg>
