<svg width="26" height="24" viewBox="0 0 26 24" fill="none" xmlns="http://www.w3.org/2000/svg">
<path d="M23.7812 5.10932L8.78125 0.984322C7.5625 0.656197 6.29688 1.35932 5.96875 2.57807L4.98438 6.18745H2.82812C1.5625 6.18745 0.53125 7.2187 0.53125 8.48432V19.4062V20.8593C0.53125 22.1249 1.5625 23.1093 2.78125 23.1093H17.3125C17.9219 23.1093 18.4844 23.1562 19.0469 22.9687C19.6094 22.7812 20.125 22.3124 20.4062 21.7968C20.4062 21.7499 20.5 21.4218 20.5469 21.4218C21.25 21.1874 21.8594 20.5781 22.0469 19.8749L25.3281 7.9687C25.7031 6.70307 25 5.43745 23.7812 5.10932ZM1.46875 8.48432C1.46875 7.73432 2.07812 7.12495 2.82812 7.12495H18.3906C19.1406 7.12495 19.75 7.73432 19.75 8.48432V18.0937L18.8594 16.8749C18.5781 16.4531 18.1094 16.2187 17.5469 16.2187C17.0312 16.2187 16.5625 16.4531 16.2344 16.8749L14.7344 18.8437L9.34375 12.7968C9.0625 12.4687 8.64063 12.2812 8.17188 12.2812C7.75 12.2812 7.28125 12.4687 7 12.7499L1.46875 18.4218V8.48432ZM19.75 19.7343V20.8124C19.75 21.5624 19.1406 22.1718 18.3906 22.1718H17.7812L15.4375 19.5937L17.0312 17.4843C17.1719 17.2968 17.3594 17.2031 17.5937 17.2031C17.8281 17.2031 18.0156 17.2968 18.1562 17.4843L19.75 19.7343ZM2.82812 22.1718C2.07812 22.1718 1.46875 21.5624 1.46875 20.8124V19.7343L7.65625 13.4062C7.79688 13.2656 7.98438 13.2187 8.17188 13.2187C8.35938 13.2187 8.54688 13.3124 8.64063 13.4531L14.2187 19.6406L16.5156 22.2187H2.82812V22.1718ZM24.4844 7.68745L21.2031 19.5937C21.1094 19.8749 20.9219 20.1562 20.6875 20.3437V19.4531V8.48432C20.6875 7.2187 19.6562 6.18745 18.3906 6.18745H5.96875L6.90625 2.81245C7.09375 2.10932 7.84375 1.68745 8.54688 1.87495L23.5469 5.99995C24.25 6.23432 24.6719 6.98432 24.4844 7.68745Z" fill="black"/>
<path d="M14.0313 13.1719C15.1094 13.1719 16 12.2812 16 11.2031C16 10.125 15.1094 9.23438 14.0313 9.23438C12.9531 9.23438 12.0625 10.125 12.0625 11.2031C12.0625 12.2812 12.9531 13.1719 14.0313 13.1719ZM14.0313 10.1719C14.5938 10.1719 15.0625 10.6406 15.0625 11.2031C15.0625 11.7656 14.5938 12.2344 14.0313 12.2344C13.4688 12.2344 13 11.7656 13 11.2031C13 10.6406 13.4688 10.1719 14.0313 10.1719Z" fill="black"/>
</svg>
