<svg width="23" height="23" viewBox="0 0 23 23" fill="none" xmlns="http://www.w3.org/2000/svg">
<path d="M4.97419 23.0001C2.23311 23.0001 0.00292969 20.7699 0.00292969 18.0289C0.00292969 16.705 0.518411 15.4591 1.45377 14.5207C1.60291 14.3708 1.84612 14.3716 1.99526 14.5199C2.14439 14.6691 2.14439 14.9115 1.99602 15.0607C1.20368 15.8545 0.767738 16.9092 0.767738 18.0289C0.767738 20.3485 2.65529 22.2353 4.97419 22.2353C7.29309 22.2353 9.18063 20.3485 9.18063 18.0289C9.18063 15.7092 7.29309 13.8224 4.97419 13.8224C4.38069 13.8224 3.80785 13.9433 3.27096 14.1819C3.07746 14.2668 2.85261 14.1811 2.76618 13.9876C2.68052 13.7949 2.76771 13.5685 2.96045 13.4829C3.59524 13.2006 4.27286 13.0576 4.97419 13.0576C7.71526 13.0576 9.94544 15.2878 9.94544 18.0289C9.94544 20.7699 7.71526 23.0001 4.97419 23.0001Z" fill="black"/>
<path d="M17.98 22.9999C15.239 22.9999 13.0088 20.7697 13.0088 18.0286C13.0088 15.2876 15.239 13.0574 17.98 13.0574C18.9529 13.0574 19.8951 13.3381 20.7051 13.8704C20.881 13.9859 20.9307 14.2229 20.8152 14.3996C20.6989 14.5763 20.4611 14.6245 20.2859 14.5097C19.6007 14.06 18.8037 13.8229 17.9808 13.8229C15.6619 13.8229 13.7744 15.7097 13.7744 18.0294C13.7744 20.3491 15.6619 22.2358 17.9808 22.2358C20.2997 22.2358 22.1873 20.3491 22.1873 18.0294C22.1873 17.7617 22.162 17.494 22.1115 17.2325C22.0718 17.0252 22.2079 16.8248 22.4152 16.7851C22.6194 16.746 22.8221 16.8814 22.8626 17.0887C22.9215 17.3969 22.9513 17.7128 22.9513 18.0286C22.9513 20.7697 20.7211 22.9999 17.98 22.9999Z" fill="black"/>
<path d="M17.98 19.6355C17.8782 19.6355 17.7811 19.5949 17.7092 19.5238L15.6695 17.4841C15.5203 17.3349 15.5203 17.0925 15.6695 16.9433C15.8186 16.7942 16.0611 16.7942 16.2102 16.9433L17.9792 18.7123L21.7872 14.9036C21.9363 14.7545 22.1788 14.7545 22.3279 14.9036C22.477 15.0527 22.477 15.2952 22.3279 15.4443L18.2492 19.5238C18.1788 19.5949 18.0817 19.6355 17.98 19.6355Z" fill="black"/>
<path d="M4.9768 21.4704C3.0793 21.4704 1.53516 19.9263 1.53516 18.0288C1.53516 17.1087 1.89309 16.2445 2.54241 15.5944C2.69155 15.4453 2.93399 15.4453 3.08313 15.5944C3.23227 15.7435 3.23227 15.986 3.08313 16.1351C2.57836 16.6407 2.29996 17.3137 2.29996 18.0288C2.29996 19.5049 3.50071 20.7056 4.9768 20.7056C6.45288 20.7056 7.65363 19.5049 7.65363 18.0288C7.65363 16.5527 6.45288 15.352 4.9768 15.352C4.76494 15.352 4.55309 15.3764 4.34889 15.4254C4.14545 15.4743 3.93742 15.3466 3.88847 15.1416C3.83952 14.9359 3.96648 14.7302 4.17222 14.6812C4.43455 14.6185 4.70452 14.5872 4.9768 14.5872C6.87429 14.5872 8.41843 16.1313 8.41843 18.0288C8.41843 19.9263 6.87429 21.4704 4.9768 21.4704Z" fill="black"/>
<path d="M4.97452 19.9407C3.91985 19.9407 3.0625 19.0826 3.0625 18.0287C3.0625 17.5155 3.26135 17.0352 3.62081 16.6742C3.76995 16.5251 4.01239 16.5251 4.16153 16.6742C4.31067 16.8233 4.31067 17.0658 4.16153 17.2149C3.94585 17.4314 3.82731 17.7197 3.82731 18.0287C3.82731 18.6612 4.34202 19.1759 4.97452 19.1759C5.60702 19.1759 6.12173 18.6612 6.12173 18.0287C6.12173 17.5583 5.84258 17.1407 5.4097 16.9656C5.21391 16.886 5.11984 16.6627 5.20014 16.4669C5.27892 16.2719 5.503 16.1778 5.69803 16.2566C6.42001 16.5503 6.88654 17.2455 6.88654 18.0287C6.88654 19.0833 6.02919 19.9407 4.97452 19.9407Z" fill="black"/>
<path d="M4.97812 18.411C4.88023 18.411 4.78233 18.3736 4.70738 18.2994L0.883338 14.4753C0.7342 14.3262 0.7342 14.0837 0.883338 13.9346C1.03248 13.7855 1.27492 13.7855 1.42406 13.9346L5.2481 17.7587C5.39724 17.9078 5.39724 18.1502 5.2481 18.2994C5.17391 18.3736 5.07602 18.411 4.97812 18.411Z" fill="black"/>
<path d="M18.5689 9.99595H17.3911C17.2122 9.99595 17.0562 9.87128 17.0179 9.69538L16.8305 8.84262C16.5789 8.76613 16.3334 8.66365 16.0948 8.53746L15.356 9.01011C15.2046 9.10647 15.0065 9.08506 14.8795 8.9581L14.0459 8.12369C13.9181 7.99597 13.8975 7.79712 13.9954 7.64569L14.4719 6.91071C14.3434 6.67515 14.2394 6.42964 14.1621 6.17496L13.3094 5.98682C13.1335 5.94858 13.0088 5.79332 13.0088 5.61359V4.43579C13.0088 4.25606 13.1342 4.1008 13.3101 4.06256L14.1659 3.87595C14.2409 3.62203 14.3419 3.37806 14.4703 3.14403L13.9954 2.41057C13.8975 2.25991 13.9181 2.06106 14.0443 1.93333L14.878 1.09204C15.0057 0.963557 15.2068 0.942142 15.3575 1.0408L16.0933 1.51728C16.3319 1.38726 16.5782 1.28478 16.8305 1.21059L17.0179 0.354769C17.0562 0.179628 17.2114 0.0541992 17.3911 0.0541992H18.5682C18.7479 0.0541992 18.9032 0.179628 18.9414 0.354769L19.1288 1.21059C19.3819 1.28478 19.629 1.38726 19.8676 1.51804L20.6033 1.04692C20.7555 0.950555 20.9529 0.971205 21.0798 1.09893L21.9135 1.93257C22.0412 2.06029 22.0618 2.25914 21.9639 2.41057L21.489 3.14403C21.6159 3.375 21.7192 3.61974 21.7972 3.87518L22.65 4.06256C22.8266 4.1008 22.9513 4.25606 22.9513 4.43579V5.61359C22.9513 5.79332 22.8266 5.94858 22.6507 5.98682L21.798 6.17496C21.72 6.42964 21.6167 6.67591 21.4882 6.91071L21.9647 7.64569C22.0626 7.79712 22.0419 7.99597 21.9142 8.12369L21.0806 8.9581C20.9536 9.08506 20.7563 9.10647 20.6041 9.01011L19.8653 8.53746C19.6267 8.66365 19.3812 8.76613 19.1296 8.84262L18.9422 9.69538C18.9032 9.87128 18.7479 9.99595 18.5689 9.99595ZM17.6994 9.23114H18.2607L18.4328 8.45256C18.4642 8.30954 18.5751 8.19712 18.7166 8.1627C19.0492 8.08316 19.372 7.94855 19.6802 7.76347C19.8049 7.68852 19.9609 7.69081 20.0833 7.76882L20.7571 8.19941L21.1548 7.80171L20.7188 7.12868C20.6385 7.00401 20.637 6.84341 20.7158 6.71721C20.9024 6.4197 21.0385 6.09772 21.1188 5.7612C21.1532 5.61895 21.2649 5.50805 21.4087 5.47669L22.1865 5.30614V4.74324L21.4079 4.57192C21.2649 4.54057 21.1525 4.43043 21.1181 4.28741C21.037 3.94707 20.9016 3.62815 20.7173 3.34135C20.637 3.21515 20.637 3.05301 20.7181 2.92682L21.154 2.25379L20.7563 1.85609L20.0833 2.28821C19.9578 2.36775 19.798 2.36851 19.6741 2.28973C19.372 2.10006 19.0523 1.96775 18.725 1.89586C18.5789 1.86374 18.4649 1.75054 18.4328 1.60447L18.2607 0.818243H17.6994L17.5273 1.6037C17.4952 1.74978 17.382 1.86374 17.2351 1.89509C16.907 1.96699 16.5873 2.0993 16.286 2.28897C16.1606 2.36927 15.9992 2.36698 15.8753 2.28591L15.203 1.85073L14.8046 2.25226L15.2413 2.92682C15.3223 3.05301 15.3223 3.21515 15.242 3.34135C15.0554 3.63197 14.9231 3.9486 14.8497 4.2813C14.8176 4.42661 14.7036 4.54057 14.5575 4.57192L13.7736 4.74401V5.30614L14.5522 5.47746C14.696 5.50881 14.8076 5.61971 14.842 5.76197C14.9223 6.09925 15.0585 6.42047 15.2451 6.71798C15.3246 6.84417 15.3231 7.00478 15.242 7.12944L14.8061 7.80247L15.2038 8.20018L15.8776 7.76959C16 7.69158 16.1567 7.68928 16.2806 7.76424C16.5881 7.94932 16.9116 8.08392 17.2443 8.16346C17.3866 8.19788 17.4967 8.31031 17.528 8.45333L17.6994 9.23114Z" fill="black"/>
<path d="M17.9778 7.37265C16.683 7.37265 15.6299 6.31951 15.6299 5.02545C15.6299 3.73063 16.683 2.67749 17.9778 2.67749C19.2727 2.67749 20.3258 3.73063 20.3258 5.02545C20.3258 6.31951 19.2727 7.37265 17.9778 7.37265ZM17.9778 3.44153C17.1044 3.44153 16.3947 4.15204 16.3947 5.02469C16.3947 5.89734 17.1052 6.60708 17.9778 6.60708C18.8505 6.60708 19.561 5.89734 19.561 5.02469C19.561 4.15204 18.8513 3.44153 17.9778 3.44153Z" fill="black"/>
<path d="M6.9187 9.45522C6.8208 9.45522 6.7229 9.41774 6.64795 9.34356C6.49882 9.19442 6.49882 8.95198 6.64795 8.80284L8.54239 6.90917C7.9313 6.22849 7.61926 5.31455 7.65291 4.30959C7.68197 3.35052 7.32481 2.44804 6.64872 1.77119C5.91297 1.03544 4.89731 0.67751 3.86252 0.783054C2.82544 0.890892 1.8962 1.46526 1.31188 2.36009C0.554723 3.5096 0.585315 5.03921 1.3876 6.16654C2.10193 7.18221 3.25144 7.73134 4.46442 7.63574C4.84989 7.60821 5.23841 7.65562 5.61699 7.77723C5.81814 7.84147 5.92903 8.05639 5.86479 8.25753C5.80054 8.45867 5.58563 8.5711 5.38372 8.50533C5.09845 8.41355 4.80629 8.37913 4.52179 8.39825C3.01894 8.51527 1.63234 7.84453 0.762751 6.60784C-0.219264 5.22736 -0.256739 3.35128 0.671738 1.94097C1.38301 0.853417 2.51646 0.154381 3.78298 0.0228342C5.05103 -0.108713 6.28926 0.332582 7.18867 1.23123C8.01696 2.05799 8.4529 3.16008 8.41772 4.33406C8.38866 5.18529 8.66169 5.94704 9.18712 6.47935L9.34773 6.63231C9.42191 6.70344 9.46398 6.80133 9.46551 6.90382C9.46704 7.00707 9.42574 7.10573 9.35385 7.17838L7.18944 9.34279C7.11449 9.41774 7.01659 9.45522 6.9187 9.45522Z" fill="black"/>
<path d="M8.00172 10.22C7.69579 10.22 7.40899 10.1007 7.19179 9.88424L6.6503 9.3504C6.57764 9.27927 6.53711 9.18138 6.53711 9.07966C6.53711 8.97794 6.57764 8.88004 6.64877 8.80815L8.81318 6.64374C8.96232 6.49537 9.20323 6.4946 9.35237 6.64221L9.89538 7.17758C10.3451 7.62729 10.3451 8.35691 9.89768 8.80586L8.81012 9.88577C8.59368 10.1007 8.30688 10.22 8.00172 10.22ZM7.46253 9.0766L7.73174 9.34199C7.87705 9.48883 8.12715 9.48807 8.27093 9.34352L9.35772 8.26437C9.5038 8.11753 9.50457 7.86744 9.35696 7.72059L9.08622 7.45367L7.46253 9.0766Z" fill="black"/>
<path d="M4.2156 5.6716C4.11771 5.6716 4.01981 5.63413 3.94486 5.55994C3.79572 5.4108 3.79572 5.16836 3.94486 5.01922L5.0263 3.93778C5.17544 3.78864 5.41788 3.78864 5.56702 3.93778C5.71616 4.08692 5.71616 4.32936 5.56702 4.4785L4.48558 5.55994C4.41139 5.63413 4.3135 5.6716 4.2156 5.6716Z" fill="black"/>
<path d="M6.92023 7.29396C6.82233 7.29396 6.72444 7.25648 6.64948 7.1823C5.27971 5.81253 4.93784 4.35327 4.92484 4.29209C4.87742 4.08635 5.00668 3.88291 5.21241 3.8355C5.41967 3.78884 5.62235 3.91733 5.67053 4.1223C5.67359 4.1353 5.98487 5.43548 7.19097 6.64081C7.34011 6.78995 7.34011 7.0324 7.19097 7.18153C7.11602 7.25648 7.01812 7.29396 6.92023 7.29396Z" fill="black"/>
<path d="M8.83225 1.1378C8.6594 1.1378 8.50338 1.02079 8.46132 0.846412C8.41084 0.640679 8.53703 0.43418 8.74124 0.383703C10.2678 0.0104762 11.9022 -0.0438252 13.4548 0.224623C13.6628 0.260569 13.8027 0.458654 13.7668 0.666682C13.7301 0.87471 13.5282 1.01161 13.3247 0.977959C11.8739 0.726337 10.3473 0.777579 8.92326 1.12633C8.89267 1.13475 8.86208 1.1378 8.83225 1.1378Z" fill="black"/>
<path d="M0.442695 13.0566C0.249198 13.0566 0.0824698 12.9098 0.0633496 12.7125C0.0228147 12.3171 0.00292969 11.9186 0.00292969 11.5278C0.00292969 10.6016 0.113827 9.68001 0.331797 8.79054C0.38151 8.58633 0.586479 8.46091 0.793742 8.50985C0.998711 8.56033 1.1249 8.76683 1.07366 8.97256C0.870988 9.80315 0.767738 10.6628 0.767738 11.5278C0.767738 11.8934 0.786094 12.2658 0.823569 12.636C0.844984 12.8463 0.692022 13.0337 0.4817 13.0551C0.468698 13.0559 0.456461 13.0566 0.442695 13.0566Z" fill="black"/>
<path d="M11.4773 22.9999C10.8173 22.9999 10.1519 22.9425 9.50029 22.8301C9.29226 22.7941 9.1523 22.5961 9.18825 22.388C9.22496 22.18 9.4261 22.0416 9.63031 22.0767C10.8479 22.2871 12.1068 22.2871 13.3243 22.0767C13.5293 22.0423 13.7297 22.18 13.7664 22.388C13.8023 22.5961 13.6624 22.7941 13.4543 22.8301C12.8027 22.9433 12.1373 22.9999 11.4773 22.9999Z" fill="black"/>
<path d="M22.4025 13.8214C22.3803 13.8214 22.3581 13.8199 22.3359 13.816C22.1279 13.7801 21.9887 13.5812 22.0254 13.3732C22.1309 12.7705 22.1837 12.1495 22.1837 11.5277C22.1837 10.9059 22.1309 10.2849 22.0254 9.68148C21.9887 9.47346 22.1279 9.27537 22.3359 9.23866C22.5394 9.20348 22.742 9.34038 22.778 9.54994C22.8912 10.197 22.9485 10.8623 22.9485 11.5277C22.9485 12.1931 22.8912 12.8585 22.778 13.5048C22.7459 13.6906 22.5845 13.8214 22.4025 13.8214Z" fill="black"/>
</svg>
