<svg width="31" height="30" viewBox="0 0 31 30" fill="none" xmlns="http://www.w3.org/2000/svg">
<g clip-path="url(#clip0_540_13993)">
<path fill-rule="evenodd" clip-rule="evenodd" d="M9.92362 24.4306L9.928 24.4413H14.8305L14.8486 24.4106C14.928 24.2734 15.2405 23.7188 15.1499 23.6291C15.1496 23.6288 15.1489 23.6281 15.1483 23.6275C14.828 23.3053 14.6477 22.8691 14.6477 22.4138V20.3538C14.6477 20.095 14.4377 19.885 14.1789 19.885C13.9202 19.885 13.7102 20.095 13.7102 20.3538V22.4138C13.7102 22.7934 13.7911 23.1644 13.9439 23.5038H10.8149C10.9674 23.1644 11.0486 22.7934 11.0486 22.4138C11.0486 22.2356 11.0486 22.0525 11.0486 21.8669C11.0486 21.6081 10.8386 21.3981 10.5799 21.3981C10.3211 21.3981 10.1111 21.6081 10.1111 21.8669V22.4138C10.1111 22.8703 9.92987 23.3078 9.60737 23.6306L9.59893 23.6388L9.59925 23.6394C9.47143 23.7731 9.43425 23.9703 9.5055 24.1419C9.57612 24.3125 9.74018 24.4253 9.92362 24.4306Z" fill="black"/>
<path fill-rule="evenodd" clip-rule="evenodd" d="M24.1028 12.9632V6.69409C24.1028 6.23815 23.9216 5.80097 23.5994 5.47878C23.2769 5.15628 22.8397 4.97534 22.3841 4.97534C18.4444 4.97534 6.31469 4.97534 2.375 4.97534C1.91906 4.97534 1.48187 5.15628 1.15969 5.47878C0.837188 5.80097 0.65625 6.23815 0.65625 6.69409V19.1038C0.65625 19.5597 0.837188 19.9969 1.15969 20.3191C1.48187 20.6416 1.91906 20.8225 2.375 20.8225H15.8816C16.1403 20.8225 16.3503 20.6125 16.3503 20.3538C16.3503 20.095 16.1403 19.885 15.8816 19.885H2.375C2.16781 19.885 1.96906 19.8028 1.8225 19.6563C1.67594 19.5097 1.59375 19.311 1.59375 19.1038V6.69409C1.59375 6.4869 1.67594 6.28815 1.8225 6.14159C1.96906 5.99503 2.16781 5.91284 2.375 5.91284H22.3841C22.5912 5.91284 22.79 5.99503 22.9366 6.14159C23.0828 6.28815 23.1653 6.4869 23.1653 6.69409V12.9632C23.1653 13.2219 23.3753 13.4319 23.6341 13.4319C23.8928 13.4319 24.1028 13.2219 24.1028 12.9632Z" fill="black"/>
<path fill-rule="evenodd" clip-rule="evenodd" d="M23.9919 24.8585C25.7475 22.7806 27.4894 21.8819 29.245 21.8422C29.5385 21.8416 29.8131 21.7278 30.016 21.526C30.2213 21.3219 30.3366 21.0447 30.3366 20.7553C30.3435 19.0453 30.3435 14.3678 30.3435 12.7031C30.3438 12.1019 29.8581 11.6131 29.2566 11.6094C29.2519 11.6091 29.2475 11.6094 29.2428 11.6094C27.2581 11.6553 25.2603 12.6163 23.2756 14.9653C23.1088 15.1631 23.1335 15.4591 23.3313 15.626C23.5288 15.7928 23.8247 15.7681 23.9919 15.5703C25.7497 13.4897 27.4947 12.5913 29.2525 12.5469C29.3394 12.55 29.406 12.6188 29.406 12.7031C29.406 14.3672 29.406 19.0422 29.3991 20.7535V20.7553C29.3991 20.795 29.3831 20.8331 29.355 20.8613C29.3269 20.8891 29.2888 20.9047 29.2488 20.9047C29.2447 20.9047 29.241 20.9047 29.2369 20.9047C27.2541 20.9453 25.2581 21.9069 23.2756 24.2535C23.1088 24.4513 23.1335 24.7472 23.3313 24.9141C23.5288 25.081 23.8247 25.0563 23.9919 24.8585Z" fill="black"/>
<path fill-rule="evenodd" clip-rule="evenodd" d="M17.8616 14.7081L17.8613 12.7031C17.8613 12.62 17.9263 12.5519 18.0082 12.5469C19.7341 12.5894 21.4432 13.451 23.1648 15.441C23.1651 15.441 23.1651 23.3547 23.1651 23.3547C21.4551 21.6575 19.7379 20.9397 18.0307 20.9047C18.0266 20.9047 18.0226 20.9047 18.0185 20.9047C17.9788 20.9047 17.9407 20.8891 17.9126 20.8613C17.8845 20.8331 17.8685 20.795 17.8685 20.7553C17.8685 20.7547 17.8685 20.7541 17.8685 20.7535C17.8648 19.8685 17.8632 18.1903 17.8623 16.5463C17.8623 16.2875 17.652 16.0775 17.3932 16.0775C17.1345 16.0778 16.9248 16.2878 16.9248 16.5466C16.9257 18.1922 16.9273 19.8716 16.931 20.7572C16.931 21.0447 17.0463 21.3219 17.2513 21.526C17.456 21.7294 17.7335 21.8435 18.0223 21.8422C19.7732 21.8794 21.5176 22.7778 23.2757 24.8585C23.4026 25.0088 23.6101 25.0638 23.7948 24.9963C23.9795 24.9288 24.1026 24.7528 24.1026 24.556V15.2678C24.1026 15.1572 24.0632 15.05 23.992 14.9653C22.0073 12.6163 20.0091 11.6553 18.0248 11.6094C18.0201 11.6094 18.0154 11.6091 18.0107 11.6094C17.4095 11.6131 16.9238 12.1019 16.9238 12.7031C16.9238 13.175 16.9238 13.8888 16.9241 14.7085C16.9241 14.9672 17.1341 15.1772 17.3929 15.1769C17.6516 15.1769 17.8616 14.9669 17.8616 14.7081Z" fill="black"/>
<path fill-rule="evenodd" clip-rule="evenodd" d="M18.931 14.896C19.8392 15.0751 20.7457 15.5007 21.6538 16.2176C21.857 16.3779 22.152 16.3432 22.3123 16.1401C22.4726 15.937 22.4379 15.642 22.2348 15.4816C21.1945 14.6607 20.1523 14.181 19.112 13.9763C18.8582 13.9263 18.6117 14.0916 18.5617 14.3454C18.5117 14.5994 18.677 14.846 18.931 14.896Z" fill="black"/>
<path fill-rule="evenodd" clip-rule="evenodd" d="M28.2102 13.9763C27.1699 14.181 26.1277 14.6607 25.0874 15.4816C24.8845 15.642 24.8495 15.937 25.0099 16.1401C25.1702 16.3432 25.4652 16.3779 25.6683 16.2176C26.5767 15.5007 27.483 15.0751 28.3914 14.896C28.6452 14.846 28.8105 14.5994 28.7605 14.3454C28.7105 14.0916 28.4639 13.9263 28.2102 13.9763Z" fill="black"/>
<path fill-rule="evenodd" clip-rule="evenodd" d="M18.931 17.0062C19.8392 17.1853 20.7457 17.6109 21.6538 18.3278C21.857 18.4881 22.152 18.4534 22.3123 18.2503C22.4726 18.0472 22.4379 17.7522 22.2348 17.5919C21.1945 16.7709 20.1523 16.2916 19.112 16.0866C18.8582 16.0366 18.6117 16.2019 18.5617 16.4559C18.5117 16.7097 18.677 16.9562 18.931 17.0062Z" fill="black"/>
<path fill-rule="evenodd" clip-rule="evenodd" d="M28.2102 16.0866C27.1699 16.2916 26.1277 16.7709 25.0874 17.5919C24.8845 17.7522 24.8495 18.0472 25.0099 18.2503C25.1702 18.4534 25.4652 18.4881 25.6683 18.3278C26.5767 17.6109 27.483 17.1853 28.3914 17.0062C28.6452 16.9562 28.8105 16.7097 28.7605 16.4559C28.7105 16.2019 28.4639 16.0366 28.2102 16.0866Z" fill="black"/>
<path fill-rule="evenodd" clip-rule="evenodd" d="M18.931 19.1166C19.8392 19.2957 20.7457 19.7216 21.6538 20.4385C21.857 20.5985 22.152 20.5638 22.3123 20.3607C22.4726 20.1578 22.4379 19.8628 22.2348 19.7025C21.1945 18.8813 20.1523 18.4019 19.112 18.1969C18.8582 18.1469 18.6117 18.3122 18.5617 18.5663C18.5117 18.82 18.677 19.0666 18.931 19.1166Z" fill="black"/>
<path fill-rule="evenodd" clip-rule="evenodd" d="M28.2102 18.1969C27.1699 18.4019 26.1277 18.8813 25.0874 19.7025C24.8845 19.8628 24.8495 20.1578 25.0099 20.3607C25.1702 20.5638 25.4652 20.5985 25.6683 20.4385C26.5767 19.7216 27.483 19.2957 28.3914 19.1166C28.6452 19.0666 28.8105 18.82 28.7605 18.5663C28.7105 18.3122 28.4639 18.1469 28.2102 18.1969Z" fill="black"/>
<path fill-rule="evenodd" clip-rule="evenodd" d="M10.1468 7.3844C8.67836 7.3844 5.02117 7.3844 3.55273 7.3844C2.94867 7.3844 2.45898 7.87409 2.45898 8.47815V14.0832C2.45898 14.6872 2.94867 15.1769 3.55242 15.1769H6.32242C6.58117 15.1769 6.79117 14.9669 6.79117 14.7082C6.79117 14.4497 6.58117 14.2394 6.32242 14.2394H3.55273C3.46617 14.2394 3.39648 14.1697 3.39648 14.0832V8.47815C3.39648 8.3919 3.46617 8.3219 3.55242 8.3219H10.1468C10.4055 8.3219 10.6155 8.1119 10.6155 7.85315C10.6155 7.5944 10.4055 7.3844 10.1468 7.3844Z" fill="black"/>
<path fill-rule="evenodd" clip-rule="evenodd" d="M13.9705 15.025C13.9705 13.8038 12.9808 12.8141 11.7598 12.8141C11.1286 12.8141 10.4161 12.8141 9.78484 12.8141C8.56391 12.8141 7.57422 13.8038 7.57422 15.025V16.9922C7.57422 17.2825 7.68922 17.5606 7.89453 17.7656C8.09953 17.971 8.37766 18.086 8.66797 18.086H12.8767C13.167 18.086 13.4452 17.971 13.6502 17.7656C13.8555 17.5606 13.9705 17.2825 13.9705 16.9922C13.9705 16.51 13.9705 15.7963 13.9705 15.025ZM13.033 15.025V16.9922C13.033 17.0338 13.0167 17.0735 12.9873 17.1028C12.958 17.1322 12.9183 17.1485 12.8767 17.1485H8.66797C8.62641 17.1485 8.58672 17.1322 8.55734 17.1028C8.52797 17.0735 8.51172 17.0338 8.51172 16.9922V15.025C8.51172 14.3216 9.08172 13.7516 9.78484 13.7516H11.7598C12.463 13.7516 13.033 14.3216 13.033 15.025Z" fill="black"/>
<path fill-rule="evenodd" clip-rule="evenodd" d="M10.8793 8.87781C9.88902 8.87781 9.08496 9.68156 9.08496 10.6719C9.08496 11.6622 9.88902 12.4662 10.8793 12.4662C11.8696 12.4662 12.6737 11.6622 12.6737 10.6719C12.6737 9.68156 11.8696 8.87781 10.8793 8.87781ZM10.8793 9.81531C11.3521 9.81531 11.7362 10.1991 11.7362 10.6719C11.7362 11.145 11.3521 11.5287 10.8793 11.5287C10.4065 11.5287 10.0225 11.145 10.0225 10.6719C10.0225 10.1991 10.4065 9.81531 10.8793 9.81531Z" fill="black"/>
</g>
<defs>
<clipPath id="clip0_540_13993">
<rect width="30" height="30" fill="white" transform="translate(0.5)"/>
</clipPath>
</defs>
</svg>
