<svg width="30" height="22" viewBox="0 0 30 22" fill="none" xmlns="http://www.w3.org/2000/svg">
<path d="M29.2475 10.2992C29.5308 10.022 29.7071 9.6357 29.7071 9.20891C29.7071 8.4882 29.2049 7.88305 28.5321 7.72379V4.84273L28.827 4.76369C29.1891 4.66672 29.4324 4.34973 29.4324 3.97496C29.4324 3.6002 29.1891 3.28314 28.827 3.18617L18.5493 0.432266C18.0973 0.311152 17.6761 0.311152 17.224 0.432266L6.94632 3.18617C6.58427 3.2832 6.34104 3.60014 6.34104 3.97496C6.34104 4.34979 6.58427 4.66672 6.94632 4.76369L10.6656 5.76025V8.21158C10.6159 8.2202 10.566 8.23057 10.5154 8.24416C10.4551 8.26033 10.3973 8.27932 10.3417 8.30088L5.27347 4.53271C5.21206 4.47781 5.14579 4.42883 5.07378 4.38723C4.54614 4.08242 3.83991 4.20441 3.08558 4.73059C2.40812 5.20315 1.74765 5.96117 1.22581 6.86504C0.704033 7.76891 0.377783 8.71988 0.307236 9.54289C0.228721 10.4592 0.476103 11.1317 1.00392 11.4363C1.07628 11.4781 1.15204 11.5118 1.23079 11.5376L7.13417 14.089C7.13487 14.0917 7.1354 14.0944 7.1361 14.0971C7.17401 14.2387 7.22745 14.3668 7.29565 14.4828L4.98847 16.0822C4.87374 16.1617 4.81696 16.3015 4.84368 16.4385C4.8704 16.5755 4.97563 16.6837 5.11175 16.7142L6.37274 16.997L6.3213 18.2883C6.31573 18.4278 6.39319 18.5573 6.51864 18.6184C6.56757 18.6422 6.62019 18.6539 6.67251 18.6539C6.75431 18.6539 6.83528 18.6254 6.90015 18.5703L9.03952 16.7531C9.1321 16.8456 9.23933 16.9276 9.36267 16.9989C9.48964 17.0722 9.61802 17.125 9.74821 17.1588L9.24776 19.9213C9.22292 20.0585 9.28157 20.1976 9.39735 20.2755C9.51325 20.3535 9.66419 20.3556 9.78185 20.2809L10.8735 19.5892L11.7502 20.5387C11.818 20.6121 11.9122 20.6518 12.0086 20.6518C12.0469 20.6518 12.0856 20.6455 12.1231 20.6326C12.2551 20.5871 12.3476 20.4678 12.3589 20.3288L12.5867 17.5316C12.7176 17.5316 12.8515 17.5131 12.989 17.4763C12.9917 17.4755 12.9943 17.4746 12.997 17.4739L18.3251 21.4348C18.3361 21.4429 18.3474 21.4504 18.3592 21.4572C18.5958 21.5936 18.8596 21.6586 19.1393 21.6586C20.2209 21.6586 21.5407 20.6871 22.4471 19.1172C22.9724 18.2072 23.2741 17.2344 23.2966 16.378C23.321 15.4443 23.013 14.7444 22.4292 14.4074C22.4175 14.4007 22.4053 14.3945 22.3929 14.3891L18.3983 12.663C20.7593 12.5812 23.0102 11.9334 24.9371 10.7769C25.0429 10.7134 25.1077 10.5989 25.1077 10.4754V5.7602L27.8288 5.03105V7.72367C27.1562 7.88293 26.654 8.48815 26.654 9.20879C26.654 9.66389 26.8544 10.0728 27.1714 10.3527L26.9974 10.7265C26.8194 11.1089 26.7366 11.4833 26.7366 11.9049V13.748C26.7366 14.2945 27.1811 14.739 27.7276 14.739H28.7159C29.2623 14.739 29.7069 14.2945 29.7069 13.748V11.9049C29.7069 11.4832 29.624 11.1087 29.4461 10.7265L29.2473 10.2991L29.2475 10.2992ZM7.04417 3.97496C7.04417 3.92041 7.07558 3.87945 7.12831 3.86533L17.4059 1.11143C17.5722 1.06689 17.7294 1.04463 17.8867 1.04463C18.044 1.04463 18.2012 1.06689 18.3674 1.11143L28.6451 3.86533C28.6978 3.87945 28.7293 3.92041 28.7293 3.97496C28.7293 4.02951 28.6978 4.07041 28.6451 4.08459L28.15 4.21725L18.2453 3.32188C18.0517 3.30424 17.881 3.44697 17.8635 3.64039C17.846 3.83375 17.9886 4.00467 18.182 4.02219L26.1799 4.74518L18.3674 6.83856C18.035 6.92768 17.7385 6.92768 17.4059 6.83856L7.12831 4.08465C7.07563 4.07053 7.04417 4.02957 7.04417 3.97502V3.97496ZM7.57468 11.8895C7.70511 12.174 7.66538 12.4756 7.46575 12.7167C7.3031 12.9133 7.19294 13.1145 7.13341 13.3227L2.5672 11.3492C2.70653 11.2785 2.84845 11.1932 2.99218 11.093C3.66964 10.6204 4.33017 9.8624 4.852 8.95854C5.37378 8.05473 5.70009 7.10369 5.77058 6.28068C5.78552 6.10648 5.78851 5.94125 5.78019 5.78551L9.74933 8.73652C9.64239 8.87229 9.55427 9.03277 9.48478 9.21975C9.37573 9.51318 9.13444 9.69828 8.82278 9.72764C8.26755 9.78002 7.87198 10.0231 7.61352 10.4707C7.35513 10.9184 7.34241 11.3824 7.57468 11.8894V11.8895ZM4.43569 4.92629C4.53981 4.92629 4.63228 4.94803 4.71108 4.9908L4.82259 5.07371C5.02644 5.27527 5.11614 5.68238 5.07003 6.2208C5.0081 6.9432 4.71448 7.79065 4.2431 8.60709C3.31339 10.2174 2.09048 11.0483 1.47173 10.8759L1.34745 10.8222C1.22036 10.7452 1.12544 10.6055 1.06579 10.4158C1.1722 10.4596 1.28692 10.4815 1.40827 10.4815C1.72749 10.4815 2.09288 10.3309 2.47526 10.0361C2.9654 9.65815 3.45448 9.07057 3.85228 8.38151C4.60726 7.07381 4.95636 5.51211 4.22194 4.95254C4.29735 4.93537 4.36896 4.92641 4.43575 4.92641L4.43569 4.92629ZM3.24325 8.02983C2.89028 8.64125 2.46501 9.15594 2.04583 9.47914C1.68771 9.75529 1.42134 9.81781 1.31634 9.75711C1.21134 9.69647 1.13224 9.43467 1.19235 8.98637C1.26267 8.46178 1.49581 7.83617 1.84878 7.22475C2.55911 5.99445 3.34831 5.47531 3.67778 5.47531C3.71739 5.47531 3.75032 5.48281 3.77569 5.49746C4.0123 5.63416 4.03884 6.65188 3.24325 8.02988V8.02983ZM7.05583 17.5157L7.087 16.7322C7.09374 16.5625 6.97837 16.4123 6.81267 16.3752L6.04755 16.2035L7.80659 14.9841C7.89946 15.0384 8.00077 15.0866 8.11181 15.1278C8.40519 15.2368 8.59028 15.4781 8.61964 15.7897C8.63118 15.9122 8.65257 16.0265 8.68286 16.1336L7.05583 17.5157ZM11.7232 19.473L11.1913 18.8969C11.0762 18.7722 10.8883 18.7476 10.7449 18.8384L10.0825 19.2581L10.4641 17.1519C10.5682 17.1247 10.6738 17.0871 10.7815 17.0378C11.066 16.9074 11.3676 16.947 11.6087 17.1467C11.7034 17.2251 11.7994 17.2899 11.8965 17.3443L11.7232 19.473L11.7232 19.473ZM12.057 16.6051C11.7801 16.3759 11.4521 16.2585 11.1168 16.2585C10.9066 16.2585 10.6935 16.3047 10.4886 16.3986C10.1877 16.5364 9.96343 16.534 9.71423 16.39C9.46503 16.2461 9.35071 16.0531 9.31972 15.7238C9.26481 15.1415 8.90487 14.6724 8.35667 14.4688C8.04659 14.3535 7.88968 14.1932 7.81526 13.9152C7.74079 13.6373 7.79646 13.4199 8.00733 13.165C8.38023 12.7146 8.45739 12.1282 8.21382 11.5966C8.07595 11.2958 8.07847 11.0715 8.22237 10.8223C8.36628 10.5731 8.55929 10.4588 8.88864 10.4277C9.47089 10.3729 9.93999 10.0129 10.1437 9.46467C10.2589 9.15459 10.4193 8.99774 10.6973 8.92326C10.9752 8.84873 11.1925 8.90445 11.4474 9.11539C11.8978 9.48822 12.4841 9.56545 13.0158 9.32188C13.3166 9.18406 13.5408 9.18641 13.7901 9.33043C14.0394 9.47434 14.1537 9.66735 14.1847 9.99676C14.2396 10.5789 14.5996 11.0481 15.1478 11.2518C15.4579 11.367 15.6147 11.5273 15.6891 11.8053C15.7636 12.0832 15.708 12.3006 15.4971 12.5555C15.1242 13.006 15.047 13.5922 15.2906 14.1239C15.4284 14.4247 15.4259 14.649 15.282 14.8982C15.1381 15.1474 14.9451 15.2618 14.6157 15.2928C14.0335 15.3477 13.5644 15.7077 13.3607 16.2559C13.2455 16.5659 13.0851 16.7228 12.8072 16.7972C12.5292 16.8717 12.312 16.8161 12.057 16.6051V16.6051ZM22.5938 16.3596C22.5744 17.101 22.3061 17.9554 21.8382 18.7657C20.8391 20.4963 19.4298 21.2388 18.7266 20.8572L13.6612 17.0915C13.8117 16.9358 13.9309 16.7398 14.0198 16.5006C14.1288 16.2072 14.3701 16.0221 14.6817 15.9927C15.237 15.9403 15.6325 15.6973 15.891 15.2496C16.1494 14.802 16.1621 14.3379 15.9299 13.831C15.7994 13.5464 15.8391 13.2448 16.0388 13.0037C16.1659 12.85 16.2608 12.6935 16.3249 12.533L22.0936 15.0257C22.4286 15.2306 22.6107 15.7153 22.5938 16.3596V16.3596ZM24.4047 10.2746C22.485 11.3838 20.236 11.9691 17.8867 11.9691C17.4799 11.9691 17.0701 11.9506 16.6676 11.9152L16.4061 11.8021C16.397 11.7432 16.3845 11.6836 16.3684 11.6233C16.2345 11.124 15.9154 10.7868 15.3927 10.5927C15.0992 10.4837 14.9141 10.2424 14.8848 9.93078C14.8324 9.37549 14.5894 8.97998 14.1417 8.72147C13.694 8.46307 13.23 8.45029 12.723 8.68268C12.4384 8.81305 12.1369 8.77332 11.8957 8.57369C11.7241 8.43166 11.5489 8.32988 11.3686 8.26654V5.94863L17.224 7.51754C17.45 7.57813 17.6683 7.60842 17.8867 7.60842C18.1051 7.60842 18.3233 7.57813 18.5494 7.51754L24.4048 5.94857V10.2745L24.4047 10.2746ZM28.1805 8.38561C28.6345 8.38561 29.0039 8.75492 29.0039 9.20891C29.0039 9.66289 28.6345 10.0322 28.1805 10.0322C27.7265 10.0322 27.3572 9.66289 27.3572 9.20891C27.3572 8.75492 27.7265 8.38561 28.1805 8.38561ZM29.0039 13.7482C29.0039 13.907 28.8748 14.0361 28.7161 14.0361H27.7277C27.569 14.0361 27.4398 13.907 27.4398 13.7482V11.9051C27.4398 11.5853 27.5 11.3134 27.6349 11.0234L27.7923 10.6852C27.9164 10.7178 28.0464 10.7354 28.1805 10.7354C28.3412 10.7354 28.496 10.7103 28.6415 10.6641L28.8088 11.0234C28.9437 11.3133 29.0039 11.5852 29.0039 11.9052V13.7483V13.7482ZM13.9027 14.1019C14.5874 12.9161 14.1796 11.3944 12.9938 10.7097C12.4193 10.378 11.75 10.2899 11.1095 10.4616C10.4687 10.6333 9.93325 11.0442 9.60161 11.6187C8.917 12.8045 9.32476 14.3262 10.5106 15.0109C10.8932 15.2318 11.3179 15.3446 11.7482 15.3446C11.9639 15.3446 12.181 15.3163 12.3949 15.2589C13.0356 15.0872 13.571 14.6763 13.9027 14.1019ZM13.2938 13.7503C13.056 14.1621 12.6722 14.4567 12.2129 14.5798C11.7534 14.7029 11.2738 14.6397 10.8621 14.4019C10.4503 14.1641 10.1557 13.7803 10.0327 13.321C9.90958 12.8618 9.9728 12.3821 10.2105 11.9703C10.4483 11.5585 10.8321 11.2638 11.2914 11.1408C11.4447 11.0997 11.6004 11.0794 11.755 11.0794C12.0635 11.0794 12.3679 11.1603 12.6422 11.3186C13.4923 11.8094 13.7846 12.9003 13.2938 13.7503Z" fill="black"/>
</svg>
