<svg width="40" height="40" viewBox="0 0 40 40" fill="none" xmlns="http://www.w3.org/2000/svg">
<path d="M15.9753 12.936C15.5114 12.9466 15.1036 12.5202 15.1385 12.0548L15.327 8.41633L13.0672 5.67144C12.8873 5.45283 12.8299 5.1582 12.9147 4.88802C12.9995 4.61785 13.2149 4.40884 13.4875 4.33221L16.9722 3.35311L18.9344 0.376664C19.0895 0.141525 19.3522 0 19.6339 0C19.9156 0 20.1784 0.141525 20.3335 0.37674L22.2957 3.35319L25.7804 4.33228C26.053 4.40884 26.2685 4.61792 26.3532 4.8881C26.438 5.15828 26.3806 5.45291 26.2007 5.67152L23.9408 8.4164L24.1294 12.0548C24.1441 12.3399 24.0128 12.6128 23.7809 12.7792C23.5491 12.9454 23.2485 12.9823 22.9831 12.8769L19.6339 11.5455L16.2847 12.8767C16.1848 12.9165 16.0797 12.936 15.9753 12.936ZM15.1774 5.59809L16.8275 7.60237C16.9605 7.76393 17.0282 7.96936 17.0174 8.17829L16.8796 10.837L19.3244 9.86525C19.5232 9.78626 19.7447 9.78626 19.9434 9.86525L22.3882 10.837L22.2504 8.17829C22.2396 7.96936 22.3073 7.76393 22.4403 7.60237L24.0904 5.59816L21.5415 4.88201C21.3474 4.82747 21.1795 4.70483 21.0685 4.53657L19.6339 2.36015L18.1992 4.53642C18.0883 4.70476 17.9204 4.82739 17.7264 4.88186L15.1774 5.59809Z" fill="white"/>
<path d="M19.5703 24.7382C16.827 24.7382 14.5952 22.5064 14.5952 19.7631C14.8685 13.163 24.2732 13.1649 24.5454 19.7631C24.5454 22.5065 22.3136 24.7382 19.5703 24.7382ZM19.5703 16.4638C17.751 16.4638 16.271 17.9439 16.271 19.7632C16.4522 24.1402 22.6891 24.1389 22.8696 19.7632C22.8696 17.9439 21.3896 16.4638 19.5703 16.4638Z" fill="white"/>
<path d="M27.2427 39H11.8928C11.43 39 11.0549 38.6249 11.0549 38.1622V30.9006C7.53999 28.2248 5.45459 24.0365 5.45459 19.6093V17.2733C5.45459 15.4743 6.91768 14.0109 8.71599 14.0109C10.5149 14.0109 11.9784 15.4744 11.9784 17.2733V19.6535C11.9784 23.8758 15.4139 27.3108 19.6367 27.3108C23.8589 27.3108 27.2939 23.8757 27.2939 19.6535V17.2733C27.2939 15.4743 28.757 14.0109 30.5553 14.0109C32.3547 14.0109 33.8177 15.4744 33.8177 17.2733V19.4653C33.8177 23.9951 31.6812 28.2619 28.0806 30.9678V38.1622C28.0806 38.6249 27.7054 39 27.2427 39ZM12.7306 37.3243H26.4048V30.5413C26.4048 30.2688 26.5373 30.0133 26.7601 29.8563C30.1301 27.4823 32.142 23.5977 32.142 19.4652V17.2732C32.142 16.3983 31.4307 15.6865 30.5564 15.6865C29.6811 15.6865 28.9697 16.3983 28.9697 17.2732V19.6534C28.9697 24.7997 24.7829 28.9865 19.6367 28.9865C14.4899 28.9865 10.3026 24.7997 10.3026 19.6534V17.2732C10.3026 16.3983 9.59089 15.6865 8.71599 15.6865C7.84163 15.6865 7.13034 16.3983 7.13034 17.2732V19.6093C7.13034 23.6417 9.09265 27.4496 12.3795 29.7954C12.5999 29.9527 12.7306 30.2067 12.7306 30.4774V37.3243Z" fill="white"/>
<path d="M11.3814 11.1186C11.167 11.1186 10.9525 11.0368 10.7889 10.8732L6.34377 6.428C5.58983 5.61297 6.71007 4.4877 7.52875 5.24309L11.9738 9.68818C12.5017 10.2125 12.1174 11.1233 11.3814 11.1186Z" fill="white"/>
<path d="M28.1686 11.1191C27.4336 11.1234 27.0474 10.2146 27.5761 9.68881L32.0212 5.24371C32.3485 4.91648 32.8789 4.91648 33.2062 5.24371C33.5334 5.57094 33.5334 6.10139 33.2062 6.42862L28.7611 10.8737C28.5974 11.0373 28.3831 11.1191 28.1686 11.1191Z" fill="white"/>
</svg>
