<svg width="40" height="40" viewBox="0 0 40 40" fill="none" xmlns="http://www.w3.org/2000/svg">
<path d="M38.5251 15.4937C38.3876 15.375 38.2001 15.325 38.0189 15.3563C37.5751 15.4313 37.1251 15.5187 36.6626 15.6125V13.125C36.6626 12.95 36.5876 12.7813 36.4564 12.6625C36.3251 12.5438 36.1563 12.4875 35.9751 12.5C33.0939 12.7813 30.3314 13.5437 27.7626 14.775C25.9564 15.6437 24.2938 16.7188 22.8126 17.9937C21.3314 16.7188 19.6688 15.6437 17.8626 14.775C16.7376 14.2375 15.5751 13.7875 14.3814 13.4375C14.5563 13.7938 14.6688 14.1875 14.6876 14.6062C15.1501 14.8187 15.6501 15.0813 16.1814 15.3938C16.5689 15.55 16.9501 15.7187 17.3251 15.9C19.1001 16.7563 20.7376 17.8312 22.1876 19.1V22.475C22.2501 22.6625 22.3064 22.8563 22.3564 23.05C22.5501 23.8062 22.6751 24.5688 22.7188 25.3125C22.7376 25.5625 22.7439 25.825 22.7439 26.0812C22.7439 26.2125 22.7439 26.3375 22.7376 26.4625L22.7501 26.475C22.7876 26.5187 22.8314 26.5688 22.8751 26.6187C23.1001 26.8875 23.2939 27.2 23.4376 27.5312V19.1C24.8876 17.8312 26.5251 16.7563 28.3001 15.9C30.5313 14.8312 32.9188 14.1312 35.4126 13.825V16.375V30.95C35.1751 30.9937 34.9438 31.0375 34.7064 31.0938C34.4939 31.1375 34.2876 31.1813 34.0814 31.225C33.5876 31.3313 33.1001 31.4562 32.6126 31.5937C32.3813 31.6625 32.1501 31.725 31.9251 31.7938C31.8001 31.825 31.6814 31.8625 31.5563 31.9C31.2876 31.9875 31.0126 32.075 30.7064 32.1812C30.6563 32.2 30.6126 32.2125 30.5688 32.2313C30.3376 32.3063 30.1189 32.3875 29.9001 32.4688C29.6501 32.5625 29.4001 32.6625 29.1564 32.7625C29.1501 32.7625 29.1439 32.7625 29.1376 32.7687C28.8938 32.8687 28.6563 32.9688 28.4188 33.075C28.3626 33.1 28.3063 33.125 28.2501 33.15C28.0626 33.2312 27.8813 33.3188 27.6938 33.4063C27.6189 33.4375 27.5501 33.475 27.4813 33.5062C27.1501 33.6625 26.8251 33.825 26.5001 33.9938C26.3314 34.0812 26.1563 34.175 25.9814 34.275C25.8501 34.3438 25.7126 34.4188 25.5751 34.5C25.3438 34.625 25.1189 34.7625 24.8939 34.8937C24.6688 35.025 24.4376 35.1687 24.2063 35.3125L23.8563 35.55H23.8501L23.4376 34.7937V33.1125C23.1689 33.7375 22.7376 34.275 22.1876 34.6687V34.7937L21.7751 35.55L21.4126 35.3125C21.3439 35.2687 21.2751 35.225 21.2001 35.1812H21.1938C20.8126 35.3188 20.4064 35.3875 19.9813 35.3875H19.0751H16.3376H11.2876C12.0688 35.525 12.8438 35.6875 13.6064 35.8812C16.1188 36.5187 18.5314 37.4562 20.7751 38.675C20.7813 38.6813 20.7939 38.6813 20.8001 38.6813C20.8376 38.6937 20.8751 38.7062 20.9126 38.725C20.9626 38.7437 21.0189 38.75 21.0689 38.75C21.0813 38.75 21.1001 38.75 21.1126 38.7437H24.5001C24.5188 38.75 24.5376 38.75 24.5563 38.75C24.6063 38.75 24.6626 38.7437 24.7126 38.725C24.7563 38.7188 24.8064 38.7 24.8501 38.675C27.1001 37.4562 29.5064 36.5187 32.0126 35.8812C34.0063 35.375 36.0751 35.0625 38.1563 34.95C38.4876 34.9313 38.7501 34.6563 38.7501 34.325V15.975C38.7501 15.7875 38.6688 15.6125 38.5251 15.4937Z" fill="white"/>
<path d="M21.25 31.6187V29.0313C21.25 28.95 21.2437 28.8688 21.225 28.7875C21.225 28.7812 21.225 28.7812 21.225 28.775C21.2125 28.7125 21.1937 28.6562 21.175 28.6C21.125 28.4625 21.05 28.3312 20.9563 28.225C20.9375 28.1937 20.9125 28.175 20.8937 28.15L20.875 28.1313C20.8375 28.0875 20.7938 28.05 20.7438 28.0187C20.6875 27.9688 20.6187 27.9313 20.55 27.8938C20.4875 27.8625 20.425 27.8375 20.3563 27.8125C20.35 27.8125 20.3437 27.8062 20.3313 27.8062C20.2625 27.7875 20.1875 27.775 20.1125 27.7625C20.1062 27.7625 20.1 27.7625 20.1 27.7625C20.0938 27.7625 20.0938 27.7625 20.0938 27.7625C20.1562 27.4187 20.1937 27.0812 20.2187 26.7437C20.2187 26.7125 20.225 26.6875 20.225 26.6562C20.2375 26.4625 20.2438 26.275 20.2438 26.0812C20.2438 25.875 20.2375 25.6688 20.225 25.4688C20.1875 24.8625 20.0875 24.2687 19.9375 23.6937C18.65 18.8625 13.8063 16.8375 12.2 16.2875V14.8063C12.2 14.4625 11.9188 14.1813 11.575 14.1813C11.225 14.1813 10.95 14.4625 10.95 14.8063V16.2938C10.9375 16.2938 10.9312 16.3 10.9187 16.3C10.8375 16.3313 10.75 16.3625 10.6562 16.3937C10.5625 16.4312 10.4625 16.4687 10.3563 16.5062C10.35 16.5062 10.35 16.5062 10.35 16.5062V8.41248C10.475 7.8875 10.5563 7.1125 10.325 6.23749C9.77501 4.18751 7.91248 3.25001 7.02499 2.90623V1.875C7.02499 1.53126 6.74374 1.25 6.39999 1.25C6.05625 1.25 5.77499 1.53126 5.77499 1.875V2.90623C5.32501 3.07499 4.63749 3.4 3.99376 3.93749C3.34999 4.46873 2.75002 5.21873 2.47501 6.24374C2.24998 7.09999 2.32498 7.86247 2.44999 8.38749V27.7625C1.78123 27.7937 1.25 28.3562 1.25 29.0313V31.6187C1.25 32.3187 1.81873 32.8875 2.51877 32.8875H19.9812C20.6813 32.8875 21.25 32.3187 21.25 31.6187ZM3.69999 8.96248H9.1V17.0687C9.0625 17.0875 9.03126 17.1 9.00002 17.1188C8.96873 17.1375 8.93749 17.15 8.90625 17.1687C8.85624 17.1938 8.80627 17.225 8.75626 17.25C8.74374 17.2562 8.73123 17.2625 8.71876 17.2688C8.58124 17.3375 8.44376 17.4125 8.31249 17.4937C8.30624 17.4937 8.30624 17.5 8.30002 17.5C8.11249 17.6062 7.93751 17.7125 7.76249 17.825C7.54375 17.9625 7.33749 18.1062 7.13749 18.2562C6.54373 18.6813 6.0125 19.1438 5.53749 19.6312C5.40627 19.7688 5.275 19.9125 5.14999 20.0562C5.09377 20.125 5.0375 20.1875 4.98749 20.2562C4.8875 20.375 4.79374 20.4937 4.70627 20.6125C4.67499 20.65 4.65 20.6812 4.62502 20.7187C4.51874 20.8688 4.4125 21.0188 4.31873 21.1687C4.31252 21.1813 4.3 21.1937 4.29375 21.2062C4.20624 21.35 4.11877 21.4938 4.03751 21.6375C4.01249 21.6813 3.9875 21.7312 3.96252 21.775C3.86875 21.95 3.78124 22.1312 3.69999 22.3125V8.96248ZM2.5 31.6187L2.51877 29.0062H19.9812C19.9875 29.0062 20 29.0187 20 29.0313L19.9812 31.6375L2.5 31.6187Z" fill="white"/>
</svg>
