<svg width="40" height="40" viewBox="0 0 40 40" fill="none" xmlns="http://www.w3.org/2000/svg">
<path d="M20.1893 24.1296L18.2569 23.8342L17.3817 21.969C17.1754 21.5302 16.7347 21.25 16.2501 21.25C15.7655 21.25 15.3248 21.5302 15.1185 21.969L14.2433 23.8342L12.3109 24.1296C11.8482 24.1998 11.4637 24.5239 11.3148 24.9683C11.1659 25.4126 11.2782 25.9027 11.6053 26.2378L13.0396 27.7075L12.6979 29.7986C12.6209 30.271 12.8211 30.7458 13.2118 31.0217C13.6024 31.297 14.1187 31.3251 14.5362 31.0938L16.2501 30.1471L17.964 31.0938C18.152 31.1981 18.3607 31.25 18.5682 31.25C18.5768 31.25 18.5865 31.2506 18.5926 31.25C19.2835 31.25 19.8426 30.6903 19.8426 30C19.8426 29.8438 19.8145 29.6948 19.7621 29.5569L19.4605 27.7075L20.8949 26.2378C21.222 25.9027 21.3343 25.4126 21.1854 24.9683C21.0365 24.5239 20.652 24.1998 20.1893 24.1296ZM17.2303 26.4136C16.9532 26.6974 16.8275 27.0959 16.891 27.4878L16.9203 27.6605L16.8543 27.6251C16.6664 27.5208 16.4588 27.4689 16.2501 27.4689C16.0414 27.4689 15.8338 27.5208 15.6458 27.6251L15.5799 27.6605L15.6092 27.4878C15.6727 27.0959 15.547 26.6974 15.2699 26.4136L15.0941 26.2329L15.2809 26.2042C15.6922 26.1414 16.0462 25.8771 16.2232 25.4999L16.2501 25.4425L16.277 25.4999C16.454 25.8771 16.808 26.1414 17.2193 26.2042L17.4061 26.2329L17.2303 26.4136Z" fill="white"/>
<path d="M36.6174 7.5556L20.3674 2.5556C20.1282 2.48114 19.8718 2.48114 19.6326 2.5556L3.38257 7.5556C2.85767 7.71674 2.5 8.20135 2.5 8.75006C2.5 9.29877 2.85767 9.78339 3.38257 9.94452L9.80804 11.9216L8.81004 16.1559C5.08003 17.9887 2.5 21.8188 2.5 26.2501C2.5 32.4531 7.54272 37.5001 13.7415 37.5001C15.7312 37.5001 17.6807 36.9739 19.3811 35.9785C19.9048 35.6721 20.1331 35.0342 19.9219 34.466C19.7107 33.8965 19.115 33.5651 18.5266 33.6701C18.2312 33.7238 17.8918 33.7501 17.489 33.7501C13.3569 33.7501 9.99634 30.3858 9.99634 26.2501C9.99634 22.1143 13.3569 18.7501 17.489 18.7501C17.8918 18.7501 18.2312 18.7763 18.5266 18.83C19.1113 18.9338 19.7107 18.603 19.9219 18.0341C20.1331 17.4659 19.9048 16.8281 19.3811 16.5217C17.6807 15.5262 15.7312 15.0001 13.7415 15.0001C12.99 15.0001 12.2564 15.0773 11.5458 15.2187L12.1871 12.6536L19.6326 14.9445C19.7522 14.9818 19.8755 15.0001 20 15.0001C20.1245 15.0001 20.2478 14.9818 20.3674 14.9445L27.8129 12.6536L28.5071 15.4304L22.1045 17.5641C21.4502 17.7827 21.0962 18.4907 21.3147 19.1456C21.4893 19.6693 21.9763 20.0007 22.5 20.0007C22.6306 20.0007 22.7637 19.9799 22.8955 19.936L30.3955 17.436C31.0144 17.2291 31.3708 16.5803 31.2122 15.9467L30.2048 11.9176L35 10.4422V20.0001C35 20.6904 35.5591 21.2501 36.25 21.2501C36.9409 21.2501 37.5 20.6904 37.5 20.0001V8.75006C37.5 8.20135 37.1423 7.71674 36.6174 7.5556ZM7.49634 26.2501C7.49634 29.947 9.51172 33.1812 12.5 34.9122C8.26538 34.3067 5 30.6531 5 26.2501C5 21.847 8.26538 18.1934 12.5 17.588C9.51172 19.3189 7.49634 22.5532 7.49634 26.2501ZM20 12.4421L8.00049 8.75006L20 5.05804L27.9369 7.50006H20C19.3091 7.50006 18.75 8.05975 18.75 8.75006C18.75 9.44037 19.3091 10.0001 20 10.0001H27.9369L20 12.4421Z" fill="white"/>
</svg>
