<svg width="40" height="40" viewBox="0 0 40 40" fill="none" xmlns="http://www.w3.org/2000/svg">
<g clip-path="url(#clip0_540_13416)">
<path d="M29.7732 30.7313L24.0148 28.5705C23.5946 28.4133 23.2256 28.1485 22.9469 27.8039C22.6683 27.4593 22.4902 27.0478 22.4315 26.6128C25.4565 25.9548 27.4732 24.72 29.9315 22.9085C32.7398 20.8614 31.3232 16.5967 29.7982 17.344C25.7565 19.3099 27.5982 18.7656 21.5232 19.6104C21.2815 17.6933 21.2565 15.8169 19.1565 14.1759L19.5898 12.6244L20.1482 12.7056C20.7608 12.7572 21.3715 12.5869 21.8635 12.2273C22.3554 11.8676 22.6941 11.3438 22.8148 10.756C23.1398 9.18822 23.5565 9.00951 23.7732 7.94535C24.0113 6.59023 23.8435 5.19693 23.2898 3.93243L22.8898 3.28256C20.1315 -1.20152 13.0732 1.46293 14.0898 6.58875C14.3268 7.3791 14.4143 8.20487 14.3482 9.02575C14.3462 9.28347 14.4071 9.53796 14.5259 9.76819C14.6447 9.99843 14.818 10.1978 15.0315 10.3499C14.2648 13.1524 14.7565 12.2101 13.6482 12.665C13.2149 12.8454 12.8251 13.112 12.5037 13.4477C12.1822 13.7834 11.9363 14.1809 11.7815 14.6146C11.2727 15.9648 11.0131 17.3922 11.0148 18.8306C11.0148 32.0473 10.7065 32.0635 11.9232 33.5582C7.23984 34.1106 5.36484 40 8.66484 40H30.1815C31.0656 40 31.9134 39.6577 32.5385 39.0483C33.1637 38.4389 33.5148 37.6124 33.5148 36.7507V36.0358C33.5141 34.8866 33.1561 33.7646 32.4882 32.8177C31.8203 31.8708 30.8737 31.1433 29.7732 30.7313ZM28.9398 21.6088C28.7648 21.7469 28.9398 21.9581 27.9648 20.0572L29.7982 19.1637C29.9253 19.608 29.9114 20.0795 29.7582 20.516C29.6049 20.9525 29.3196 21.3335 28.9398 21.6088ZM21.9398 8.21342C20.9815 10.0737 21.3898 11.1866 20.3148 11.0891C18.6876 10.8928 17.1742 10.1723 16.0148 9.042V8.31902L22.1065 5.67894C22.3032 6.52173 22.2453 7.402 21.9398 8.21342ZM21.4565 4.10302C21.5065 4.18425 21.9065 3.96492 15.7982 6.61312C15.716 6.3052 15.6713 5.98893 15.6648 5.67082C15.6694 5.00845 15.8952 4.36558 16.3083 3.83959C16.7213 3.3136 17.2989 2.93317 17.9536 2.75594C18.6083 2.57871 19.3045 2.61433 19.9366 2.8574C20.5687 3.10048 21.1023 3.53777 21.4565 4.10302ZM17.9898 12.1776L17.6815 13.323L16.3148 12.7219C16.0815 12.6163 16.0648 12.9331 16.4732 11.4303C16.9543 11.7239 17.462 11.974 17.9898 12.1776ZM8.66484 38.3753C8.81943 37.4524 9.31119 36.6152 10.0494 36.018C10.7876 35.4208 11.7225 35.104 12.6815 35.126V38.3753H8.66484ZM31.8482 36.7507C31.8482 37.1816 31.6726 37.5948 31.36 37.8995C31.0475 38.2042 30.6235 38.3753 30.1815 38.3753H14.3482V35.126H22.6815C22.9025 35.126 23.1145 35.0404 23.2708 34.8881C23.427 34.7357 23.5148 34.5291 23.5148 34.3137C23.5148 34.0982 23.427 33.8916 23.2708 33.7393C23.1145 33.5869 22.9025 33.5013 22.6815 33.5013H15.1815C14.5185 33.5013 13.8826 33.2446 13.4137 32.7876C12.9449 32.3305 12.6815 31.7107 12.6815 31.0643C12.6815 20.7883 12.1482 15.0614 14.2898 14.1841C15.0565 13.8673 15.3565 14.0866 17.2482 14.9152C21.1315 16.6211 18.8565 21.3163 20.8065 21.3163C21.1732 21.3163 20.4815 21.3976 26.3732 20.5771L27.4398 22.6648C24.958 24.4197 21.9726 25.369 18.9065 25.378C18.3011 25.3841 17.714 25.1758 17.2543 24.7919C16.7945 24.4079 16.4933 23.8744 16.4065 23.2903L16.0148 20.3903C15.9839 20.1748 15.8664 19.9802 15.6883 19.8492C15.6001 19.7843 15.4996 19.737 15.3926 19.71C15.2857 19.683 15.1743 19.6767 15.0648 19.6917C14.8438 19.7218 14.6442 19.8364 14.5098 20.01C14.3754 20.1837 14.3172 20.4023 14.3482 20.6177L14.7732 23.5178C14.9158 24.4866 15.4125 25.3727 16.1719 26.013C16.9313 26.6533 17.9024 27.0048 18.9065 27.0027C19.5362 26.9985 20.1651 26.9578 20.7898 26.8808C20.8971 27.5932 21.1967 28.2651 21.6579 28.8275C22.1192 29.3899 22.7255 29.8226 23.4148 30.0814L29.1732 32.2422C29.9604 32.5365 30.6376 33.0566 31.1152 33.7339C31.5928 34.4113 31.8484 35.2139 31.8482 36.0358V36.7507Z" fill="white" stroke="white" stroke-width="0.3"/>
</g>
<defs>
<clipPath id="clip0_540_13416">
<rect width="40" height="40" fill="white"/>
</clipPath>
</defs>
</svg>
