<svg width="40" height="40" viewBox="0 0 40 40" fill="none" xmlns="http://www.w3.org/2000/svg">
<path d="M3.28545 7.57331C7.80094 2.28269 15.2805 1.4796 20.6888 5.70215C22.258 6.81945 23.3699 8.51237 23.8205 10.4706C24.3012 12.5599 24.4141 12.8458 25.5457 14.8414C25.6841 15.0855 25.6483 15.399 25.4593 15.6004C25.4593 15.6004 25.325 15.7436 24.6449 16.4801C24.3282 16.8231 24.2946 17.0988 24.2968 17.2765C24.3076 18.1484 25.3646 19.234 26.2166 20.1093C27.3689 21.2928 27.8536 21.931 27.6796 22.5843C27.5152 23.2016 26.9159 23.3381 26.1574 23.5109C25.8827 23.5735 25.5714 23.6444 25.2369 23.7434C24.9977 23.8141 24.8826 23.8786 24.8309 23.9156C24.8676 24.0056 24.9892 24.2245 25.3853 24.6009C25.5164 24.7255 25.5877 24.9071 25.5787 25.0946C25.5698 25.282 25.4818 25.455 25.3395 25.5647C25.0994 25.7499 24.8954 25.9023 24.7154 26.0368C24.5253 26.1788 24.331 26.3239 24.2032 26.4304C24.2559 26.4988 24.3201 26.5782 24.3805 26.653C24.6711 26.9636 24.9673 27.3316 24.8885 27.7773C24.8139 28.1996 24.4701 28.359 24.2853 28.4446C24.1549 28.505 24.0738 28.5457 24.0458 28.6018C24.0291 28.6356 23.9558 28.8284 24.1157 29.394C24.4213 30.0097 24.3901 30.7294 24.0291 31.2894C23.5586 32.0192 22.6593 32.3269 21.5612 32.134C20.5672 31.9591 19.5902 31.7689 18.6511 31.5675C18.0886 32.4631 17.6781 33.3445 17.4294 34.1921C17.3536 34.4498 17.1304 34.6252 16.8778 34.6252H3.25011C3.02496 34.6252 2.82025 34.4853 2.72552 34.2667C2.63086 34.0481 2.66359 33.7906 2.80919 33.6069C5.60776 30.0771 5.75097 25.0244 3.16159 21.3258C0.243446 17.2627 0.283691 11.6209 3.25943 7.60601C3.26774 7.5948 3.27642 7.5839 3.28545 7.57331ZM4.0826 20.5784C5.48542 22.5822 6.21892 25.0637 6.1481 27.5659C6.08929 29.642 5.47842 31.6682 4.40755 33.3885H16.4646C16.7891 32.4493 17.2782 31.4869 17.9222 30.5214C18.0551 30.3222 18.2855 30.2257 18.5092 30.2749C19.5469 30.5032 20.6368 30.7182 21.7487 30.9137C22.3776 31.0245 22.8742 30.9024 23.0772 30.5874C23.1965 30.4024 23.198 30.1636 23.0813 29.9487C23.0602 29.9097 23.043 29.8683 23.0302 29.8254C22.6143 28.4255 23.0331 27.8044 23.5198 27.4791L23.5098 27.4667C23.162 27.0367 22.9107 26.7259 22.9631 26.276C23.019 25.7957 23.3647 25.5375 24.0533 25.023C24.0726 25.0086 24.0921 24.994 24.112 24.9792C23.8068 24.5871 23.5783 24.1183 23.6862 23.6215C23.8493 22.8707 24.6618 22.6304 24.9288 22.5515C25.2967 22.4427 25.6259 22.3677 25.9165 22.3015C26.0921 22.2615 26.2937 22.2155 26.446 22.1714C26.308 21.9714 26.0169 21.6189 25.413 20.9986C24.356 19.9128 23.1579 18.6822 23.1407 17.293C23.1331 16.6753 23.3623 16.1094 23.8223 15.6112C24.0415 15.3738 24.2039 15.1982 24.3236 15.0688C23.3407 13.3153 23.1723 12.8286 22.6979 10.7662C22.3158 9.10545 21.3714 7.67031 20.0388 6.72507C20.0313 6.71982 20.0241 6.71441 20.0169 6.70884C15.0904 2.85414 8.27416 3.57855 4.15291 8.39132C1.51974 11.9597 1.48803 16.9657 4.0826 20.5784ZM34.3167 36.8189C36.6919 34.2781 38 30.9 38 27.3067C38 23.7135 36.6919 20.3353 34.3167 17.7946C34.091 17.5532 33.7251 17.553 33.4992 17.7946C33.2734 18.036 33.2734 18.4275 33.4992 18.669C35.6561 20.9763 36.8439 24.0439 36.8439 27.3067C36.8439 30.5696 35.6561 33.6372 33.4992 35.9445C33.2734 36.1859 33.2734 36.5774 33.4992 36.8189C33.6121 36.9396 33.76 37 33.9079 37C34.0559 37.0001 34.2038 36.9396 34.3167 36.8189ZM30.7625 21.5965C32.1885 23.1217 32.9738 25.1497 32.9738 27.3067C32.9738 29.4638 32.1886 31.4918 30.7625 33.0171C30.5368 33.2585 30.5368 33.65 30.7625 33.8915C30.8755 34.0122 31.0233 34.0726 31.1713 34.0726C31.3192 34.0726 31.4672 34.0122 31.5801 33.8915C33.2243 32.1327 34.1298 29.7941 34.1298 27.3067C34.1298 24.8194 33.2243 22.4808 31.5801 20.722C31.3542 20.4805 30.9883 20.4805 30.7625 20.722C30.5368 20.9634 30.5368 21.355 30.7625 21.5965ZM28.0259 24.5239C28.7208 25.2672 29.1036 26.2555 29.1036 27.3067C29.1036 28.358 28.7208 29.3463 28.0259 30.0897C27.8002 30.3311 27.8002 30.7226 28.0259 30.9641C28.1388 31.0848 28.2867 31.1452 28.4347 31.1452C28.5826 31.1452 28.7306 31.0848 28.8434 30.9641C29.7567 29.9872 30.2597 28.6883 30.2597 27.3067C30.2597 25.9252 29.7567 24.6263 28.8434 23.6494C28.6175 23.4078 28.2516 23.4079 28.0259 23.6494C27.8002 23.8908 27.8002 24.2824 28.0259 24.5239Z" fill="white" stroke="white" stroke-width="0.7"/>
</svg>
