<svg width="40" height="40" viewBox="0 0 40 40" fill="none" xmlns="http://www.w3.org/2000/svg">
<g clip-path="url(#clip0_540_16184)">
<path d="M18 8.84476e-06C15.1571 -0.00280916 12.354 0.667787 9.82017 1.95688C7.28634 3.24598 5.09389 5.11691 3.42234 7.41647C1.75079 9.71603 0.647695 12.3788 0.203379 15.1868C-0.240938 17.9947 -0.0138362 20.868 0.866086 23.5713C1.74601 26.2746 3.25373 28.731 5.26577 30.7394C7.27782 32.7478 9.73697 34.2511 12.4419 35.1261C15.1467 36.0012 18.0204 36.2231 20.8276 35.7737C23.6347 35.3243 26.2955 34.2164 28.592 32.5407L35.434 39.3907C35.8257 39.7807 36.3559 39.9996 36.9087 39.9996C37.4614 39.9996 37.9917 39.7807 38.3834 39.3907L39.3907 38.384C39.7809 37.9924 39.9999 37.4621 39.9999 36.9093C39.9999 36.3565 39.7809 35.8263 39.3907 35.4347L32.5407 28.592C34.4993 25.9091 35.6766 22.7363 35.9423 19.4252C36.2079 16.1141 35.5515 12.7941 34.0457 9.83322C32.54 6.87237 30.2437 4.38633 27.4115 2.65068C24.5793 0.915027 21.3218 -0.00243086 18 8.84476e-06ZM1.33336 18C1.33336 14.7037 2.31084 11.4813 4.1422 8.74051C5.97355 5.99969 8.57653 3.86348 11.622 2.60202C14.6674 1.34056 18.0185 1.0105 21.2515 1.65359C24.4845 2.29667 27.4543 3.88402 29.7851 6.2149C32.116 8.54577 33.7034 11.5155 34.3464 14.7485C34.9895 17.9815 34.6595 21.3326 33.398 24.3781C32.1366 27.4235 30.0003 30.0265 27.2595 31.8578C24.5187 33.6892 21.2964 34.6667 18 34.6667C13.5813 34.6617 9.3449 32.9042 6.22037 29.7797C3.09583 26.6551 1.3383 22.4188 1.33336 18ZM38.4474 37.4407L37.4407 38.4467C37.3707 38.5168 37.2876 38.5725 37.1961 38.6105C37.1046 38.6484 37.0064 38.668 36.9074 38.668C36.8083 38.668 36.7102 38.6484 36.6186 38.6105C36.5271 38.5725 36.444 38.5168 36.374 38.4467L31.7334 33.8L33.8 31.7333L38.4494 36.3787C38.5892 36.5202 38.6674 36.7112 38.6671 36.9101C38.6667 37.109 38.5877 37.2997 38.4474 37.4407ZM32.854 30.7893L30.7874 32.856L29.6434 31.7113C30.3866 31.0791 31.0777 30.3879 31.71 29.6447L32.854 30.7893Z" fill="white"/>
<path d="M25.3333 15.3333C25.3353 14.6311 25.1149 13.9463 24.7037 13.3771C24.2924 12.8079 23.7115 12.3835 23.0441 12.1649C22.3768 11.9463 21.6574 11.9446 20.9891 12.1602C20.3207 12.3757 19.7378 12.7973 19.324 13.3647L17.1906 12.3813C17.4524 11.4142 17.3412 10.384 16.8793 9.49499C16.4173 8.60593 15.6383 7.92285 14.6964 7.58109C13.7546 7.23933 12.7188 7.26385 11.7942 7.64977C10.8696 8.03569 10.1237 8.75486 9.7043 9.66478C9.28492 10.5747 9.22265 11.6089 9.52984 12.5626C9.83702 13.5163 10.4912 14.3197 11.3629 14.8138C12.2345 15.3079 13.2599 15.4565 14.2359 15.2302C15.2119 15.0039 16.0673 14.4192 16.6326 13.592L18.766 14.574C18.7037 14.8224 18.6704 15.0772 18.6666 15.3333C18.6701 15.8602 18.8002 16.3786 19.046 16.8447L13.592 21.2067C13.1343 20.858 12.5753 20.6684 12 20.6667C11.4204 20.6634 10.8553 20.8479 10.3894 21.1927C9.92344 21.5375 9.58175 22.0239 9.41547 22.5792C9.24919 23.1345 9.26726 23.7286 9.46698 24.2728C9.6667 24.8169 10.0373 25.2817 10.5233 25.5975C11.0094 25.9133 11.5846 26.0632 12.1629 26.0247C12.7413 25.9862 13.2916 25.7613 13.7314 25.3839C14.1713 25.0064 14.477 24.4966 14.6028 23.9308C14.7286 23.365 14.6677 22.7736 14.4293 22.2453L19.8813 17.8847C20.4228 18.3375 21.0953 18.6046 21.8 18.6467L22.112 20.858C21.1539 21.1618 20.345 21.8145 19.8455 22.6866C19.346 23.5588 19.1924 24.5868 19.4152 25.5668C19.6379 26.5469 20.2208 27.4075 21.0482 27.9781C21.8756 28.5486 22.8872 28.7875 23.8824 28.6473C24.8777 28.5072 25.7839 27.9982 26.4216 27.2213C27.0592 26.4444 27.3817 25.4563 27.3251 24.4528C27.2685 23.4493 26.837 22.5038 26.116 21.8035C25.3951 21.1032 24.4373 20.6994 23.4326 20.672L23.12 18.4587C23.7658 18.229 24.325 17.8055 24.7211 17.2462C25.1172 16.6868 25.331 16.0188 25.3333 15.3333ZM13.3333 14C12.8059 14 12.2903 13.8436 11.8518 13.5506C11.4132 13.2576 11.0714 12.8411 10.8696 12.3538C10.6678 11.8665 10.615 11.3304 10.7179 10.8131C10.8208 10.2958 11.0747 9.82064 11.4477 9.4477C11.8206 9.07476 12.2958 8.82079 12.8131 8.71789C13.3303 8.615 13.8665 8.66781 14.3538 8.86964C14.8411 9.07148 15.2575 9.41327 15.5505 9.8518C15.8436 10.2903 16 10.8059 16 11.3333C16 12.0406 15.719 12.7188 15.2189 13.2189C14.7188 13.719 14.0405 14 13.3333 14ZM12 24.6667C11.7363 24.6667 11.4785 24.5885 11.2592 24.4419C11.0399 24.2954 10.869 24.0872 10.7681 23.8436C10.6672 23.5999 10.6408 23.3318 10.6922 23.0732C10.7437 22.8146 10.8707 22.577 11.0572 22.3905C11.2436 22.204 11.4812 22.0771 11.7398 22.0256C11.9985 21.9742 12.2666 22.0006 12.5102 22.1015C12.7538 22.2024 12.9621 22.3733 13.1086 22.5926C13.2551 22.8118 13.3333 23.0696 13.3333 23.3333C13.3333 23.6869 13.1928 24.0261 12.9428 24.2761C12.6927 24.5262 12.3536 24.6667 12 24.6667ZM20 15.3333C20 14.9378 20.1173 14.5511 20.337 14.2222C20.5568 13.8933 20.8691 13.6369 21.2346 13.4856C21.6 13.3342 22.0022 13.2946 22.3901 13.3717C22.7781 13.4489 23.1345 13.6394 23.4142 13.9191C23.6939 14.1988 23.8844 14.5552 23.9615 14.9431C24.0387 15.3311 23.9991 15.7332 23.8477 16.0987C23.6963 16.4641 23.44 16.7765 23.1111 16.9963C22.7822 17.216 22.3955 17.3333 22 17.3333C21.4695 17.3333 20.9608 17.1226 20.5857 16.7475C20.2107 16.3725 20 15.8638 20 15.3333ZM26 24.6667C26 25.1941 25.8436 25.7096 25.5505 26.1482C25.2575 26.5867 24.8411 26.9285 24.3538 27.1303C23.8665 27.3322 23.3303 27.385 22.8131 27.2821C22.2958 27.1792 21.8206 26.9252 21.4477 26.5523C21.0747 26.1793 20.8208 25.7042 20.7179 25.1869C20.615 24.6696 20.6678 24.1334 20.8696 23.6462C21.0715 23.1589 21.4132 22.7424 21.8518 22.4494C22.2903 22.1564 22.8059 22 23.3333 22C24.0405 22 24.7188 22.2809 25.2189 22.781C25.719 23.2811 26 23.9594 26 24.6667Z" fill="white"/>
<path d="M22.1821 3.24596C22.0123 3.19873 21.8308 3.22064 21.6771 3.30689C21.5235 3.39314 21.4102 3.53672 21.3621 3.70624C21.314 3.87575 21.335 4.05742 21.4204 4.21153C21.5059 4.36563 21.6488 4.47964 21.8181 4.52863C25.2316 5.49406 28.1516 7.71882 29.9885 10.7536C31.8254 13.7885 32.4422 17.4072 31.7145 20.8792C30.9867 24.3512 28.9687 27.4177 26.0677 29.4594C23.1668 31.5012 19.5992 32.3662 16.0853 31.8796C12.5714 31.393 9.37306 29.5912 7.13608 26.838C4.89911 24.0848 3.7902 20.5854 4.03326 17.0463C4.27633 13.5072 5.85327 10.1922 8.44565 7.77067C11.038 5.34915 14.4527 4.00154 18.0001 3.99996C18.1769 3.99996 18.3465 3.92972 18.4715 3.8047C18.5965 3.67967 18.6668 3.5101 18.6668 3.33329C18.6668 3.15648 18.5965 2.98691 18.4715 2.86189C18.3465 2.73686 18.1769 2.66663 18.0001 2.66663C14.1187 2.66868 10.3827 4.1434 7.5464 6.79302C4.71009 9.44265 2.9848 13.0698 2.71889 16.942C2.45298 20.8143 3.66626 24.6432 6.11376 27.6557C8.56125 30.6681 12.0606 32.6397 15.9053 33.1723C19.7499 33.7049 23.6535 32.7589 26.8277 30.5252C30.002 28.2915 32.2104 24.9366 33.0072 21.1379C33.8039 17.3392 33.1296 13.3796 31.1204 10.0587C29.1112 6.73786 25.9168 4.30306 22.1821 3.24596Z" fill="white"/>
</g>
<defs>
<clipPath id="clip0_540_16184">
<rect width="40" height="40" fill="white"/>
</clipPath>
</defs>
</svg>
