<svg width="40" height="40" viewBox="0 0 40 40" fill="none" xmlns="http://www.w3.org/2000/svg">
<g clip-path="url(#clip0_540_14791)">
<path fill-rule="evenodd" clip-rule="evenodd" d="M19.9996 19.7276C19.8897 19.7276 19.78 19.6892 19.6914 19.6121C16.7387 17.036 8.30891 18.529 8.2243 18.5445C7.93695 18.596 7.67188 18.3748 7.67188 18.083L7.67211 3.33911C7.67211 3.08036 7.88211 2.87036 8.14086 2.87036H10.1656C10.7827 2.87036 10.7827 3.80787 10.1656 3.80787H8.60961V17.532C10.5498 17.239 16.9916 16.474 19.9998 18.6605C23.0073 16.4742 29.4496 17.239 31.3898 17.532V3.80787H29.8338C29.2166 3.80787 29.2169 2.87036 29.8338 2.87036H31.8588C32.1175 2.87036 32.3275 3.08036 32.3275 3.33911V18.083C32.3275 18.3757 32.0606 18.597 31.7749 18.5445C31.6905 18.5293 23.2583 17.0384 20.3078 19.6121C20.2201 19.6892 20.11 19.7276 20 19.7276H19.9996Z" fill="white"/>
<path fill-rule="evenodd" clip-rule="evenodd" d="M19.9995 17.4975C19.4555 17.4975 17.8868 15.5853 11.3897 15.5853C10.4918 15.5853 9.69678 15.8018 9.69678 15.1482V0.477868C9.69678 0.223805 9.89928 0.0161478 10.1531 0.00958526C15.5541 -0.132681 19.0856 1.42686 19.9995 1.88366C20.9133 1.42686 24.4465 -0.131978 29.8458 0.00911651C30.0997 0.0161478 30.3022 0.223805 30.3022 0.4774V15.1477C30.3022 15.8014 29.5062 15.5848 28.6095 15.5848C22.1114 15.5848 20.5425 17.4978 19.9997 17.4978L19.9995 17.4975ZM11.3897 14.6478C13.5225 14.6478 17.4122 14.8896 19.9997 16.4724C22.7215 14.8074 26.9658 14.5892 29.3644 14.6586V0.938417C23.8179 0.887792 20.3623 2.74592 20.2303 2.82069C20.0878 2.90132 19.913 2.90178 19.7693 2.82116C19.7356 2.80194 16.2717 0.884511 10.6343 0.93912V14.6586C10.8349 14.6527 11.0897 14.6478 11.3894 14.6478H11.3897Z" fill="white"/>
<path fill-rule="evenodd" clip-rule="evenodd" d="M19.9995 15.8834C19.7408 15.8834 19.5308 15.6734 19.5308 15.4147V3.6352C19.5308 3.01809 20.4683 3.01809 20.4683 3.6352V15.4147C20.4683 15.6737 20.2587 15.8834 19.9995 15.8834Z" fill="white"/>
<path fill-rule="evenodd" clip-rule="evenodd" d="M22.5458 8.1262C21.9643 8.1262 21.9109 7.25807 22.4938 7.19174L27.4199 6.63182C28.0305 6.56291 28.1406 7.49315 27.5254 7.56323L22.5458 8.1262Z" fill="white"/>
<path fill-rule="evenodd" clip-rule="evenodd" d="M22.5458 10.8691C21.9643 10.8691 21.9109 10.001 22.4938 9.93466L27.4199 9.37474C28.0305 9.30583 28.1406 10.2361 27.5254 10.3061L22.5458 10.8691Z" fill="white"/>
<path fill-rule="evenodd" clip-rule="evenodd" d="M22.5458 13.6121C21.9643 13.6121 21.9109 12.7439 22.4938 12.6776L27.4199 12.1177C28.0302 12.0485 28.1409 12.979 27.5254 13.0491L22.5458 13.6121Z" fill="white"/>
<path fill-rule="evenodd" clip-rule="evenodd" d="M22.5458 5.38341C21.9643 5.38341 21.9109 4.51528 22.4938 4.44919L27.4199 3.88926C28.0305 3.82036 28.1406 4.7506 27.5254 4.82067L22.5458 5.38365V5.38341Z" fill="white"/>
<path fill-rule="evenodd" clip-rule="evenodd" d="M17.4534 5.38337L12.4739 4.8204C11.8589 4.75032 11.9693 3.81915 12.5798 3.88899L17.5057 4.44892C18.0879 4.51501 18.0347 5.38314 17.4537 5.38314L17.4534 5.38337Z" fill="white"/>
<path fill-rule="evenodd" clip-rule="evenodd" d="M17.4536 8.12622L12.474 7.56325C11.8593 7.49317 11.9694 6.5627 12.58 6.63184L17.5059 7.19177C18.088 7.25809 18.0348 8.12622 17.4538 8.12622H17.4536Z" fill="white"/>
<path fill-rule="evenodd" clip-rule="evenodd" d="M17.4534 10.8692L12.4739 10.3062C11.8593 10.2364 11.9688 9.30637 12.5798 9.37481L17.5057 9.93474C18.0879 10.0011 18.0347 10.8692 17.4536 10.8692H17.4534Z" fill="white"/>
<path fill-rule="evenodd" clip-rule="evenodd" d="M17.4535 13.6121L12.4739 13.0491C11.8594 12.9793 11.9686 12.0497 12.5799 12.1177L17.5058 12.6776C18.0879 12.7439 18.0347 13.6121 17.4537 13.6121H17.4535Z" fill="white"/>
<path fill-rule="evenodd" clip-rule="evenodd" d="M19.9995 19.7276C19.7408 19.7276 19.5308 19.5176 19.5308 19.2588V17.0288C19.5308 16.4116 20.4683 16.4116 20.4683 17.0288V19.2588C20.4683 19.5181 20.2587 19.7276 19.9995 19.7276Z" fill="white"/>
<path fill-rule="evenodd" clip-rule="evenodd" d="M35.7384 32.4911H4.2612C3.26534 32.4911 2.45557 31.6808 2.45557 30.6847V9.87544C2.45557 8.87957 3.26557 8.06934 4.2612 8.06934H8.14106C8.75817 8.06934 8.75817 9.00684 8.14106 9.00684H4.2612C3.78237 9.00684 3.39307 9.39661 3.39307 9.87544V30.6852C3.39307 31.1643 3.78284 31.5538 4.2612 31.5538H35.7384C36.2172 31.5538 36.6065 31.1645 36.6065 30.6852V9.87544C36.6065 9.39661 36.2172 9.00684 35.7384 9.00684H31.8585C31.2414 9.00684 31.2416 8.06934 31.8585 8.06934H35.7384C36.7342 8.06934 37.5445 8.87957 37.5445 9.87544V30.6852C37.544 31.6808 36.734 32.4913 35.7384 32.4913V32.4911Z" fill="white"/>
<path fill-rule="evenodd" clip-rule="evenodd" d="M34.2176 29.6332H5.78198C5.52323 29.6332 5.31323 29.423 5.31323 29.1645V11.3958C5.31323 11.137 5.52323 10.927 5.78198 10.927H8.14098C8.75809 10.927 8.75809 11.8645 8.14098 11.8645H6.25074V28.6955H33.7489V11.8647H31.8584C31.2413 11.8647 31.2415 10.9272 31.8584 10.9272H34.2176C34.4764 10.9272 34.6864 11.1372 34.6864 11.396V29.1643C34.6864 29.423 34.4764 29.6332 34.2176 29.6332Z" fill="white"/>
<path fill-rule="evenodd" clip-rule="evenodd" d="M13.9219 35.9547C13.608 35.9547 13.3793 35.6498 13.4744 35.346C14.2835 32.7599 13.1958 31.7247 14.0737 31.5613C14.3301 31.5135 14.5732 31.6827 14.6201 31.937C14.8422 33.1405 14.7581 34.3816 14.3695 35.6259C14.3069 35.8265 14.1218 35.9549 13.9221 35.9549L13.9219 35.9547ZM26.0778 35.9547C25.8781 35.9547 25.6927 35.8262 25.6301 35.6252C25.242 34.3813 25.1578 33.1403 25.3798 31.9368C25.4923 31.3288 26.4141 31.5011 26.3016 32.1074C25.8333 34.6356 27.086 35.6664 26.2174 35.9336C26.171 35.9477 26.1237 35.9547 26.0778 35.9547Z" fill="white"/>
<path fill-rule="evenodd" clip-rule="evenodd" d="M30.0775 40H9.92233C9.29983 40 9.45358 39.1725 9.45358 38.4888C9.45358 36.5744 11.0108 35.017 12.9249 35.017L27.0749 35.0172C28.9893 35.0172 30.5467 36.5744 30.5467 38.4888C30.5467 39.1725 30.7005 40 30.0775 40ZM10.3911 39.0625H29.6087V38.4885C29.6087 37.0914 28.472 35.9547 27.0749 35.9547H12.9249C11.5278 35.9547 10.3911 37.0914 10.3911 38.4885V39.0625Z" fill="white"/>
<path fill-rule="evenodd" clip-rule="evenodd" d="M21.1602 31.0615H18.8394C18.2225 31.0615 18.2225 30.124 18.8394 30.124H21.1602C21.777 30.124 21.7773 31.0615 21.1602 31.0615Z" fill="white"/>
</g>
<defs>
<clipPath id="clip0_540_14791">
<rect width="40" height="40" fill="white"/>
</clipPath>
</defs>
</svg>
