<svg width="40" height="40" viewBox="0 0 40 40" fill="none" xmlns="http://www.w3.org/2000/svg">
<g clip-path="url(#clip0_540_14857)">
<path d="M38.9777 24.0981C38.6091 23.4825 37.0958 21.655 33.1012 23.9814L26.0579 28.0838C25.7048 28.2894 25.3457 28.4347 24.9709 28.5214C25.1097 28.2986 25.2185 28.0468 25.2932 27.7678C25.6532 26.4241 24.8545 25.0211 23.4748 24.5736C23.4481 24.565 23.4207 24.5582 23.3931 24.5531C21.3685 24.1879 19.3705 23.4656 17.765 22.8851C17.2074 22.6836 16.6808 22.4931 16.233 22.3479C14.4299 21.7629 12.7997 22.4871 11.4429 23.2727L6.20282 26.3066L5.70876 25.4336C5.49063 25.0482 5.13454 24.7707 4.70594 24.6518C4.27735 24.533 3.82907 24.5879 3.44368 24.8059L1.46751 25.9243C1.0822 26.1423 0.804539 26.4985 0.685711 26.9271C0.566883 27.3556 0.62157 27.8039 0.839695 28.1893L6.64969 38.455C6.86782 38.8404 7.22391 39.118 7.65251 39.2368C7.80079 39.2779 7.95134 39.2983 8.10094 39.2983C8.38368 39.2982 8.66274 39.2255 8.91477 39.0829L10.8909 37.9645C11.2763 37.7464 11.5539 37.3902 11.6727 36.9616C11.7916 36.533 11.7368 36.0847 11.5188 35.6994L10.9198 34.641L12.1142 33.9514L21.1353 36.3686C21.6448 36.5051 22.1449 36.5732 22.6343 36.5732C23.6099 36.5732 24.5427 36.3022 25.4204 35.7618L38.2023 27.8914C39.3674 27.1739 39.7371 25.366 38.9777 24.0981ZM10.4682 36.6279C10.4386 36.7346 10.3701 36.823 10.2752 36.8768L8.29907 37.9952C8.10493 38.1051 7.84759 38.0339 7.73759 37.8395L1.92759 27.5736C1.87391 27.4789 1.86071 27.3679 1.89032 27.261C1.91993 27.1542 1.98845 27.0657 2.08321 27.0121L4.05946 25.8937C4.12118 25.8588 4.18969 25.841 4.25962 25.841C4.29704 25.841 4.33485 25.8461 4.37212 25.8564C4.47891 25.8861 4.56735 25.9545 4.62094 26.0493L5.42883 27.4768C5.42883 27.4768 5.42891 27.4769 5.42891 27.4769L5.42899 27.477L10.4309 36.315C10.4845 36.41 10.4978 36.5211 10.4682 36.6279ZM37.5469 26.8269L24.7649 34.6975C23.7513 35.3214 22.6391 35.4775 21.4588 35.1613L12.1877 32.6771C12.0277 32.6342 11.857 32.6566 11.7134 32.7395L10.3041 33.5532L6.8186 27.3946L12.0693 24.3546C13.2441 23.6745 14.5149 23.1049 15.8474 23.537C16.2755 23.6758 16.7688 23.8543 17.3401 24.0607C18.9781 24.6529 21.0138 25.3889 23.126 25.775C23.8621 26.0322 24.2737 26.7433 24.0859 27.4443C23.8388 28.3666 23.0705 28.4815 22.4592 28.4111C21.4214 28.1977 20.4353 27.9162 19.3919 27.6182C18.8973 27.477 18.386 27.331 17.8605 27.1902C17.5273 27.1011 17.1844 27.2987 17.095 27.6321C17.0056 27.9656 17.2035 28.3082 17.537 28.3976C18.0527 28.5358 18.5589 28.6803 19.0486 28.8202C20.1239 29.1273 21.1395 29.4174 22.2332 29.6409C22.2372 29.6417 22.2412 29.642 22.2452 29.6427C22.2495 29.6435 22.2537 29.6447 22.2581 29.6454L23.134 29.7879C24.4441 29.9975 25.6063 29.7932 26.687 29.1639L33.7303 25.0614C35.758 23.8806 37.3187 23.7607 37.9054 24.7403C38.3098 25.4156 38.1288 26.4686 37.5469 26.8269ZM4.63282 27.8764C4.68923 28.262 4.42235 28.6203 4.03673 28.6767C3.6511 28.7331 3.2929 28.4662 3.23649 28.0806C3.18016 27.695 3.44696 27.3368 3.83259 27.2803C4.21821 27.2239 4.57649 27.4908 4.63282 27.8764ZM15.6231 19.7707C15.278 19.7707 14.9981 20.0506 14.9981 20.3957C14.9981 20.7409 15.278 21.0207 15.6231 21.0207H28.0339C28.0344 21.0207 28.0349 21.0208 28.0354 21.0208C28.0359 21.0208 28.0364 21.0207 28.0369 21.0207H30.9194C30.9198 21.0207 30.9204 21.0208 30.9209 21.0208C30.9213 21.0208 30.9219 21.0207 30.9223 21.0207H37.9687C38.3138 21.0207 38.5937 20.7409 38.5937 20.3957C38.5937 20.0506 38.3138 19.7707 37.9687 19.7707H36.9107V6.20668C36.9107 5.86152 36.6309 5.58168 36.2857 5.58168H33.4002C33.055 5.58168 32.7752 5.86152 32.7752 6.20668V19.7708H31.546V11.9597C31.546 11.6146 31.2662 11.3347 30.921 11.3347H28.0355C27.6903 11.3347 27.4105 11.6146 27.4105 11.9597V19.7708H26.1813V9.99176C26.1813 9.6466 25.9015 9.36676 25.5563 9.36676H22.6708C22.3256 9.36676 22.0458 9.6466 22.0458 9.99176V19.7707H20.8166V14.86C20.8166 14.5149 20.5368 14.235 20.1916 14.235H17.3061C16.9609 14.235 16.6811 14.5149 16.6811 14.86V19.7707H15.6231ZM34.0251 6.83168H35.6606V19.7708H34.0251V6.83168ZM28.6604 12.5846H30.2959V19.7707H28.6604V12.5846ZM23.2958 10.6168H24.9313V19.7707H23.2958V10.6168ZM17.9311 15.485H19.5666V19.7707H17.9311V15.485ZM17.3916 10.6036C17.1475 10.3596 17.1475 9.96387 17.3916 9.7198L22.8115 4.29996C23.0115 4.0998 23.3209 4.05918 23.5659 4.20066L27.8573 6.67824L31.3766 3.15902C31.0584 3.21918 30.7427 3.02441 30.6575 2.70652C30.5681 2.37309 30.766 2.03043 31.0995 1.94105L33.3035 1.35051C33.5192 1.29277 33.7494 1.35441 33.9072 1.5123C34.0651 1.6702 34.1268 1.90035 34.069 2.11598L33.4784 4.31996C33.3891 4.6534 33.0463 4.85113 32.713 4.76191C32.395 4.67676 32.2003 4.36113 32.2604 4.04293L28.402 7.90129C28.202 8.10129 27.8926 8.14199 27.6476 8.00059L23.3562 5.52293L18.2755 10.6036C18.1534 10.7257 17.9935 10.7867 17.8335 10.7867C17.6735 10.7867 17.5137 10.7257 17.3916 10.6036ZM9.7022 13.134C13.1297 13.134 15.9181 10.3456 15.9181 6.91809C15.9181 3.49059 13.1298 0.702148 9.7022 0.702148C6.27462 0.702148 3.48626 3.49059 3.48626 6.91809C3.48626 10.3456 6.27469 13.134 9.7022 13.134ZM9.7022 1.95215C12.4405 1.95215 14.6681 4.17988 14.6681 6.91809C14.6681 9.65629 12.4404 11.884 9.7022 11.884C6.96399 11.884 4.73626 9.65629 4.73626 6.91809C4.73626 4.17988 6.96399 1.95215 9.7022 1.95215ZM10.7641 8.6773C10.8533 8.57418 10.8846 8.45848 10.8656 8.30215C10.8441 8.12488 10.7937 7.70957 9.6061 7.51465C7.90321 7.23504 7.50501 6.33723 7.47087 5.63324C7.42454 4.67988 8.06766 3.88004 9.07727 3.62496V3.38004C9.07727 3.03488 9.35712 2.75504 9.70227 2.75504C10.0474 2.75504 10.3273 3.03488 10.3273 3.38004V3.61926C10.9809 3.77699 11.5984 4.20074 11.9245 4.97754C12.0581 5.29582 11.9085 5.66215 11.5902 5.79574C11.2718 5.92949 10.9056 5.77965 10.772 5.46145C10.5231 4.86855 9.91196 4.71645 9.41665 4.82879C9.29555 4.85629 8.69258 5.02121 8.71938 5.57254C8.72641 5.71863 8.74532 6.10645 9.80852 6.28105C11.2105 6.51113 11.9836 7.14043 12.1064 8.15129C12.1681 8.65887 12.0307 9.1234 11.7094 9.49488C11.3918 9.86207 10.896 10.1225 10.3272 10.2324V10.4558C10.3272 10.801 10.0474 11.0808 9.7022 11.0808C9.35704 11.0808 9.0772 10.801 9.0772 10.4558V10.2219C8.19016 10.0244 7.51212 9.41512 7.30212 8.57301C7.2186 8.23809 7.42243 7.89887 7.75735 7.81535C8.09243 7.73184 8.43149 7.93566 8.51501 8.27059C8.66126 8.85715 9.27759 9.05105 9.76024 9.0402C10.1816 9.03035 10.5849 8.88441 10.7641 8.6773Z" fill="white"/>
</g>
<defs>
<clipPath id="clip0_540_14857">
<rect width="40" height="40" fill="white"/>
</clipPath>
</defs>
</svg>
