<svg width="40" height="40" viewBox="0 0 40 40" fill="none" xmlns="http://www.w3.org/2000/svg">
<path d="M35 17.8125C34.8375 17.8125 34.675 17.7437 34.5563 17.6312C34.4438 17.5125 34.375 17.35 34.375 17.1875C34.375 17.025 34.4438 16.8625 34.5563 16.7438C34.7938 16.5125 35.2125 16.5125 35.4437 16.7438C35.5562 16.8625 35.625 17.025 35.625 17.1875C35.625 17.3562 35.5562 17.5125 35.4437 17.6312C35.325 17.7437 35.1625 17.8125 35 17.8125Z" fill="white"/>
<path d="M13.75 29.0625C13.5875 29.0625 13.425 28.9937 13.3063 28.8812C13.1938 28.7625 13.125 28.6 13.125 28.4375C13.125 28.275 13.1938 28.1125 13.3063 27.9938C13.5438 27.7625 13.9562 27.7625 14.1937 27.9938C14.3062 28.1125 14.375 28.275 14.375 28.4375C14.375 28.6 14.3062 28.7625 14.1937 28.8812C14.075 28.9937 13.9125 29.0625 13.75 29.0625Z" fill="white"/>
<path d="M35 22.8125C34.655 22.8125 34.375 22.5325 34.375 22.1875V19.6875C34.375 19.3425 34.655 19.0625 35 19.0625C35.345 19.0625 35.625 19.3425 35.625 19.6875V22.1875C35.625 22.5325 35.345 22.8125 35 22.8125Z" fill="white"/>
<path d="M35 15.3125C34.655 15.3125 34.375 15.0325 34.375 14.6875V7.5C34.375 7.155 34.655 6.875 35 6.875C35.345 6.875 35.625 7.155 35.625 7.5V14.6875C35.625 15.0325 35.345 15.3125 35 15.3125Z" fill="white"/>
<path d="M13.75 26.5625C13.405 26.5625 13.125 26.2825 13.125 25.9375V18.5575C13.125 18.2125 13.405 17.9325 13.75 17.9325C14.095 17.9325 14.375 18.2125 14.375 18.5575V25.9375C14.375 26.2825 14.095 26.5625 13.75 26.5625Z" fill="white"/>
<path d="M13.75 34.0625C13.405 34.0625 13.125 33.7825 13.125 33.4375V30.9375C13.125 30.5925 13.405 30.3125 13.75 30.3125C14.095 30.3125 14.375 30.5925 14.375 30.9375V33.4375C14.375 33.7825 14.095 34.0625 13.75 34.0625Z" fill="white"/>
<path d="M21.9556 33.755C21.6106 33.755 21.3306 33.475 21.3306 33.13V23.4375C21.3306 23.0925 21.6106 22.8125 21.9556 22.8125C22.3006 22.8125 22.5806 23.0925 22.5806 23.4375V33.13C22.5806 33.475 22.3012 33.755 21.9556 33.755Z" fill="white"/>
<path d="M33.75 24.0625C33.405 24.0625 33.125 23.7825 33.125 23.4375C33.125 23.0925 33.405 22.8125 33.75 22.8125C34.0944 22.8125 34.375 22.5319 34.375 22.1875C34.375 21.8425 34.655 21.5625 35 21.5625C35.345 21.5625 35.625 21.8425 35.625 22.1875C35.625 23.2213 34.7838 24.0625 33.75 24.0625Z" fill="white"/>
<path d="M33.75 24.0625H13.75C13.405 24.0625 13.125 23.7825 13.125 23.4375C13.125 23.0925 13.405 22.8125 13.75 22.8125H33.75C34.095 22.8125 34.375 23.0925 34.375 23.4375C34.375 23.7825 34.095 24.0625 33.75 24.0625Z" fill="white"/>
<path d="M31.25 13.125H22.1025C21.7575 13.125 21.4775 12.845 21.4775 12.5C21.4775 12.155 21.7575 11.875 22.1025 11.875H31.25C31.595 11.875 31.875 12.155 31.875 12.5C31.875 12.845 31.595 13.125 31.25 13.125Z" fill="white"/>
<path d="M31.2501 15.625H22.8032C22.4582 15.625 22.1782 15.345 22.1782 15C22.1782 14.655 22.4582 14.375 22.8032 14.375H31.2501C31.5951 14.375 31.8751 14.655 31.8751 15C31.8751 15.345 31.5951 15.625 31.2501 15.625Z" fill="white"/>
<path d="M31.25 18.125H21.5593C21.2143 18.125 20.9343 17.845 20.9343 17.5C20.9343 17.155 21.2143 16.875 21.5593 16.875H31.25C31.595 16.875 31.875 17.155 31.875 17.5C31.875 17.845 31.595 18.125 31.25 18.125Z" fill="white"/>
<path d="M28.75 10.625H16.875C16.53 10.625 16.25 10.345 16.25 10C16.25 9.655 16.53 9.375 16.875 9.375H28.75C29.095 9.375 29.375 9.655 29.375 10C29.375 10.345 29.095 10.625 28.75 10.625Z" fill="white"/>
<path d="M22.8125 6.875C22.4675 6.875 22.1875 6.595 22.1875 6.25V5C22.1875 4.655 22.4675 4.375 22.8125 4.375C23.1575 4.375 23.4375 4.655 23.4375 5V6.25C23.4375 6.595 23.1575 6.875 22.8125 6.875Z" fill="white"/>
<path d="M10.625 10.6225C10.28 10.6225 10 10.3425 10 9.9975V7.5C10 7.155 10.28 6.875 10.625 6.875C10.97 6.875 11.25 7.155 11.25 7.5V9.9975C11.25 10.3425 10.97 10.6225 10.625 10.6225Z" fill="white"/>
<path d="M10.625 8.125C10.28 8.125 10 7.845 10 7.5C10 6.46625 10.8412 5.625 11.875 5.625C12.22 5.625 12.5 5.905 12.5 6.25C12.5 6.595 12.22 6.875 11.875 6.875C11.5306 6.875 11.25 7.15562 11.25 7.5C11.25 7.845 10.97 8.125 10.625 8.125Z" fill="white"/>
<path d="M33.75 6.875H11.875C11.53 6.875 11.25 6.595 11.25 6.25C11.25 5.905 11.53 5.625 11.875 5.625H33.75C34.095 5.625 34.375 5.905 34.375 6.25C34.375 6.595 34.095 6.875 33.75 6.875Z" fill="white"/>
<path d="M35 8.125C34.655 8.125 34.375 7.845 34.375 7.5C34.375 7.15562 34.0944 6.875 33.75 6.875C33.405 6.875 33.125 6.595 33.125 6.25C33.125 5.905 33.405 5.625 33.75 5.625C34.7838 5.625 35.625 6.46625 35.625 7.5C35.625 7.845 35.345 8.125 35 8.125Z" fill="white"/>
<path d="M6.77489 17.2513C6.51052 17.2513 6.26427 17.0819 6.17989 16.8157C6.07489 16.4869 6.25677 16.1351 6.58552 16.0307C8.60114 15.3876 10.7643 15.2607 12.8418 15.6644C13.1805 15.7301 13.4018 16.0582 13.3368 16.3969C13.2711 16.7357 12.9443 16.9544 12.6043 16.8919C10.7311 16.5276 8.78177 16.6426 6.96552 17.2219C6.90177 17.2413 6.83802 17.2513 6.77489 17.2513Z" fill="white"/>
<path d="M12.7231 16.9025C12.4881 16.9025 12.2625 16.7694 12.1563 16.5413C12.0106 16.2288 12.1456 15.8569 12.4588 15.7106L18.2725 13C18.5838 12.8538 18.9575 12.9888 19.1031 13.3025C19.2488 13.615 19.1138 13.9869 18.8006 14.1331L12.9869 16.8438C12.9019 16.8844 12.8119 16.9025 12.7231 16.9025Z" fill="white"/>
<path d="M19.5936 16.4575C19.3586 16.4575 19.133 16.3243 19.0268 16.0968C18.8811 15.7843 19.0161 15.4118 19.3286 15.2662C19.8324 15.0312 19.638 14.5475 19.5936 14.4531C19.5499 14.3587 19.3068 13.9 18.7999 14.1337C18.488 14.28 18.1149 14.145 17.9693 13.8312C17.8236 13.5187 17.9586 13.1468 18.2718 13.0006C19.3618 12.4912 20.3324 13.08 20.7261 13.925C21.1199 14.7693 20.9474 15.8906 19.8568 16.3993C19.7724 16.4387 19.6824 16.4575 19.5936 16.4575Z" fill="white"/>
<path d="M13.75 19.1824C13.515 19.1824 13.2894 19.0493 13.1831 18.8218C13.0375 18.5087 13.1725 18.1368 13.485 17.9912L19.3288 15.2662C19.6413 15.1193 20.0138 15.2556 20.1594 15.5681C20.305 15.8812 20.17 16.2531 19.8575 16.3987L14.0138 19.1237C13.9288 19.1637 13.8388 19.1824 13.75 19.1824Z" fill="white"/>
<path d="M16.1057 35.6249C15.9313 35.6249 15.7576 35.5524 15.6345 35.4106C15.4076 35.1499 15.4351 34.7556 15.6951 34.5287L21.5457 29.4324C21.8063 29.2056 22.2007 29.2331 22.4276 29.4931C22.6545 29.7537 22.627 30.1481 22.367 30.3749L16.5163 35.4712C16.3976 35.5743 16.2513 35.6249 16.1057 35.6249Z" fill="white"/>
<path d="M27.8063 35.6249C27.6607 35.6249 27.5144 35.5743 27.3963 35.4712L21.5457 30.3749C21.285 30.1481 21.2582 29.7537 21.485 29.4931C21.7113 29.2331 22.1063 29.2056 22.3669 29.4324L28.2175 34.5287C28.4781 34.7556 28.505 35.1499 28.2781 35.4106C28.1544 35.5524 27.9813 35.6249 27.8063 35.6249Z" fill="white"/>
<path d="M5 26.0913C4.655 26.0913 4.375 25.8113 4.375 25.4663V19.0188C4.375 18.6738 4.655 18.3938 5 18.3938C5.345 18.3938 5.625 18.6738 5.625 19.0188V25.4663C5.625 25.8113 5.345 26.0913 5 26.0913Z" fill="white"/>
<path d="M5 19.6438C4.655 19.6438 4.375 19.3638 4.375 19.0188C4.375 17.6319 5.26687 16.4301 6.59437 16.0276C6.92438 15.9269 7.27375 16.1144 7.37375 16.4444C7.47375 16.7751 7.28688 17.1238 6.95688 17.2238C6.16 17.4657 5.625 18.1869 5.625 19.0188C5.625 19.3638 5.345 19.6438 5 19.6438Z" fill="white"/>
<path d="M7.5 34.0625C7.155 34.0625 6.875 33.7825 6.875 33.4375V19.6969C6.875 19.3519 7.155 19.0719 7.5 19.0719C7.845 19.0719 8.125 19.3519 8.125 19.6969V33.4375C8.125 33.7825 7.845 34.0625 7.5 34.0625Z" fill="white"/>
<path d="M10.6251 16.6806C8.64445 16.6806 6.9707 15.0068 6.9707 13.0262C6.9707 11.0456 8.64445 9.37183 10.6251 9.37183C12.6057 9.37183 14.2795 11.045 14.2795 13.0262C14.2795 15.0075 12.6057 16.6806 10.6251 16.6806ZM10.6251 10.6225C9.32195 10.6225 8.2207 11.7237 8.2207 13.0268C8.2207 14.33 9.32195 15.4312 10.6251 15.4312C11.9282 15.4312 13.0295 14.33 13.0295 13.0268C13.0295 11.7231 11.9282 10.6225 10.6251 10.6225Z" fill="white"/>
<path d="M10.625 34.0626C10.28 34.0626 10 33.7826 10 33.4376V25.4663C10 25.1213 10.28 24.8413 10.625 24.8413C10.97 24.8413 11.25 25.1213 11.25 25.4663V33.4376C11.25 33.7826 10.97 34.0626 10.625 34.0626Z" fill="white"/>
<path d="M6.25 27.3007C5.31812 27.3007 4.375 26.6707 4.375 25.4663C4.375 25.1213 4.655 24.8413 5 24.8413C5.345 24.8413 5.625 25.1213 5.625 25.4663C5.625 26.0226 6.14562 26.0507 6.25 26.0507C6.35438 26.0507 6.875 26.0226 6.875 25.4663C6.875 25.1213 7.155 24.8413 7.5 24.8413C7.845 24.8413 8.125 25.1213 8.125 25.4663C8.125 26.6707 7.18187 27.3007 6.25 27.3007Z" fill="white"/>
<path d="M12.1875 35.5737C11.6287 35.5737 11.1025 35.3862 10.7056 35.045C10.2506 34.6537 10 34.0825 10 33.4375C10 33.0925 10.28 32.8125 10.625 32.8125C10.97 32.8125 11.25 33.0925 11.25 33.4375C11.25 34.2988 12.0919 34.3237 12.1875 34.3237C12.2831 34.3237 13.125 34.2988 13.125 33.4375C13.125 33.0925 13.405 32.8125 13.75 32.8125C14.095 32.8125 14.375 33.0925 14.375 33.4375C14.375 34.84 13.2744 35.5737 12.1875 35.5737Z" fill="white"/>
<path d="M9.0625 35.5737C8.50375 35.5737 7.9775 35.3862 7.58062 35.045C7.12562 34.6537 6.875 34.0825 6.875 33.4375C6.875 33.0925 7.155 32.8125 7.5 32.8125C7.845 32.8125 8.125 33.0925 8.125 33.4375C8.125 34.2988 8.96688 34.3237 9.0625 34.3237C9.15812 34.3237 10 34.2988 10 33.4375C10 33.0925 10.28 32.8125 10.625 32.8125C10.97 32.8125 11.25 33.0925 11.25 33.4375C11.25 34.84 10.1494 35.5737 9.0625 35.5737Z" fill="white"/>
</svg>
