<svg width="25" height="26" viewBox="0 0 25 26" fill="none" xmlns="http://www.w3.org/2000/svg">
<g clip-path="url(#clip0_320_4321)">
<path d="M24.5113 7.16008L12.7437 3.00818C12.586 2.95251 12.414 2.95251 12.2563 3.00818L0.48877 7.16008C0.196192 7.26331 0.00039121 7.53967 5.85304e-07 7.84993C-0.00039004 8.16018 0.194776 8.43699 0.48711 8.54089L12.2547 12.7243C12.334 12.7526 12.417 12.7667 12.5 12.7667C12.583 12.7667 12.666 12.7526 12.7453 12.7243L24.5129 8.54089C24.8052 8.43699 25.0003 8.16018 25 7.84993C24.9996 7.53967 24.8038 7.26331 24.5113 7.16008Z" fill="white"/>
<path d="M23.241 16.9365V10.5478L21.7761 11.0685V16.9365C21.3349 17.1904 21.0376 17.6662 21.0376 18.2119C21.0376 18.7575 21.3349 19.2334 21.7761 19.4873V23.0868C21.7761 23.4912 22.1041 23.8192 22.5085 23.8192C22.913 23.8192 23.241 23.4912 23.241 23.0868V19.4874C23.6822 19.2335 23.9795 18.7576 23.9795 18.212C23.9795 17.6663 23.6822 17.1904 23.241 16.9365Z" fill="white"/>
<path d="M12.4998 14.2316C12.2484 14.2316 12.0008 14.1888 11.7638 14.1046L5.14844 11.7528V14.9759C5.14844 15.7644 5.97104 16.4312 7.59341 16.9578C9.00752 17.4168 10.75 17.6696 12.4998 17.6696C14.2496 17.6696 15.992 17.4168 17.4062 16.9578C19.0286 16.4312 19.8512 15.7644 19.8512 14.9759V11.7528L13.2358 14.1046C12.9988 14.1888 12.7512 14.2316 12.4998 14.2316Z" fill="white"/>
</g>
<defs>
<clipPath id="clip0_320_4321">
<rect width="25" height="25" fill="white" transform="translate(0 0.892822)"/>
</clipPath>
</defs>
</svg>
