<svg width="30" height="31" viewBox="0 0 30 31" fill="none" xmlns="http://www.w3.org/2000/svg">
<g clip-path="url(#clip0_540_14851)">
<path d="M28.894 12.5909C28.7908 12.5018 28.6502 12.4643 28.5143 12.4878C28.1814 12.544 27.844 12.6096 27.4971 12.6799V10.8143C27.4971 10.6831 27.4408 10.5565 27.3424 10.4675C27.2439 10.3784 27.1174 10.3362 26.9814 10.3456C24.8205 10.5565 22.7486 11.1284 20.8221 12.0518C19.4674 12.7034 18.2205 13.5096 17.1096 14.4659C15.9986 13.5096 14.7517 12.7034 13.3971 12.0518C12.5533 11.6487 11.6814 11.3112 10.7861 11.0487C10.9174 11.3159 11.0017 11.6112 11.0158 11.9253C11.3627 12.0846 11.7377 12.2815 12.1361 12.5159C12.4268 12.6331 12.7127 12.7596 12.9939 12.8956C14.3252 13.5378 15.5533 14.344 16.6408 15.2956V17.8268C16.6877 17.9675 16.7299 18.1128 16.7674 18.2581C16.9127 18.8253 17.0065 19.3971 17.0392 19.955C17.0533 20.1424 17.058 20.3393 17.058 20.5315C17.058 20.63 17.058 20.7237 17.0533 20.8174L17.0627 20.8268C17.0908 20.8596 17.1236 20.8972 17.1564 20.9346C17.3252 21.1362 17.4705 21.3706 17.5783 21.619V15.2956C18.6658 14.344 19.8939 13.5378 21.2252 12.8956C22.8986 12.094 24.6893 11.569 26.5596 11.3393V13.2518V24.1831C26.3815 24.2159 26.208 24.2487 26.0299 24.2909C25.8705 24.3237 25.7158 24.3565 25.5611 24.3893C25.1908 24.469 24.8252 24.5628 24.4596 24.6659C24.2861 24.7174 24.1127 24.7643 23.944 24.8159C23.8502 24.8393 23.7611 24.8674 23.6674 24.8956C23.4658 24.9612 23.2596 25.0268 23.0299 25.1065C22.9924 25.1206 22.9596 25.1299 22.9267 25.144C22.7533 25.2003 22.5893 25.2612 22.4252 25.3222C22.2377 25.3924 22.0502 25.4675 21.8674 25.5425C21.8627 25.5425 21.858 25.5425 21.8533 25.5471C21.6705 25.6221 21.4924 25.6971 21.3142 25.7768C21.2721 25.7956 21.2299 25.8143 21.1877 25.8331C21.0471 25.894 20.9111 25.9596 20.7705 26.0253C20.7143 26.0487 20.6627 26.0768 20.6111 26.1003C20.3627 26.2175 20.1189 26.3393 19.8752 26.4659C19.7486 26.5315 19.6174 26.6018 19.4861 26.6768C19.3877 26.7284 19.2846 26.7847 19.1814 26.8456C19.008 26.9393 18.8393 27.0425 18.6705 27.1409C18.5017 27.2393 18.3283 27.3471 18.1549 27.455L17.8924 27.6331H17.8877L17.5783 27.0659V25.8049C17.3768 26.2737 17.0533 26.6768 16.6408 26.9721V27.0659L16.3315 27.6331L16.0596 27.455C16.008 27.4221 15.9564 27.3893 15.9002 27.3565H15.8955C15.6096 27.4597 15.3049 27.5112 14.9861 27.5112H14.3065H12.2533H8.46582C9.05176 27.6143 9.633 27.7362 10.2049 27.8815C12.0892 28.3596 13.8986 29.0628 15.5814 29.9768C15.5861 29.9815 15.5955 29.9815 15.6002 29.9815C15.6283 29.9909 15.6565 30.0003 15.6846 30.0143C15.7221 30.0284 15.7643 30.0331 15.8018 30.0331C15.8111 30.0331 15.8252 30.0331 15.8346 30.0284H18.3752C18.3892 30.0331 18.4033 30.0331 18.4174 30.0331C18.4549 30.0331 18.4971 30.0284 18.5346 30.0143C18.5674 30.0097 18.6049 29.9956 18.6377 29.9768C20.3252 29.0628 22.1299 28.3596 24.0096 27.8815C25.5049 27.5018 27.0564 27.2674 28.6174 27.1831C28.8658 27.169 29.0627 26.9628 29.0627 26.7143V12.9518C29.0627 12.8112 29.0018 12.6799 28.894 12.5909Z" fill="white"/>
<path d="M15.9375 24.6846V22.744C15.9375 22.6831 15.9328 22.6221 15.9188 22.5612C15.9188 22.5565 15.9188 22.5565 15.9188 22.5518C15.9094 22.505 15.8953 22.4628 15.8813 22.4206C15.8437 22.3174 15.7875 22.219 15.7172 22.1393C15.7031 22.1159 15.6844 22.1018 15.6703 22.0831L15.6563 22.069C15.6281 22.0362 15.5953 22.0081 15.5578 21.9846C15.5156 21.9471 15.4641 21.919 15.4125 21.8909C15.3656 21.8674 15.3187 21.8487 15.2672 21.83C15.2625 21.83 15.2578 21.8253 15.2485 21.8253C15.1969 21.8112 15.1406 21.8018 15.0844 21.7924C15.0797 21.7924 15.075 21.7924 15.075 21.7924C15.0703 21.7924 15.0703 21.7924 15.0703 21.7924C15.1172 21.5346 15.1453 21.2815 15.1641 21.0284C15.1641 21.005 15.1687 20.9862 15.1687 20.9628C15.1781 20.8174 15.1828 20.6768 15.1828 20.5315C15.1828 20.3768 15.1781 20.2221 15.1687 20.0721C15.1406 19.6174 15.0656 19.1721 14.9531 18.7409C13.9875 15.1175 10.3547 13.5987 9.15001 13.1862V12.0753C9.15001 11.8175 8.93907 11.6065 8.68126 11.6065C8.41876 11.6065 8.21251 11.8175 8.21251 12.0753V13.1909C8.20312 13.1909 8.19843 13.1956 8.18905 13.1956C8.12814 13.219 8.06251 13.2425 7.99218 13.2659C7.92189 13.294 7.84687 13.3221 7.76719 13.3503C7.7625 13.3503 7.7625 13.3503 7.7625 13.3503V7.27994C7.85625 6.8862 7.91719 6.30496 7.74376 5.6487C7.33126 4.11121 5.93436 3.40809 5.26875 3.15025V2.37683C5.26875 2.11902 5.0578 1.90808 4.8 1.90808C4.54219 1.90808 4.33125 2.11902 4.33125 2.37683V3.15025C3.99376 3.27682 3.47812 3.52058 2.99532 3.9237C2.51249 4.32213 2.06251 4.88463 1.85626 5.65339C1.68749 6.29557 1.74374 6.86744 1.83749 7.2612V21.7924C1.33593 21.8159 0.9375 22.2378 0.9375 22.744V24.6846C0.9375 25.2096 1.36405 25.6362 1.88908 25.6362H14.9859C15.511 25.6362 15.9375 25.2096 15.9375 24.6846ZM2.77499 7.69244H6.825V13.7721C6.79688 13.7862 6.77344 13.7956 6.75001 13.8097C6.72655 13.8237 6.70312 13.8331 6.67969 13.8471C6.64218 13.8659 6.6047 13.8893 6.56719 13.9081C6.55781 13.9128 6.54842 13.9175 6.53907 13.9221C6.43593 13.9737 6.33282 14.0299 6.23437 14.0909C6.22968 14.0909 6.22968 14.0956 6.22501 14.0956C6.08437 14.1753 5.95313 14.2549 5.82187 14.3393C5.65782 14.4425 5.50312 14.5503 5.35312 14.6628C4.9078 14.9815 4.50937 15.3284 4.15312 15.694C4.0547 15.7971 3.95625 15.9049 3.8625 16.0128C3.82032 16.0643 3.77812 16.1112 3.74062 16.1628C3.66563 16.2518 3.5953 16.3409 3.5297 16.4299C3.50624 16.4581 3.4875 16.4815 3.46876 16.5096C3.38905 16.6222 3.30937 16.7346 3.23905 16.8471C3.23439 16.8565 3.225 16.8659 3.22031 16.8753C3.15468 16.9831 3.08908 17.0909 3.02814 17.1987C3.00937 17.2315 2.99063 17.269 2.97189 17.3018C2.90156 17.4331 2.83593 17.569 2.77499 17.705V7.69244ZM1.875 24.6846L1.88908 22.7253H14.9859C14.9906 22.7253 15 22.7346 15 22.744L14.9859 24.6987L1.875 24.6846Z" fill="white"/>
</g>
<defs>
<clipPath id="clip0_540_14851">
<rect width="30" height="30" fill="white" transform="translate(0 0.970581)"/>
</clipPath>
</defs>
</svg>
